<svg xmlns="http://www.w3.org/2000/svg" width="728" height="90" viewBox="0 0 7280 900" xmlns:xlink="http://www.w3.org/1999/xlink" shape-rendering="geometricPrecision" text-rendering="geometricPrecision" image-rendering="optimizeQuality" fill-rule="evenodd" clip-rule="evenodd">
  <style>
    /* cyrillic-ext */
    @font-face {
    font-family: 'Open Sans';
    font-style: normal;
    font-weight: 700;
    src: local('Open Sans Bold'), local('OpenSans-Bold'), url(/assets/fonts/google/k3k702ZOKiLJc3WVjuplzHhCUOGz7vYGh680lGh-uXM.woff) format('woff');
    }
  </style>
  <defs>
    <filter id="blur2" x="-50%" y="-50%" width="200%" height="200%">
      <feGaussianBlur in="SourceGraphic" stdDeviation="40"/>
    </filter>
    <radialGradient id="id1" gradientUnits="userSpaceOnUse" gradientTransform="matrix(1 0 0 .5048 0 227)" cx="912.427" cy="457.642" r="715.123" fx="912.427" fy="457.642">
      <stop offset="0" stop-opacity=".4" stop-color="#fff"/>
      <stop offset="1" stop-opacity="0" stop-color="#fff"/>
    </radialGradient>
    <linearGradient id="id0_or" gradientUnits="userSpaceOnUse" x1=".006" y1="-590.221" x2="11922.5" y2="900.001">
      <stop offset="0" stop-color="#eb503e"/>
      <stop offset=".6" stop-color="#bf1f1f"/>
      <stop offset="1" stop-color="#a4000b"/>
    </linearGradient>
    <linearGradient id="id2_or" gradientUnits="userSpaceOnUse" x1="6972.77" y1="633.713" x2="4980.28" y2="677.005">
      <stop offset="0" stop-color="#fad961"/>
      <stop offset="1" stop-color="#f76b1c"/>
    </linearGradient>
    <linearGradient id="id3_or" gradientUnits="userSpaceOnUse" xlink:href="#id2_or" x1="6851.63" y1="164.934" x2="3797.04" y2="208.226"/>
    <linearGradient id="id4_or" gradientUnits="userSpaceOnUse" xlink:href="#id2_or" x1="4534.8" y1="121.083" x2="0" y2="190.719"/>
  </defs>
  <g id="back_or">
    <path id="Rectangle-8" fill="url(#id0_or)" d="M0 0h7280v900H0z"/>
    <path id="banner2" fill="url(#id3_or)" fill-opacity=".1" d="M7200 136v109l-4167-33z"/>
    <path id="Rectangle-14-Copy-2" fill="url(#id2_or)" fill-opacity=".1" d="M7200 605v109l-2718-33z"/>
    <path id="banner1" fill="url(#id4_or)" fill-opacity=".1" d="M0 99v108l4836-32z"/>
    <g id="banenr3">
      <path id="Rectangle-12" fill="#9a201d" fill-opacity=".5" d="M7200 748L0 807v93l7200-131z"/>
      <path id="Rectangle-9" fill="#f8504a" fill-opacity=".5" d="M0 747h7200v153L0 763z"/>
      <rect opacity=".25" transform="translate(40 40)" x="5610" y="175" width="1402" height="581" rx="20" ry="20" filter="url(&quot;#blur2&quot;)" fill="#2b2d42"/>
      <path id="back_pattern" d="M6015 97h156c12 0 21-9 21-21 1-27 0-55 0-82 0-11-9-20-20-20h-157c-12 0-21 9-21 20v82c0 11 9 21 21 21zm101-59l20-32h16v31h6v9h-6v13h-12V47h-24v-9zm-25-33c15 0 20 13 20 27 0 16-6 28-20 28s-20-13-20-28 7-27 20-27zm-66 33l20-32h15v31h6v9h-6v13h-12V47h-23v-9zm66 13c5 0 8-6 8-18s-3-18-8-18-7 5-7 18c0 12 3 18 7 18zm-43-26V15c-1 4-3 7-5 10l-7 12h12V25zm92 0V15c-2 4-3 7-5 10l-7 12h12V25zm1064 532V340h-217v217h217zm-81-92c-1-31 45-36 58-10l-16 10c-4-11-22-13-23-1-1 19 45 11 45 48 0 33-54 39-71 7l17-10c8 17 34 16 34 3 0-17-44-12-44-47zm-62 46c8 15 24 15 24-2v-69h20v69c5 35-47 43-61 12l17-10zm-198-47c-2-16-15-28-31-29 6-9 7-20 3-30s-14-17-25-19c5-7 5-17 0-24-7-8-17-13-27-11 5-12 2-26-8-35-13-16-31-27-51-33-4-1 0 4 3 11 1 7-2 13-6 17-8 9-10 17-4 25-10 2-20 8-25 17-7 10-8 23-2 34-11 1-20 8-24 18-5 10-4 22 3 31-23 5-33 18-31 38s15 26 37 23c21-5 44-5 66-1 31 4 62 4 93 0 18-3 31-13 29-32zm-173-58c0-14 9-31 25-31 13 0 24 14 24 31 0 16-11 31-24 31-14 0-25-15-25-31zm97 52c-25 18-49 20-73-1-7-7-7-9 1-11h71c13 2 2 12 1 12zm2-23c-16 0-25-17-25-30 0-17 11-31 25-31 13 0 24 14 24 31 0 13-9 30-24 30zm-1-48c6 0 12 8 12 18s-6 19-12 19c-7 0-12-9-12-19s5-18 12-18zm-74-1c7 0 12 8 12 19 0 10-5 18-12 18-6 0-12-8-12-18 0-11 6-19 12-19zm-331 131l-29-11c7-37-18-72-55-79-27-5-54 6-69 29l-14-16c-3-3-6-4-10-3l-21 4c3-38-25-71-62-75-27-2-53 12-66 36l-29-10c-14-10-23 16-7 18l29 10c-7 37 17 73 55 80 30 6 61-10 74-39l25-4 17 19c-9 36 13 74 49 83 31 8 62-6 77-34l29 11c12 4 19-15 7-19zm-220-68c-9 26-36 39-62 31-25-9-38-37-30-62 9-25 36-39 62-30 25 8 38 36 30 61zm157 9l-18 15-37-23c18-9 40-5 55 8zm-65-1l32 21-47 4c2-10 7-18 15-25zm15 81c-19-7-31-24-32-44l50-5-20 24c-5 6 3 14 9 8 8-8 16-20 24-29l11 23c3 7 14 2 11-5l-9-18 9 4c13 0 10-9 5-11l-14-7 13-11c25 39-13 87-57 71zm713-351h283c9 0 17-7 17-17V3c0-9-8-17-17-17h-283c-9 0-17 8-17 17v167c0 10 8 17 17 17zm288-17c0 3-2 6-6 6h-282c-3 0-5-3-5-6V18h293v152zM7210-1h57c6-1 6 8 0 8h-57c-6 0-6-8 0-8zm-155 0h142c6 0 6 8 0 8h-142c-5 0-5-7 0-8zm-17 1l3 3-3 3V0zm-6 0v6l-3-3 3-3zm-15 3c0 3-2 5-5 5s-5-2-5-5c0-6 10-7 10 0zm-15 0c0 3-2 5-5 5-2 0-5-2-5-5 0-6 10-7 10 0zm-15 0c0 3-2 5-4 5-3 0-5-2-5-5 0-6 9-7 9 0zm87 149h101c34 0 44-47 13-62-4-9-13-16-23-18-6-22-30-35-52-28-11 3-21 11-26 22-14 2-26 12-29 26-27 18-15 59 16 60zm-8-54c1-15 13-23 28-23 5-17 23-27 40-22 12 4 21 15 23 28 11 0 21 5 24 17 24 8 19 44-7 45h-100c-25-1-31-35-8-45zm30 30c16-13 41-13 57 0 3 4 9-1 5-5-18-16-49-16-68 0-3 4 2 9 6 5zm51-27c4 0 7-3 7-7s-3-7-7-7-7 3-7 7 3 7 7 7zm-45 0c4 0 7-3 7-7s-3-7-7-7-7 3-7 7 3 7 7 7zm-435-54l28 20-20 18 29-1 1 30 20-27 68 16-59-41 7-83-34 69-40-1zm63-28l-4 47 30 21-35-8-9 13V76h-15l10-9-15-12 20 1 18-37zm31 43c1 0 1 1 1 2v11l12 8 2-68c0-5-5-10-10-10h-21l-1 15c1-1 16 0 18 0 1 0 2 0 2 1v7c-1 1-1 2-2 2h-17l-2 6 19 1c1 0 1 0 1 1v17c0 1 0 2-1 2l-21-1v5l2 1h18zm-91-26v6h7v-7s0-1 1-1l18 1c1 0 1 0 1 1v7h7v-7c0-1 0-1 1-1h4l14-31h-35l-10 13-5 5-2 6c0 1-1 2-1 1h-3l-4 5h6c1 0 1 1 1 2zm29-21c1 0 2 0 2 1l3 6c0 1 0 2-1 2l-16 7c-1 0-2 0-2-1l-3-6c0-1 0-2 1-2 5-2 11-5 16-7zm-292 148l192-21 7-12-90 10c-1 0-2-1-2-1l-2-17c0-1 1-2 2-2l104-11 4-8-7-1-1-1 3-17c0-1 1-1 1-1l11 2-1-9-6-2c-1 0-2-1-1-2l4-16c0-1 1-2 2-1l4 1 4-7c-1 0-1 0-1-1l-2-17c-1-1 0-1 1-2h5l1-8-6-1c-1 0-1-1-1-2l1-6c0-1 1-2 1-2l10 2 10-16-262 29c-6 1-10 6-9 11l13 120c0 6 5 10 11 9zm-8-64l-2-17c0-1 1-2 1-2l31-3c1 0 1 0 1 1l2 17c0 1 0 1-1 2l-30 3c-1 0-2 0-2-1zm3 27l-2-17c0-1 1-2 1-2l47-5c1 0 2 1 2 1l2 17c0 1-1 2-2 2l-46 5c-1 0-2-1-2-1zm145-69l-17 2c-1 0-2-1-2-2l-2-17 1-1 17-2c1 0 2 0 2 1l2 17c0 1 0 2-1 2zm14 5s1 0 1 1l2 17c0 1 0 2-1 2l-17 2c-1 0-2-1-2-2l-2-17s1-1 2-1l17-2zm-27 3c1 0 1 0 1 1l2 17c0 1 0 1-1 2l-17 1c-1 1-1 0-2-1l-1-17c0-1 0-2 1-2l17-1zm-31-4c-1 1-2 0-2-1l-2-17s1-1 2-1l17-2s1 0 1 1l2 17c0 1 0 1-1 2l-17 1zm4 7c1 0 2 0 2 1l2 17c0 1 0 1-1 2l-17 1c-1 1-1 0-2-1l-1-17c-1 0 0-1 1-1l16-2zm-6 28s1 0 1 1l2 17c0 1 0 1-1 1l-17 2c-1 0-2 0-2-1l-2-17c0-1 1-1 1-1l18-2zm-35-4c-1 0-1 0-1-1l-2-17c0-1 0-2 1-2l17-2c1 0 2 1 2 2l2 17-1 1-18 2zm8 7c1-1 2 0 2 1l2 17-1 1-18 2s-1 0-1-1l-2-17c0-1 0-1 1-2l17-1zm-34-4c-1 0-2 0-2-1l-1-17c0-1 0-2 1-2l17-2c1 0 2 1 2 2l2 17s-1 1-2 1l-17 2zm-33 57c-1 0-2 0-2-1l-2-17c0-1 1-2 1-2l27-3c1 0 2 1 2 2l2 17s0 1-1 1l-27 3zm36-4c-1 0-2 0-2-1l-2-17c0-1 1-2 1-2l27-3c1 0 2 1 2 2l2 16c0 1 0 2-1 2l-27 3zm36-4c-1 0-2 0-2-1l-2-17c0-1 1-2 1-2l27-3c1 0 2 1 2 2l3 17c0 1-1 1-1 1l-28 3zm51-31l-18 2-1-1-2-17c0-1 0-2 1-2l17-2c1 0 2 1 2 1l2 17c0 1-1 2-1 2zm9-1c-1 0-2-1-2-1l-2-17c0-1 1-2 2-2l17-2 1 1v1l2 16c0 1 0 2-1 2l-17 2zm26-3c-1 0-1 0-1-1l-2-18s0-1 1-1l17-2c1 0 2 0 2 1l2 17c0 1-1 2-2 2l-17 2zm4-46c-1-1 0-2 1-2l17-2c1 0 1 1 2 2l1 16c1 1 0 1-1 2l-17 1c-1 1-1 0-2-1l-1-16zm38 43c0 1-1 1-2 1l-17-4s-1-1-1-2l4-16c0-1 1-1 2-1l17 4 1 1-4 17zm5-54c-1 0-2 0-2-1l-6-16c-1 0 0-1 0-2l16-6c1 0 2 0 2 1l7 16-1 1c0 1-14 6-16 7zm-8-38l17-2 1 1 1 7c0 1 0 2-1 2l-17 2c-1 0-2-1-2-1l-1-7c0-1 1-2 2-2zm14 48c1 0 1 1 1 2l-8 15c0 1-1 1-2 1l-15-8c-1 0-1-1-1-2l8-15c0-1 1-1 2-1 0 0 13 7 15 8zm-19-29l2 17-1 1-18 2s-1 0-1-1l-2-17c0-1 0-2 1-2l17-2c1 0 2 1 2 1v1zm-25-16l17-2s1 1 1 2l1 7s0 1-1 1l-17 2c-1 0-2 0-2-1l-1-7c0-1 1-2 2-2zm0 35c0 1 0 2-1 2l-17 2c-1 0-2-1-2-2l-2-17s1-1 2-1l17-2c1 0 1 0 2 1l1 17zm-30-32l17-1c1-1 1 0 1 1l1 7c0 1 0 1-1 1l-17 2h-2c0-1-1-7-1-8s1-1 1-2h1zm-30 4l17-2c1 0 1 0 1 1l1 7c0 1 0 2-1 2l-17 2c-1 0-2-1-2-2 0-2 0-5-1-7 0-1 1-1 2-1zm-30 3l17-2c1 0 1 1 1 1l1 7c0 1 0 2-1 2l-17 2c-1 0-2-1-2-1l-1-7c0-1 1-2 2-2zm8 16c1 0 1 1 1 1l2 17c0 1 0 2-1 2l-17 2c-1 0-2-1-2-1l-2-17c0-1 1-2 1-2s16-2 18-2zm-21-15c1 0 1 1 2 2v7c0 1 0 1-1 1l-17 2c-1 1-2 0-2 0l-1-8c0-1 1-2 2-2l17-2zm-6 18c1 0 2 0 2 1l2 17c0 1 0 2-1 2l-17 2c-1 0-2-1-2-2l-2-16c0-1 0-2 1-2 1-1 15-2 17-2zm-24-14c1 0 1 0 1 1l1 7c0 1 0 2-1 2l-17 2c-1 0-2-1-2-1l-1-7c0-1 1-2 1-2l18-2zm-19 19l17-2c1 0 2 0 2 1l2 17c0 1-1 1-2 1l-17 2c-1 0-1 0-1-1l-2-17c0-1 0-1 1-1zm-29-6l-1-7s1-1 2-1l17-2c1 0 1 0 1 1l1 7c0 1 0 2-1 2l-17 2c-1 0-2-1-2-1v-1zm3 8l17-1c0-1 1 0 1 1l2 17s0 1-1 1l-17 2c-1 0-2 0-2-1l-2-17c0-1 1-1 2-2zm257 9l5 2c1 0 1 1 1 2-2 5-5 11-7 16 0 0-1 1-2 1-1-1-2-1-2-2v10l-5 17c-1 0-1 1-2 1l-4-2-4 6h18c1 0 1 1 1 1v17c0 1 0 2-1 2l-32-1-7 11 150 4c6 0 11-5 11-10l1-34-12-2-3 11c-1 1-1 1-2 1-9-3-18-5-26-8-1 0-1-1-1-2 0 0 2-8 3-9l-7-1-1 1v14s0 1-1 1h-9l-5 6h14c1 0 2 1 2 2v17s-1 1-2 1l-27-1c-1 0-1 0-1-1v-17c0-1 0-1 1-1h3v-7h-19c-1 0-2-1-2-1V90h-7l1 15c0 1-1 2-1 2-6 0-12 0-18 1 0 0-1-1-1-2 0-5-1-11-1-16 0-1 0-2 1-2 4 0 9-1 13-1l4-4-10-13c-1-1-1-1 0-2 4-4 8-7 13-11l-1-1c-4-2-7-3-11-6l2 4h-5l-5 8zm79 54l27-1c1 0 2 1 2 1 0 6 0 12 1 17 0 1-1 2-2 2-8 0-18 1-27 1 0 0-1 0-1-1 0-6-1-12-1-17 0-2 1-2 1-2zm-73-1c0-1 0-2 1-2l27 1c1 0 1 1 1 2v17s0 1-1 1l-27-1c-1 0-1 0-1-1v-17zm-433 581h-34c-4 1-4 6 0 7h34c4 0 5-6 1-7h-1zm-8 204c0 6-4 10-9 10s-10-4-10-10c0-12 19-12 19 0zm34-225h-87c-12 0-21 10-21 22v50h34l-13-25c-2-5 5-9 8-4l14 29h52c2-2 4-1 6 0h29v-50c0-12-10-22-22-22zm-108 205v26c0 12 9 22 21 22h87c12 0 22-10 22-22v-24l-130-2zm14-183c0-4 3-8 7-8h87c4 0 8 4 8 8v13h-102v-13zm102 209c0 4-4 8-7 8h-88c-4 0-7-4-7-8v-19h102v19zm1026-16h-6c1-2 1-4 1-6V723c0-9-7-16-16-17h-273c-9 0-16 8-16 17v24h11v-24c0-3 2-5 5-5h273c3 0 6 2 6 5v161c0 3-3 6-6 6h-65v10l-241-5c-2 3-4 7-4 11v5c0 9 8 16 17 16h314c9 0 16-7 16-16v-5c0-9-7-16-16-16zm5 21c0 3-2 5-5 5h-314c-3 0-6-2-6-5v-5c0-3 3-5 6-5h314c3 0 5 2 5 5v5zm-169-183h26c3 0 3-5 0-5h-26c-4 0-4 5 0 5zm-7-3c0 3-2 4-4 4-3 0-4-1-4-4 0-5 8-5 8 0zm146 8h-265v14h9c-3-4 2-9 6-6l7 6h47l1-3c0-6 9-4 9 1l-1 2h126v105l6 3c5 2 1 11-5 8l-1-1v7h61V733zm-831 153c-8 2-9 11-2 14 4 1 14-1 15-5 0-6-8-10-13-9zm232-139c-7 0-14 0-18-1l-6-1c-3-2-3-6-5-10 0-2-2-3-4-4-4-1-3-5 1-6 4 0 8-1 12-2 2-1 4-4 3-6 0-2-2-4-4-4-3-1-6 1-9 1-11 1-23-2-23-15 0-3 2-4 2-7-1-3-5-2-5-4-1-4 13-19 15-22 3-3 6-4 5-8-1-2-4-3-6-2-5 1-8 11-10 15-9 12-22 14-26 7-1-2-1-4-3-5-2 0-3 2-5 2-5 1-12-3-12-15 0-3 3-18-4-16-8 2 3 24-5 26-4 1-5-6-9-5-3 1-4 4-6 0-3-3-4-15-10-14-6 2 4 13 5 15 1 3 2 11-2 11-3 0-3-6-7-5-6 2 4 6 3 7-2 2-5-1-7 0-4 2 1 10 3 14 3 6 2 10-7 11h-1c-2 0-6-3-6 1 0 3 4 3 5 5 6 7 6 13-5 12-3-1-5-1-8-2l-59-42c-3-2-16-12-25-7s-6 21-4 29c3 11 9 20 17 28 7 7 16 12 26 13 5 0 10 0 15-2 12-4 10-4 20-10l3-2c6 1 18 4 20 9 1 2 6 5 6 11h16l7-42 18 3-7 39h19c-2-4-3-9-2-15 6-26 45-23 52 1l-15 6c-2-10-16-14-19-4v1c-1 4 2 8 7 11h64zm-175 139l-13 26c-1 3-20 21-13 28 8 4 17-22 17-24 3-5 6-10 9-14 3-3 6-9 10-15l-10-1zm-33-155c-12-4-21-13-27-24-2-6-8-24-3-28 2-1 9 3 14 7l36 26 14 9c-11 8-19 13-34 10zm175-83c-6 3 6 7 3 1 0-1-2-2-3-1zm-84 240c-1 3-1 7 1 7 4 0 7-3 8-7h-9zm74-193l1 1c1 1 2 1 3 0 7-5 14-9 22-12 3 2 6 1 8-2 1-2 1-6-2-7-3-2-6-1-8 2 0 0-1 1-1 2-8 3-15 7-22 12-1 1-1 3-1 4zm-126-32v-2c-2-3-5-5-8-4s-4 4-3 7 4 5 7 4h1c6 4 12 10 18 16 0 1 2 1 3 1l1-1c1-1 1-3 0-4-6-6-12-12-19-17zm-111 221c-2 2-4 5-3 8s9-3 10-4c1 0 3-2 5-3l-12-1zm485-142l-3-2h-2l-7 7h9l3-3v-2zm-25 5l-7-7c-1-1-2-1-2 0-1 0-2 2-2 2-1 1-1 2 0 2l2 3h9zm-839-33c-2-3-7-3-9 0l-17 33h17l-1-5v-9h12l-1 9v5h17l-18-33zm523-272l-2-2c-1 0-2-1-2 0l-14 13-14-13c0-1-1-1-2 0 0 0-1 2-2 2-1 1 0 2 0 2l14 14-14 13v2l2 2c1 1 2 1 2 0 5-4 9-9 14-13l14 13c0 1 1 1 2 0l2-2c1 0 0-1 0-2l-13-13 13-14v-2zm-442-232l-2-2c-1-1-2-1-2 0l-14 13-14-14h-2c0 1-1 2-2 3-1 0 0 1 0 2l14 14-14 13c-1 0-1 1 0 2 0 0 2 1 2 2 1 1 2 1 2 0l14-14 14 14c0 1 1 1 2 0l2-2v-2l-13-14 13-13v-2zm1331-54l-14-14h-2c-1 1-2 2-2 3-1 0-1 1 0 2l13 14-13 13c-1 0-1 1 0 2l2 2c0 1 1 1 2 0 4-5 9-9 14-14v1-9zM6402 260c-2-4-7-4-9 0l-32 58c-2 3 1 8 5 8h63c4 0 6-5 4-8l-31-58zm1 58h-11v-9h11v9zm0-30l-2 18h-7l-2-18v-9h11v9zm944 272c-3-4-8-4-11 0l-36 67c-2 4 0 9 5 9h72c5 0 8-5 6-9l-36-67zm0 67h-12v-11h13l-1 11zm0-35l-1 21h-9l-2-21v-10h13l-1 10zM4082 97h156c12 0 21-9 21-21 1-27 0-55 0-82 0-11-9-20-20-20h-157c-12 0-21 9-21 20v82c0 11 9 21 21 21zm101-59l20-32h16v31h6v9h-6v13h-12V47h-24v-9zm-24-33c14 0 19 13 19 27 0 16-6 28-20 28-13 0-20-13-20-28s7-27 21-27zm-67 33l20-32h15v31h6v9h-6v13h-12V47h-23v-9zm66 13c5 0 8-6 8-18s-3-18-8-18-7 5-7 18c0 12 3 18 7 18zm-43-26V15c-1 4-3 7-5 10l-7 12h12V25zm92 0V15c-2 4-3 7-5 10l-7 12h12V25zm1064 532V340h-217v217h217zm-81-92c-1-31 45-36 58-10l-16 10c-4-11-21-13-23-1-1 19 45 11 45 48 0 33-54 39-71 7l17-10c8 17 34 16 34 3 0-17-44-12-44-47zm-62 46c8 15 24 15 24-2v-69h20v69c5 35-47 43-61 12l17-10zm422 367c0-3 1-6 1-9l-16-1v22c0 30 12 41 42 41v-12c-29 1-27-18-27-41zm0-131c0-23-2-41 27-40v-12h-2c-28-1-40 13-40 40v12h15zm190-12c0-27-12-41-40-40h-2v12c29-1 27 17 27 40h14c1-5 1-9 1-12zm-16 137c0 8 1 17 0 25 0 17-10 22-26 21v12c29 0 42-10 42-40v-18h-16zm-27-125l-26-27h-89c-9 0-15 8-15 17v10h16v-10h78v10h36zm-130 122v19c0 9 6 17 15 17h31s46 40 87-1c8-9 14-20 16-32l-51-1v4h-15v-5l-54-1c1 12 5 19 5 19h-18v-19h-16zm79 12h23v20h-23v-20zm205-439h-2c-2-2-3-3-5-4s-4-1-5-1c-6-14-17-23-31-26l4-61c0-1-1-2-1-2l-32-42c7-1 15-4 21-8-2 7 7 13 13 8l5-4 4 5c5 6 14 2 14-5 0-4-3-7-6-10l5-5c8-6-2-19-10-12l-5 4-4-5c-7-8-19 3-13 11-7-11-36-17-52-20 2-5-1-11-6-13-7-3-15 3-14 10-12-1-24-2-37-2-18-1-35-1-53 1l2-2c7-6-1-15-8-10l-3 3-3-3c-5-7-15 1-10 8l3 3-4 4c-30 5-37 12-37 18 0 5 7 12 23 17 0 5 5 8 10 8 3-1 6-3 7-6v99c-41 9-62 27-61 54-2 1-3 2-4 2l-2 1c-3 1-5 5-4 8 0 3-1 4 1 7 0 2 0 4 2 5v2c0 2 1 3 3 4 2 0 4 0 6-1 1-1 2-2 4-2-1 2 0 4 2 6 1 2 3 4 6 4 0 0 1 0 2-1l1-1c3-2 2-5 1-7v-2c0-1 1-2 1-3v-4c1-2 1-4 1-6 0-7-3-14-10-15h-4c2-21 19-35 53-42v118c0 7 5 12 11 12l65-7v24c-4 0-6 2-6 3 0 2 4 4 9 4s9-2 9-4-2-2-4-3v-25l11-1v20c-3 1-4 2-4 4 0 1 4 4 9 4s9-2 9-4c0-3-3-4-6-4 1-6 1-15 0-21l67-7c6 1 11-4 12-10 3-30 4-62 6-93 10 3 18 9 23 18-2 1-3 3-5 5-1 3-2 6-2 9 0 2 0 4 1 6 1 3 1 6 0 9-2 5-1 9 4 9 4-1 7-5 8-9v-3c2 2 4 3 6 4 1 1 4 1 6 1 2-1 3-3 3-6 2-1 2-3 2-5 1-2 1-4 0-6 0-4 2-6-2-9zm-230-145c-2-5-7-7-12-6-1 1-3 2-4 4-7-3-10-6-10-7 0-14 91-13 99-13 23 1 47 3 70 8 22 5 27 10 27 12s-4 5-15 8l-13-17c-1-1-2-2-4-2h-127c-7 0-11 6-11 13zm172 215c-1 1-2 2-3 2l-109 11-29 3c-12 1-18-3-19-11 0-73-4-148-4-222 0-2 2-3 3-3h126l2 3-4 32c-1 8 4 15 11 16 11 1 22 2 33 4l4 4-11 161zm-122-152l-3 6c-2 5 6 8 8 3l2-6 7 2c5 2 8-5 3-8l-6-2 2-6c2-5-6-8-8-3l-2 6-6-2c-5-3-9 5-4 7l7 3zm47-5l6 2-2 7c-2 5 5 8 7 3l3-6 6 2c5 2 8-6 3-8l-6-2 2-6c2-5-5-8-7-3l-3 6-6-3c-5-2-8 6-3 8zm66 85h-135c-4 0-4 7 0 7h135c5 0 5-7 0-7zm0 19h-135c-4 0-4 6 0 6h135c5 0 5-6 0-6zm-69 15h-65c-5 0-5 6 0 6h65c4 0 4-6 0-6zm-126-157l-3 3-3-3c-6-6-15 2-10 8l3 3-3 3c-7 6 1 15 8 10l3-3 3 3c5 7 15-1 10-8l-3-3 3-3c6-5-2-15-8-10zm195 181l-1-1-2-1h-2l-2-1s-1 0-1-1c0 0-1 0-1-1v-1c1 0 1-1 1-1h5l1 1h2l1-1c-1-1-2-2-3-2-1-1-2-1-4-1h-3c-1 0-2 0-2 1l-2 2v5l1 1c1 1 1 1 2 1l2 1 2 1h2l1 1v1c0 1 0 2-1 2 0 1-1 1-2 1h-4l-1-1h-2l-1 2c1 1 1 1 2 1l2 1h4c1 0 2-1 3-1s2-1 3-2c1 0 1-1 2-2v-2-2c-1 0-1-1-2-1zm-21 4v2c0 1 0 1-1 2l-1 1h-4v3h3c1 0 3 0 4-1 1 0 1-1 2-2 1 0 1-1 2-2v-18l-4-1-1 16zm-99-95l8-8 9 8c2 1 5 1 7 0l8-8 9 8c2 1 5 1 7 0l8-8 9 8c1 1 4 1 6 0l8-8 9 8c4 4 10-3 6-7l-11-10c-2-2-5-2-7 0l-8 7-8-7c-2-2-5-2-7 0l-9 7-8-7c-2-2-5-2-7 0l-9 7-8-7c-2-2-5-2-7 0l-11 9c-5 5 1 11 6 8zm-734 57c-2-16-15-28-31-29 6-9 7-20 3-30s-14-17-25-19c5-7 5-17 0-24-7-8-17-13-27-11 5-12 2-26-8-35-13-16-31-27-51-33-4-1 0 4 3 11 1 7-2 13-6 17-8 9-10 17-4 25-10 2-20 8-25 17-7 10-8 23-2 34-11 1-20 8-24 18-5 10-3 22 3 31-23 5-33 18-31 38s15 26 37 23c21-5 44-5 66-1 31 4 62 4 93 0 18-3 31-13 29-32zm-173-58c0-14 9-31 25-31 13 0 24 14 24 31 0 16-11 31-24 31-14 0-25-15-25-31zm97 52c-25 18-49 20-73-1-7-7-7-9 1-11h71c13 2 2 12 1 12zm2-23c-16 0-24-17-24-30 0-17 10-31 24-31 13 0 24 14 24 31 0 13-9 30-24 30zm-1-48c6 0 12 8 12 18s-6 19-12 19c-7 0-12-9-12-19s5-18 12-18zm-74-1c7 0 12 8 12 19 0 10-5 18-12 18-6 0-12-8-12-18 0-11 6-19 12-19zm-331 131l-29-11c7-37-18-72-55-79-27-5-54 6-69 29l-14-16c-3-3-6-4-10-3l-21 4c3-38-25-71-62-75-27-2-53 12-66 36l-29-10c-14-10-23 16-7 18l29 10c-7 37 18 73 55 80 30 6 61-10 74-39l25-4 17 19c-9 36 13 74 49 83 31 8 63-6 77-34l29 11c12 4 19-15 7-19zm-220-68c-9 26-36 39-62 31-25-9-38-37-30-62 9-25 36-39 62-30 25 8 38 36 30 61zm157 9l-18 15-37-23c18-9 40-5 55 8zm-65-1l32 21-47 4c2-10 7-18 15-25zm15 81c-19-7-31-24-32-44l50-5-20 24c-5 6 3 14 9 8 8-8 16-20 24-29l11 23c3 7 14 2 11-5l-9-18 9 4c13 0 10-9 5-11l-14-7 13-11c25 39-13 87-57 71zm713-351h283c9 0 17-7 17-17V3c0-9-8-17-17-17h-283c-9 0-17 8-17 17v167c0 10 8 17 17 17zm288-17c0 3-2 6-5 6h-283c-3 0-5-3-5-6V18h293v152zM5277-1h57c6-1 6 8 0 8h-57c-6 0-6-8 0-8zm-155 0h142c6 0 6 8 0 8h-142c-5 0-5-7 0-8zm-17 1l3 3-3 3V0zm-6 0v6l-3-3 3-3zm-15 3c0 3-2 5-5 5s-5-2-5-5c0-6 10-7 10 0zm-15 0c0 3-2 5-5 5-2 0-5-2-5-5 0-6 10-7 10 0zm-14 0c0 3-3 5-5 5-3 0-5-2-5-5 0-6 10-7 10 0zm86 149h101c34 0 44-47 13-62-4-9-13-16-23-18-6-22-30-35-52-28-11 3-21 11-26 22-14 2-26 12-29 26-27 18-15 59 16 60zm-8-54c1-15 13-23 28-23 5-17 23-27 40-22 12 4 21 15 23 28 11 0 21 5 24 17 24 8 19 44-6 45h-101c-25-1-31-35-8-45zm30 30c16-13 41-13 57 0 3 4 9-1 5-5-18-16-49-16-68 0-3 4 3 9 6 5zm51-27c4 0 7-3 7-7s-3-7-7-7-7 3-7 7 3 7 7 7zm-45 0c4 0 7-3 7-7s-3-7-7-7-7 3-7 7 3 7 7 7zm554 28c8 0 15 6 15 14s-7 15-15 15-15-7-15-15 7-14 15-14zm81-65c-26 0-47 21-47 47s21 47 47 47 47-21 47-47-21-47-47-47zm22 55h-44c-11 0-11-16 0-16h44c10 0 10 16 0 16zm-145-10c-3 3-3 8 0 11 4 3 9 3 12 0 14-14 36-18 53-9 0-6 1-11 3-17-24-9-50-3-68 15zm96-49c-42-22-93-15-127 18-10 8 5 22 12 11 26-26 66-33 100-18 4-4 9-8 15-11zm-145 0c49-49 127-51 180-6 5 1 11 2 17 5 3-3 3-9 0-12-57-57-152-54-209 2-7 7 4 19 12 11zm-898-13l28 20-20 18 29-1 1 30 20-27 68 16-59-41 7-83-34 69-40-1zm63-28l-4 47 30 21-35-8-9 13V76h-15l10-9-15-12 20 1 18-37zm31 43c1 0 1 1 1 2v11l12 8 2-68c0-5-5-10-10-10h-21l-1 15c1-1 16 0 18 0 1 0 2 0 2 1v7c-1 1-1 2-2 2h-17l-2 6 19 1c1 0 1 0 1 1v17c0 1 0 2-1 2l-21-1v5l2 1h18zm-91-26v6h7v-7s0-1 1-1l18 1c1 0 1 0 1 1v7h7v-7c0-1 0-1 1-1h4l14-31h-35l-10 13-5 5-2 6c0 1-1 2-1 1h-3l-4 5h6c1 0 1 1 1 2zm29-21c1 0 2 0 2 1l3 6c0 1 0 2-1 2l-16 7c-1 0-2 0-2-1l-3-6c0-1 0-2 1-2 5-2 11-5 16-7zm-292 148l192-21 7-12-90 10c-1 0-2-1-2-1l-2-17c0-1 1-2 2-2l104-11 4-8-7-1-1-1 3-17c0-1 1-1 2-1l10 2-1-9-6-2c-1 0-2-1-1-2l4-16c0-1 1-2 2-1l4 1 4-7c-1 0-1 0-1-1l-2-17c-1-1 0-1 1-2h5l1-8-6-1c-1 0-1-1-1-2l1-6c0-1 1-2 1-2l10 2 10-16-262 29c-6 1-10 6-9 11l13 120c0 6 6 10 11 9zm-8-64l-2-17c0-1 1-2 1-2l31-3c1 0 1 0 1 1l2 17c0 1 0 1-1 2l-30 3c-1 0-2 0-2-1zm3 27l-2-17c0-1 1-2 1-2l47-5c1 0 2 1 2 1l2 17c0 1-1 2-2 2l-46 5c-1 0-2-1-2-1zm145-69l-17 2c-1 0-2-1-2-2l-2-17 1-1 18-2s1 0 1 1l2 17c0 1 0 2-1 2zm14 5s1 0 1 1l2 17c0 1 0 2-1 2l-17 2c-1 0-2-1-2-2l-2-17s1-1 2-1l17-2zm-27 3c1 0 1 0 2 1l1 17c1 1 0 1-1 2l-17 1c-1 1-1 0-2-1l-1-17c0-1 0-2 1-2l17-1zm-31-4c-1 1-2 0-2-1l-2-17s1-1 2-1l17-2c1 0 1 0 1 1l2 17c0 1 0 1-1 2l-17 1zm4 7c1 0 2 0 2 1l2 17c1 1 0 1-1 2l-17 1c-1 1-1 0-2-1l-1-17c-1 0 0-1 1-1l16-2zm-6 28s1 0 1 1l2 17c0 1 0 1-1 1l-17 2c-1 0-2 0-2-1l-2-17c0-1 1-1 1-1l18-2zm-35-4c-1 0-1 0-1-1l-2-17c0-1 0-2 1-2l17-2c1 0 2 1 2 2l2 17-1 1-18 2zm8 7c1-1 2 0 2 1l2 17-1 1-18 2s-1 0-1-1l-2-17c0-1 0-1 1-2l17-1zm-34-4c-1 0-2 0-2-1l-1-17c0-1 0-2 1-2l17-2c1 0 2 1 2 2l2 17-1 1-18 2zm-33 57c-1 0-2 0-2-1l-2-17c0-1 1-2 1-2l27-3c1 0 2 1 2 2l2 17s0 1-1 1l-27 3zm36-4c-1 0-2 0-2-1l-2-17c0-1 1-2 1-2l27-3c1 0 2 1 2 2l2 16c0 1 0 2-1 2l-27 3zm36-4c-1 0-2 0-2-1l-2-17c0-1 1-2 1-2l27-3c1 0 2 1 2 2l3 17c0 1 0 1-1 1l-28 3zm51-31l-17 2c-1 0-2-1-2-1l-2-17c0-1 0-2 1-2l17-2c1 0 2 1 2 1l2 17c0 1-1 2-1 2zm9-1c-1 0-2-1-2-1l-2-17c0-1 1-2 2-2l17-2 1 1v1l2 16c0 1 0 2-1 2l-17 2zm26-3c-1 0-1 0-1-1l-2-18s0-1 1-1l17-2c1 0 2 0 2 1l2 17c0 1-1 2-2 2l-17 2zm4-46c-1-1 0-2 1-2l17-2c1 0 1 1 2 2l1 16c1 1 0 1-1 2l-17 1c-1 1-1 0-2-1l-1-16zm38 43c0 1-1 1-2 1l-17-4s-1-1-1-2l4-16c0-1 1-1 2-1l17 4 1 1-4 17zm5-54c-1 0-2 0-2-1l-6-16c-1 0 0-1 0-2l16-6c1 0 2 0 2 1l7 16-1 1c0 1-14 6-16 7zm-8-38l17-2 1 1 1 7c0 1 0 2-1 2l-17 2c-1 0-2-1-2-1l-1-7c0-1 1-2 2-2zm14 48c1 0 1 1 1 2l-8 15c0 1-1 1-2 1l-15-8c-1 0-1-1-1-2l8-15c0-1 1-1 2-1 0 0 13 7 15 8zm-19-29l2 17-1 1-18 2s-1 0-1-1l-2-17c0-1 0-2 1-2l17-2c1 0 2 1 2 1v1zm-25-16l17-2s1 1 1 2l1 7s0 1-1 1l-17 2c-1 0-2 0-2-1l-1-7c0-1 1-2 2-2zm0 35c0 1 0 2-1 2l-17 2c-1 0-1-1-2-2l-1-17c-1 0 0-1 1-1l17-2c1 0 1 0 2 1l1 17zm-30-32l17-1c1-1 1 0 1 1l1 7c0 1 0 1-1 1l-17 2h-2c0-1-1-7-1-8s1-1 1-2h1zm-30 4l17-2c1 0 1 0 1 1l1 7c0 1 0 2-1 2l-17 2c-1 0-2-1-2-2 0-2 0-5-1-7 0-1 1-1 2-1zm-30 3l17-2c1 0 1 1 1 1l1 7c0 1 0 2-1 2l-17 2c-1 0-2-1-2-1l-1-7c0-1 1-2 2-2zm8 16c1 0 1 1 1 1l2 17c0 1 0 2-1 2l-17 2c-1 0-2-1-2-1l-2-17c0-1 1-2 1-2s16-2 18-2zm-21-15c1 0 1 1 2 2v7c0 1 0 1-1 1l-17 2c-1 1-2 0-2 0l-1-8c0-1 1-2 2-2l17-2zm-6 18c1 0 2 0 2 1l2 17c0 1 0 2-1 2l-17 2c-1 0-2-1-2-2l-2-16c0-1 0-2 1-2 1-1 15-2 17-2zm-24-14c1 0 1 0 1 1l1 7c0 1 0 2-1 2l-17 2c-1 0-2-1-2-1l-1-7c0-1 1-2 1-2l18-2zm-19 19l17-2c1 0 2 0 2 1l2 17c0 1-1 1-2 1l-17 2c-1 0-1 0-1-1l-2-17c0-1 0-1 1-1zm-29-6l-1-7s1-1 2-1l17-2c1 0 1 0 1 1l1 7c0 1 0 2-1 2l-17 2c-1 0-2-1-2-1v-1zm3 8l17-1c0-1 1 0 1 1l2 17s0 1-1 1l-17 2c-1 0-2 0-2-1l-2-17c0-1 1-1 2-2zm257 9l5 2c1 0 1 1 1 2-2 5-5 11-7 16 0 0-1 1-2 1-1-1-2-1-2-2v10l-5 17c-1 0-1 1-2 1l-4-2-4 6h18c1 0 1 1 1 1v17c0 1 0 2-1 2l-32-1-7 11 150 4c6 0 11-5 11-10l1-34-12-2-3 11c-1 1-1 1-2 1-8-3-18-5-26-8-1 0-1-1-1-2 0 0 2-8 3-9l-7-1-1 1v14s0 1-1 1h-9l-5 6h14c1 0 2 1 2 2v17s-1 1-2 1l-27-1c-1 0-1 0-1-1v-17c0-1 0-1 1-1h3v-7h-19c-1 0-2-1-2-1V90h-7l1 15c0 1-1 2-1 2-6 0-12 0-18 1 0 0-1-1-1-2 0-5-1-11-1-16 0-1 0-2 1-2 4 0 9-1 13-1l4-4-10-13c-1-1-1-1 0-2 4-4 9-7 13-11l-1-1c-4-2-7-3-11-6l2 4h-5l-5 8zm79 54l27-1c1 0 2 1 2 1 0 6 0 12 1 17 0 1-1 2-2 2-8 0-18 1-27 1 0 0-1 0-1-1 0-6-1-12-1-17 0-2 1-2 1-2zm-73-1c0-1 0-2 1-2l27 1c1 0 1 1 1 2v17s0 1-1 1l-27-1c-1 0-1 0-1-1v-17zm-433 581h-34c-4 1-4 6 0 7h34c4 0 5-6 1-7h-1zm-8 204c0 6-4 10-9 10s-10-4-10-10c0-12 19-12 19 0zm34-225h-87c-12 0-21 10-21 22v50h34l-13-25c-2-5 5-9 8-4l14 29h52c2-2 4-1 6 0h29v-50c0-12-10-22-22-22zm-108 168v63c0 12 9 22 21 22h87c12 0 22-10 22-22v-60l-24-1 10 9c5 3-1 10-5 6l-18-15h-17l-14 29c-3 5-10 1-8-3l13-27-67-1zm14-146c0-4 3-8 7-8h87c4 0 8 4 8 8v13h-102v-13zm102 209c0 4-4 8-7 8h-88c-4 0-7-4-7-8v-19h102v19zm1026-16h-6c1-2 1-4 1-6v-19h-10v19c0 3-3 6-6 6h-273c-3 0-5-3-5-6v-25h-11v25c0 2 0 4 1 5h-5c-9 0-17 8-17 17v5c0 9 8 16 17 16h314c9 0 16-7 16-16v-5c0-9-7-16-16-16zm-5-143v-24c0-9-7-16-16-17h-273c-9 0-16 8-16 17v24h11v-24c0-3 2-5 5-5h273c3 0 6 2 6 5v24h10zm10 164c0 3-2 5-5 5h-314c-3 0-6-2-6-5v-5c0-3 3-5 6-5h314c3 0 5 2 5 5v5zm-169-183h26c3 0 3-5 0-5h-26c-4 0-4 5 0 5zm-7-3c0 3-2 4-4 4-3 0-4-1-4-4 0-5 8-5 8 0zm146 8h-265v14h9c-3-4 2-9 6-6l7 6h47l1-3c1-6 10-4 9 1l-1 2h187v-14zm-265 126v10h265v-5l-56-1c-1 1-2 1-3 0l-190-3-2 1c-2 4-7 2-8-2h-6zm-609 10c-5 3 4 6 4 2-1-2-3-2-4-2zm43 17c-8 2-9 11-2 14 4 1 14-1 15-5 0-6-8-10-13-9zm232-139c-7 0-14 0-18-1l-6-1c-3-2-3-6-4-10-1-2-3-3-5-4-4-1-3-5 1-6 4 0 8-1 12-2 2-1 4-4 3-6 0-2-2-4-4-4-3-1-6 1-9 1-11 1-23-2-23-15 0-3 2-4 2-7-1-3-5-2-5-4-1-4 13-19 15-22 3-3 6-4 5-8-1-2-4-3-6-2-5 1-8 11-10 15-9 12-22 14-26 7-1-2-1-4-3-5-2 0-3 2-4 2-6 1-13-3-13-15 0-3 3-18-4-16s3 24-5 26c-4 1-5-6-9-5-3 1-4 4-6 0-3-3-4-15-10-14-6 2 4 13 5 15 2 3 2 11-2 11-3 0-3-6-7-5-6 2 4 6 3 7-1 2-5-1-7 0-4 2 1 10 3 14 3 6 2 10-7 11h-1c-2 0-6-3-6 1 0 3 4 3 5 5 6 7 6 13-5 12-3-1-5-1-8-2l-59-42c-3-2-16-12-25-7s-6 21-4 29c3 11 9 20 17 28 7 7 16 12 26 13 5 0 10 0 15-2 12-4 10-4 21-10l2-2c6 1 18 4 20 9 1 2 6 5 6 11h16l7-42 18 3-7 39h19c-2-4-3-9-2-15 6-26 45-23 53 1l-16 6c-2-10-16-14-19-4v1c-1 4 2 8 7 11h64zm-156 103l-5 7c-1 3-24 50-27 55-1 3-20 21-13 28 8 4 17-22 17-24 3-5 6-10 9-14 7-8 20-35 27-52h-8zm-52-119c-11-4-21-13-27-24-2-6-8-24-3-28 2-1 9 3 14 7l36 26 14 9c-11 8-19 13-34 10zm175-83c-6 3 6 7 3 1 0-1-2-2-3-1zm-86 203c-2 3-3 6-2 9 1 2 2 1 4 0 1 6 3 12 4 17l4 1h5l9-15-22-4c2-2 3-4 4-6l21 3c1-2 1-3 2-5h-29zm7 28c-3 1-9 16-4 16 6 1 11-10 7-15-1-2-2-2-3-1zm69-184l1 1c1 1 2 1 3 0 7-5 14-9 22-12 3 2 6 1 8-2 1-2 1-6-2-7-3-2-6-1-8 2 0 0-1 1-1 2-8 3-15 7-22 12-1 1-1 3-1 4zm-126-32v-2c-1-3-5-5-8-4s-4 4-3 7 4 5 7 4h1c6 4 12 10 18 16 0 1 2 1 3 1l1-1c1-1 1-3 0-4-6-6-12-12-19-17zm-67 185c-14 12-37 33-41 35-3 1-8 5-6 9 1 3 9-3 10-4 5-4 25-22 44-39l-7-1zm441-106l-2-2h-3l-7 7h9l3-3v-2zm-25 5l-7-7c-1-1-2-1-2 0-1 0-2 2-2 2-1 1-1 2 0 2l2 3h9zm-839-33c-2-3-7-3-9 0l-17 33h17l-1-5v-9h12l-1 9v5h17l-18-33zm523-272l-2-2s-2-1-2 0l-14 13-14-13c0-1-1-1-2 0 0 0-1 2-2 2-1 1 0 2 0 2l14 14-14 13v2l2 2c1 1 2 1 2 0 5-4 10-9 14-13l14 13c0 1 1 1 2 0l2-2c1 0 0-1 0-2l-13-13 13-14c1-1 1-1 0-2zm-442-232l-2-2c-1-1-2-1-2 0l-14 13-14-14h-2c0 1-1 2-2 3-1 0 0 1 0 2l14 14-14 13c-1 0-1 1 0 2 1 0 2 1 2 2 1 1 2 1 2 0l14-14 14 14c0 1 1 1 2 0l2-2c1-1 0-1 0-2l-13-14 13-13v-2zm1349-65l-2-2c-1-1-2-1-3 0l-13 13-14-14h-2c-1 1-2 2-2 3-1 0-1 1 0 2l13 14-13 13c-1 0-1 1 0 2l2 2c0 1 1 1 2 0 4-5 9-9 14-14l13 14c1 1 2 1 2 0 1 0 2-1 2-2 1-1 1-1 0-2l-13-14 14-13v-2zm328 444l-2-2c-1-1-2-1-2 0l-14 13-14-14h-2c0 1-1 2-2 3-1 0 0 1 0 2l14 13-14 14c-1 0-1 1 0 2 0 0 2 1 2 2h2l14-14 14 14h2c0-1 1-2 2-2v-2l-13-14 13-14v-1zM4469 260c-2-4-7-4-9 0l-32 58c-2 3 1 8 5 8h63c4 0 6-5 4-8l-31-58zm1 58h-11v-9h11v9zm0-30l-2 18h-7l-2-18v-9h11v9zm944 272c-3-4-8-4-11 0l-36 67c-2 4 1 9 5 9h73c4 0 7-5 5-9l-36-67zm1 67h-13v-11h13v11zm0-35l-2 21h-9l-2-21v-10h13v10zM2149 97h156c12 0 21-9 21-21 1-27 0-55 0-82 0-11-9-20-20-20h-157c-12 0-21 9-21 20v82c0 11 9 21 21 21zm101-59l20-32h16v31h6v9h-6v13h-12V47h-24v-9zm-24-33c14 0 19 13 19 27 0 16-6 28-20 28-13 0-20-13-20-28s7-27 21-27zm-67 33l20-32h15v31h6v9h-6v13h-12V47h-23v-9zm66 13c5 0 8-6 8-18s-3-18-8-18-7 5-7 18c0 12 3 18 7 18zm-43-26V15c-1 4-3 7-5 10l-7 12h12V25zm92 0V15c-2 4-3 7-5 10l-7 12h12V25zm1064 532V340h-217v217h217zm-81-92c-1-31 45-36 58-10l-16 10c-4-11-21-13-23-1-1 19 45 11 45 48 0 33-54 39-71 7l17-10c8 17 34 16 34 3 0-17-44-12-44-47zm-62 46c8 15 24 15 24-2v-69h21v69c4 35-48 43-62 12l17-10zm422 367c0-13 2-30-1-44h-15c1 3 1 6 1 9v47c0 30 12 41 42 41v-12c-29 1-27-18-27-41zm0-131c0-23-2-41 27-40v-12h-2c-28-1-40 13-40 40v12h15zm190-12c0-27-12-41-40-40h-2v12c29-1 27 17 27 40h14c1-5 1-9 1-12zm-14 100v2c-3 18-1 41-2 60 0 17-10 22-26 21v12c29 0 42-10 42-40v-48-7h-14zm-29-88l-26-27h-89c-8 0-15 8-15 17v10h16v-10h78v10h36zm-130 87v54c0 9 7 17 15 17h31s46 40 87-1c18-19 22-46 12-69l-42-1v4l-5 37h-15l-4-37v-4l-36-1h-8c-15 29-1 55-1 55h-18v-55l-16 1zm79 47h23v20h-23v-20zm205-439h-2c-2-2-3-3-5-4s-4-1-5-1c-6-14-17-23-31-26l4-61c0-1-1-2-1-2l-32-42c7-1 15-4 21-8-2 7 7 13 13 8l5-4 4 5c5 6 14 2 14-5 0-4-3-7-6-10l5-5c8-6-2-19-10-12l-5 4-4-5c-7-8-19 3-13 11-7-11-36-17-52-20 2-5-1-11-6-13-7-3-15 3-14 10-12-1-24-2-37-2-18-1-35-1-53 1l2-2c7-6-1-15-8-10l-3 3-3-3c-5-7-15 1-10 8l3 3-4 4c-30 5-37 12-37 18 0 5 8 12 23 17 1 5 5 8 10 8 3-1 6-3 7-6v99c-41 9-62 27-61 54-2 1-3 2-4 2l-2 1c-3 1-5 5-4 8 0 3-1 4 1 7 0 2 0 4 2 5v2c0 2 1 3 3 4 2 0 4 0 6-1 1-1 2-2 4-2-1 2 0 4 2 6 1 2 3 4 6 4 0 0 1 0 2-1l1-1c3-2 2-5 1-7v-2c0-1 1-2 1-3 0-2 0-3 1-4v-6c0-7-3-14-10-15h-4c2-21 19-35 53-42v118c0 7 6 12 11 12l65-7v24c-4 0-6 2-6 3 0 2 4 4 9 4s9-2 9-4-2-2-4-3v-25l11-1v20c-3 1-4 2-4 4 0 1 4 4 9 4s9-2 9-4c0-3-3-4-6-4 1-6 1-15 0-21l67-7c6 1 11-4 12-10 3-30 4-62 6-93 10 3 18 9 23 18-2 1-3 3-4 5-2 3-3 6-3 9 0 2 0 4 1 6 1 3 1 6 0 9-2 5-1 9 4 9 4-1 7-5 8-9v-3c2 2 4 3 6 4 1 1 4 1 6 1 2-1 3-3 3-6 2-1 2-3 2-5 1-2 1-4 0-6 0-4 2-6-2-9zm-230-145c-2-5-7-7-12-6-1 1-3 2-4 4-7-3-10-6-10-7 0-14 91-13 99-13 23 1 47 3 70 8 22 5 27 10 27 12s-4 5-15 8l-13-17c-1-1-2-2-4-2h-127c-7 0-11 6-11 13zm172 215c0 1-2 2-3 2l-109 11-29 3c-12 1-18-3-19-11 0-73-4-148-4-222 0-2 2-3 3-3h126l2 3-4 32c-1 8 4 15 11 16 11 1 22 2 33 4l4 4-11 161zm-122-152l-3 6c-2 5 6 8 8 3l3-6 6 2c5 2 8-5 3-8l-6-2 2-6c2-5-6-8-8-3l-2 6-6-2c-5-3-9 5-4 7l7 3zm47-5l6 2-2 7c-2 5 5 8 7 3l3-6 6 2c5 2 8-6 3-8l-6-2 2-6c2-5-5-8-7-3l-3 6-6-3c-5-2-8 6-3 8zm66 85h-135c-4 0-4 7 0 7h135c5 0 5-7 0-7zm0 19h-135c-4 0-4 6 0 6h135c5 0 5-6 0-6zm-69 15h-65c-5 0-5 6 0 6h65c4 0 4-6 0-6zm-126-157l-3 3-3-3c-6-6-15 2-10 8l3 3-3 3c-7 6 1 15 8 10l3-3 3 3c5 7 15-1 10-8l-3-3 3-3c6-5-2-15-8-10zm196 181c-1 0-2-1-2-1l-2-1h-2l-2-1s-1 0-1-1c0 0-1 0-1-1v-1c1 0 1-1 1-1h5l1 1h2l1-1c-1-1-2-2-3-2-1-1-2-1-4-1h-3c-1 0-2 0-2 1l-2 2v5l1 1c1 1 1 1 2 1l2 1 2 1h2l1 1v1c0 1 0 2-1 2 0 1-1 1-2 1h-4l-1-1h-2l-1 2c1 1 1 1 2 1l2 1h4c1 0 2-1 3-1s2-1 3-2c1 0 1-1 2-2v-2-2c-1 0-1-1-1-1zm-22 4v2c0 1 0 1-1 2 0 0 0 1-1 1h-4v3h3c2 0 3 0 4-1 1 0 2-1 2-2 1 0 1-1 2-2v-18l-4-1-1 16zm-99-95l8-8 9 8c2 1 5 1 7 0l8-8 9 8c2 1 5 1 7 0l8-8 9 8c2 1 4 1 6 0l8-8 9 8c4 4 10-3 6-7l-11-10c-2-2-5-2-7 0l-8 7-8-7c-2-2-5-2-7 0l-9 7-8-7c-2-2-5-2-7 0l-9 7-8-7c-2-2-5-2-7 0l-11 9c-5 5 2 11 6 8zm-734 57c-2-16-15-28-31-29 6-9 7-20 3-30s-14-17-25-19c5-7 5-17 0-24-7-8-17-13-27-11 5-12 2-26-8-35-13-16-31-27-51-33-4-1 0 4 3 11 1 7-2 13-6 17-8 9-10 17-4 25-10 2-19 8-25 17-7 10-7 23-2 34-11 1-20 8-24 18-5 10-3 22 4 31-24 5-34 18-32 38s15 26 37 23c21-5 44-5 66-1 31 4 62 4 93 0 18-3 31-13 29-32zm-173-58c0-14 9-31 25-31 13 0 24 14 24 31 0 16-11 31-24 31-14 0-25-15-25-31zm97 52c-25 18-49 20-73-1-7-7-7-9 1-11h71c13 2 2 12 1 12zm2-23c-16 0-24-17-24-30 0-17 10-31 24-31 13 0 24 14 24 31 0 13-9 30-24 30zm-1-48c6 0 12 8 12 18s-6 19-12 19c-7 0-12-9-12-19s5-18 12-18zm-74-1c7 0 12 8 12 19 0 10-5 18-12 18-6 0-12-8-12-18 0-11 6-19 12-19zm-331 131l-29-11c7-37-18-72-55-79-27-5-54 6-69 29l-14-16c-3-3-6-4-10-3l-21 4c3-38-24-71-62-75-27-2-53 12-66 36l-29-10c-14-10-23 16-7 18l29 10c-7 37 18 73 55 80 30 6 61-10 74-39l25-4 17 19c-9 36 13 74 49 83 31 8 63-6 77-34l29 11c12 4 19-15 7-19zm-220-68c-9 26-36 39-62 31-25-9-38-37-30-62 9-25 36-39 62-30 25 8 39 36 30 61zm157 9l-18 15-37-23c19-9 40-5 55 8zm-65-1l32 21-47 4c2-10 7-18 15-25zm15 81c-19-7-31-24-32-44l50-5-20 24c-5 6 3 14 9 8 8-8 16-20 24-29l11 23c3 7 14 2 11-5l-9-18 9 4c13 0 10-9 5-11l-14-7 13-11c25 39-13 87-57 71zm713-351h283c9 0 17-7 17-17V3c0-9-8-17-17-17h-283c-9 0-17 8-17 17v167c0 10 8 17 17 17zm288-17c0 3-2 6-5 6h-283c-3 0-5-3-5-6V18h293v152zM3344-1h57c6-1 6 8 0 8h-57c-6 0-6-8 0-8zm-155 0h142c6 0 6 8 0 8h-142c-5 0-5-7 0-8zm-17 1l3 3-3 3V0zm-6 0v6l-3-3 3-3zm-15 3c0 3-2 5-5 5s-5-2-5-5c0-6 10-7 10 0zm-15 0c0 3-2 5-5 5-2 0-5-2-5-5 1-6 10-7 10 0zm-14 0c0 3-3 5-5 5-3 0-5-2-5-5 0-6 10-7 10 0zm86 149h101c34 0 44-47 13-62-4-9-13-16-23-18-6-22-29-35-52-28-11 3-21 11-26 22-14 2-26 12-29 26-27 18-15 59 16 60zm-8-54c1-15 13-23 28-23 5-17 23-27 40-22 12 4 21 15 23 28 11 0 21 5 24 17 25 8 19 44-6 45h-101c-25-1-30-35-8-45zm30 30c16-13 41-13 57 0 3 4 9-1 5-5-18-16-49-16-68 0-3 4 3 9 6 5zm51-27c4 0 7-3 7-7s-3-7-7-7-7 3-7 7 3 7 7 7zm-45 0c4 0 7-3 7-7s-3-7-7-7-7 3-7 7 3 7 7 7zm554 28c8 0 15 6 15 14s-7 15-15 15-15-7-15-15 7-14 15-14zm81-65c-26 0-47 21-47 47s21 47 47 47 47-21 47-47-21-47-47-47zm22 55h-44c-11 0-11-16 0-16h44c10 0 10 16 0 16zm-144-10c-4 3-4 8 0 11 3 3 8 3 11 0 14-14 36-18 53-9 0-6 1-11 3-17-24-9-50-3-67 15zm95-49c-42-22-93-15-127 18-10 8 5 22 12 11 26-26 66-33 100-18 4-4 9-8 15-11zm-145 0c49-49 127-51 180-6 5 1 11 2 17 5 3-3 3-9 0-12-57-57-152-54-209 2-7 7 4 19 12 11zm-898-13l28 20-20 18 29-1 1 30 20-27 68 16-58-41 6-83-34 69-40-1zm63-28l-4 47 30 21-35-8-9 13V76h-15l10-9-15-12 20 1 18-37zm31 43c1 0 1 1 1 2v11l12 8 2-68c0-5-5-10-10-10h-21l-1 15c1-1 16 0 18 0 1 0 2 0 2 1v7c0 1-1 2-2 2h-17l-2 6 19 1c1 0 1 0 1 1v17c0 1 0 2-1 2l-21-1v5l2 1h18zm-91-26v6h7v-7s0-1 1-1l18 1c1 0 1 0 1 1v7h7v-7c0-1 0-1 1-1h4l14-31h-35l-10 13-5 5-2 6c0 1-1 2-1 1h-3l-4 5h6c1 0 1 1 1 2zm29-21c1 0 2 0 2 1l3 6c0 1 0 2-1 2l-16 7c-1 0-2 0-2-1l-3-6c0-1 0-2 1-2 5-2 11-5 16-7zm-292 148l192-21 7-12-90 10c-1 0-2-1-2-1l-2-17c0-1 1-2 2-2l104-11 4-8-7-1-1-1 3-17c0-1 1-1 2-1l10 2-1-9-6-2c-1 0-2-1-1-2l4-16c0-1 1-2 2-1l4 1 4-7c-1 0-1 0-1-1l-2-17c0-1 0-1 1-2h5l1-8-6-1c-1 0-1-1-1-2l1-6c0-1 1-2 1-2l10 2 10-16-262 29c-6 1-10 6-9 11l13 120c0 6 6 10 11 9zm-8-64l-2-17c0-1 1-2 1-2l31-3c1 0 1 0 2 1l1 17c0 1 0 1-1 2l-30 3c-1 0-2 0-2-1zm3 27l-2-17c0-1 1-2 1-2l47-5c1 0 2 1 2 1l2 17c0 1-1 2-2 2l-46 5c-1 0-2-1-2-1zm145-69l-17 2c-1 0-2-1-2-2l-2-17 1-1 18-2s1 0 1 1l2 17c0 1 0 2-1 2zm14 5c1 0 1 0 1 1l2 17c0 1 0 2-1 2l-17 2c-1 0-2-1-2-2l-2-17s1-1 2-1l17-2zm-27 3c1 0 1 0 2 1l1 17c1 1 0 1-1 2l-17 1c-1 1-1 0-2-1l-1-17c0-1 0-2 1-2l17-1zm-31-4c-1 1-2 0-2-1l-2-17s1-1 2-1l17-2c1 0 1 0 1 1l2 17c0 1 0 1-1 2l-17 1zm4 7c1 0 2 0 2 1l2 17c1 1 0 1-1 2l-17 1c-1 1-1 0-2-1l-1-17c-1 0 0-1 1-1l16-2zm-6 28s1 0 1 1l2 17c0 1 0 1-1 1l-17 2c-1 0-2 0-2-1l-2-17c0-1 1-1 1-1l18-2zm-35-4c-1 0-1 0-1-1l-2-17c0-1 0-2 1-2l17-2c1 0 2 1 2 2l2 17-1 1-18 2zm8 7c1-1 2 0 2 1l2 17-1 1-18 2s-1 0-1-1l-2-17c0-1 0-1 1-2l17-1zm-34-4c-1 0-2 0-2-1l-1-17c0-1 0-2 1-2l17-2c1 0 2 1 2 2l2 17-1 1-18 2zm-33 57c-1 0-2 0-2-1l-2-17c0-1 1-2 1-2l27-3c1 0 2 1 2 2l2 17s0 1-1 1l-27 3zm36-4c-1 0-2 0-2-1l-2-17c0-1 1-2 1-2l27-3c1 0 2 1 2 2l2 16c0 1 0 2-1 2l-27 3zm36-4c-1 0-2 0-2-1l-2-17c0-1 1-2 1-2l27-3c1 0 2 1 2 2l3 17c0 1 0 1-1 1l-28 3zm51-31l-17 2c-1 0-2-1-2-1l-2-17c0-1 0-2 1-2l17-2c1 0 2 1 2 1l2 17c0 1-1 2-1 2zm9-1c-1 0-2-1-2-1l-2-17c0-1 1-2 2-2l17-2 1 1v1l2 16c0 1 0 2-1 2l-17 2zm26-3c-1 0-1 0-1-1l-2-18s0-1 1-1l17-2c1 0 2 0 2 1l2 17c0 1-1 2-2 2l-17 2zm4-46c0-1 0-2 1-2l17-2c1 0 1 1 2 2l1 16c1 1 0 1-1 2l-17 1c-1 1-1 0-1-1l-2-16zm38 43c0 1-1 1-2 1l-17-4s-1-1-1-2l4-16c0-1 1-1 2-1l17 4 1 1-4 17zm5-54c-1 0-2 0-2-1l-6-16c-1 0 0-1 0-2h1l16-6s1 0 1 1l7 16-1 1c0 1-14 6-16 7zm-8-38l17-2 1 1 1 7c0 1 0 2-1 2l-17 2c-1 0-2-1-2-1l-1-7c0-1 1-2 2-2zm14 48c1 0 1 1 1 2l-8 15c0 1-1 1-2 1l-15-8c-1 0-1-1-1-2l8-15c0-1 1-1 2-1 0 0 13 7 15 8zm-19-29l2 17-1 1-18 2s-1 0-1-1l-2-17c0-1 0-2 1-2l17-2c1 0 2 1 2 1v1zm-25-16l17-2s1 1 1 2l1 7s0 1-1 1l-17 2c-1 0-2 0-2-1l-1-7c0-1 1-2 2-2zm0 35c0 1 0 2-1 2l-17 2c-1 0-1-1-2-2l-1-17c-1 0 0-1 1-1l17-2c1 0 1 0 2 1l1 17zm-30-32l17-1c1-1 1 0 2 1v7c0 1 0 1-1 1l-17 2h-2c0-1-1-7-1-8s1-1 1-2h1zm-30 4l17-2c1 0 1 0 1 1l1 7c0 1 0 2-1 2l-17 2c-1 0-2-1-2-2 0-2 0-5-1-7 0-1 1-1 2-1zm-30 3l17-2c1 0 1 1 1 1l1 7c0 1 0 2-1 2l-17 2c-1 0-2-1-2-1l-1-7c0-1 1-2 2-2zm8 16c1 0 1 1 1 1l2 17c0 1 0 2-1 2l-17 2c-1 0-1-1-2-1l-1-17c-1-1 0-2 0-2s16-2 18-2zm-21-15c1 0 1 1 2 2v7c1 1 0 1-1 1l-17 2c-1 1-2 0-2 0l-1-8c0-1 1-2 2-2l17-2zm-5 18s1 0 1 1l2 17c0 1 0 2-1 2l-17 2c-1 0-2-1-2-2l-2-16c0-1 0-2 1-2 1-1 15-2 18-2zm-25-14c1 0 1 0 1 1l1 7c0 1 0 2-1 2l-17 2c-1 0-2-1-2-1v-7c-1-1 0-2 0-2l18-2zm-19 19l17-2c1 0 2 0 2 1l2 17c0 1-1 1-2 1l-17 2c-1 0-1 0-1-1l-2-17c0-1 0-1 1-1zm-29-6l-1-7s1-1 2-1l17-2c1 0 1 0 1 1l1 7c0 1 0 2-1 2l-17 2c-1 0-2-1-2-1v-1zm3 8l17-1c1-1 1 0 1 1l2 17s0 1-1 1l-17 2c-1 0-2 0-2-1l-2-17c0-1 1-1 2-2zm258 9l4 2c1 0 1 1 1 2-2 5-5 11-7 16 0 0-1 1-2 1-1-1-2-1-2-2v10l-5 17s-1 1-2 1l-4-2-4 6h18c1 0 1 1 1 1v17c0 1 0 2-1 2l-32-1-7 11 150 4c6 0 11-5 11-10l1-34-12-2-3 11c-1 1-1 1-2 1-8-3-18-5-26-8-1 0-1-1-1-2 0 0 2-8 3-9l-6-1-2 1v14s0 1-1 1h-9l-5 6h14c1 0 2 1 2 2v17s-1 1-2 1l-27-1c-1 0-1 0-1-1v-17c0-1 0-1 1-1h3v-7h-19c-1 0-2-1-2-1V90h-7l1 15c0 1-1 2-1 2-6 0-12 0-18 1 0 0-1-1-1-2 0-5-1-11-1-16 0-1 0-2 1-2 4 0 9-1 13-1l4-4-10-13c-1-1-1-1 0-2 4-4 9-7 13-11l-1-1c-4-2-7-3-11-6l2 4h-5l-4 8zm78 54l27-1c1 0 2 1 2 1 0 6 0 12 1 17 0 1-1 2-2 2-8 0-18 1-27 1 0 0-1 0-1-1 0-6-1-12-1-17 0-2 1-2 1-2zm-73-1c0-1 0-2 1-2l27 1c1 0 1 1 1 2v17s0 1-1 1l-27-1c-1 0-1 0-1-1v-17zm-433 581h-34c-2 0-3 2-3 4 0 1 1 3 3 3h34c2 0 4-1 4-3s-1-4-3-4h-1zm-17 195c5 0 9 4 9 9 0 6-4 10-9 10s-10-4-10-10c0-5 5-9 10-9zm43-216h-87c-12 0-21 10-21 22v50h34l-13-25c-2-5 5-9 8-4l14 29h52c2-2 4-1 6 0h29v-50c0-12-10-22-22-22zm-108 183v48c0 12 9 22 21 22h87c12 0 22-10 22-22v-50h-12c0 3-4 7-7 4l-4-4-37 1-8 17c-3 5-10 1-8-3l7-14-61 1zm14-161c0-4 3-8 7-8h87c4 0 8 4 8 8v13h-102v-13zm102 209c0 4-3 8-7 8h-88c-4 0-7-4-7-8v-19h102v19zm1026-16h-6c1-2 1-4 1-6v-46h-10v46c0 3-3 6-6 6h-273c-3 0-5-3-5-6v-41h-11v41c0 2 0 4 1 5h-5c-9 0-17 8-17 17v5c0 9 8 16 17 16h314c9 0 16-7 16-16v-5c0-9-7-16-16-16zm-5-143v-24c0-9-7-16-16-17h-273c-9 0-16 8-16 17v24h11v-24c0-3 2-5 5-5h273c3 0 6 2 6 5v24h10zm10 164c0 3-2 5-5 5h-314c-3 0-6-2-6-5v-5c0-3 3-5 6-5h314c3 0 5 2 5 5v5zm-169-183h26c3 0 3-5 0-5h-26c-4 0-4 5 0 5zm-7-3c0 3-2 4-4 4-3 0-4-1-4-4 0-5 8-5 8 0zm146 8h-265v14h9c-3-4 2-9 6-6l7 6h47l1-3c1-6 10-4 9 1l-1 2h187v-14zm-265 110v26h265v-31l-86 2 31 15c5 2 1 11-5 8l-45-23-130 2-16 19c-3 5-11-1-6-6l10-12h-18zm-609 26c-5 3 4 6 4 2-1-2-3-2-4-2zm43 17c-8 2-9 11-2 14 4 1 14-1 15-5 0-6-8-10-13-9zm232-139c-7 0-14 0-18-1l-6-1c-3-2-3-6-4-10-1-2-3-3-5-4-4-1-3-5 1-6 4 0 8-1 12-2 2-1 4-4 3-6 0-2-2-4-4-4-3-1-6 1-9 1-11 1-23-2-23-15 0-3 3-4 2-7s-5-2-5-4c-1-4 13-19 15-22 3-3 6-4 5-8-1-2-4-3-6-2-5 1-8 11-10 15-9 12-22 14-26 7-1-2-1-4-3-5-2 0-3 2-4 2-6 1-13-3-13-15 0-3 3-18-4-16s3 24-5 26c-4 1-5-6-9-5-3 1-4 4-6 0-3-3-4-15-10-14-6 2 4 13 5 15 2 3 2 11-2 11-3 0-3-6-7-5-6 2 4 6 3 7-1 2-5-1-6 0-5 2 0 10 2 14 3 6 2 10-7 11h-1c-2 0-6-3-6 1 0 3 4 3 5 5 6 7 6 13-5 12-3-1-5-1-8-2l-59-42c-3-2-16-12-25-7s-6 21-4 29c3 11 9 20 17 28 7 7 16 12 26 13 5 0 10 0 15-2 12-4 10-4 21-10l2-2c6 1 18 4 20 9 1 2 6 5 6 11h16l7-42 18 3-7 39h19c-2-4-3-9-2-15 6-26 45-23 53 1l-16 6c-2-10-16-14-19-4v1c-1 4 2 8 7 11h64zm-158 105l-3 5c-1 3-24 50-27 55-1 3-20 21-13 28 8 4 17-22 17-24 3-5 6-10 9-14 6-7 19-34 27-50h-10zm-50-121c-11-4-21-13-27-24-2-6-8-24-3-28 2-1 9 3 14 7l36 26 14 9c-11 8-19 13-34 10zm175-83c-6 3 6 7 3 1 0-1-2-2-3-1zm-86 203c-2 3-3 6-2 9 1 2 2 1 4 0 1 6 3 12 4 17l5 1h4l9-15-22-4c2-2 3-4 4-6l21 3c1-2 2-4 2-5h-29zm7 28c-3 1-9 16-3 16 5 1 10-10 6-15-1-2-2-2-3-1zm69-184l1 1c1 1 2 1 3 0 7-5 14-9 22-12 3 2 6 1 8-2 1-2 1-6-2-7-3-2-6-1-8 2 0 0-1 1-1 2-8 3-15 7-22 12-1 1-1 3-1 4zm-126-32v-2c-1-3-5-5-8-4s-4 4-3 7 4 5 7 4h1c6 4 12 10 18 16 0 1 2 1 3 1l1-1c1-1 1-3 0-4-6-6-12-12-19-17zm-73 190c-13 12-32 28-35 30-2 1-8 5-6 9 1 3 9-3 10-4 5-3 22-19 39-35h-8zm447-111l-2-2h-3l-7 7h9l3-3v-2zm-25 5l-7-7c-1-1-2-1-2 0-1 0-2 2-2 2-1 1-1 2 0 2l2 3h9zm-839-33c-2-3-7-3-9 0l-17 33h17l-1-5v-9h12l-1 9v5h17l-18-33zm523-272l-2-2s-2-1-2 0l-14 13-14-13c0-1-1-1-2 0 0 0-1 2-2 2v2l14 14-14 13v2l2 2c1 1 2 1 2 0 5-4 10-9 14-13l14 13c0 1 1 1 2 0l2-2c1 0 0-1 0-2l-13-13 13-14c1-1 1-1 0-2zm-442-232l-2-2c-1-1-2-1-2 0l-14 13-14-14h-2c0 1-1 2-2 3-1 0 0 1 0 2l14 14-14 13v2c1 0 2 1 2 2 1 1 2 1 2 0l14-14 14 14c0 1 1 1 2 0l2-2c1-1 0-1 0-2l-13-14 13-13v-2zm1349-65l-2-2c-1-1-2-1-3 0l-13 13-14-14h-2c-1 1-2 2-2 3-1 0-1 1 0 2l13 14-13 13c-1 0-1 1 0 2l2 2c0 1 1 1 2 0 4-5 9-9 14-14l13 14c1 1 2 1 2 0 1 0 2-1 2-2 1-1 1-1 0-2l-13-14 14-13v-2zm328 444l-2-2c-1-1-2-1-2 0l-14 13-14-14h-2c0 1-1 2-2 3-1 0 0 1 0 2l14 13-14 14c-1 0-1 1 0 2 1 0 2 1 2 2h2l14-14 14 14h2c0-1 1-2 2-2v-2l-13-14 13-14v-1zM2536 260c-2-4-7-4-9 0l-32 58c-2 3 1 8 5 8h63c4 0 6-5 4-8l-31-58zm1 58h-11v-9h11v9zm0-30l-2 18h-7l-2-18v-9h11v9zm944 272c-3-4-8-4-11 0l-36 67c-2 4 1 9 5 9h73c4 0 7-5 5-9l-36-67zm1 67h-13v-11h13v11zm0-35l-2 21h-9l-2-21v-10h13v10zM216 97h156c12 0 21-9 21-21 1-27 0-55 0-82 0-11-9-20-20-20H216c-12 0-21 9-21 20v82c0 11 9 21 21 21zm101-59l20-32h16v31h6v9h-6v13h-12V47h-24v-9zM293 5c14 0 19 13 19 27 0 16-6 28-20 28-13 0-20-13-20-28s7-27 21-27zm-67 33l20-32h15v31h6v9h-6v13h-12V47h-23v-9zm66 13c5 0 8-6 8-18s-3-18-8-18-7 5-7 18c0 12 3 18 7 18zm-43-26V15c-1 4-3 7-5 10l-7 12h12V25zm92 0V15c-2 4-3 7-5 10l-7 12h12V25zm1064 532V340h-217v217h217zm-81-92c-1-31 45-36 58-10l-16 10c-4-11-21-13-22-1-2 19 44 11 44 48 0 33-54 39-71 7l17-10c8 17 34 16 34 3 0-17-44-12-44-47zm-62 46c8 15 24 15 24-2v-69h21v69c1 16-10 29-25 31s-30-4-37-19l17-10zm423 367v-9l-16 1v20c0 30 12 41 42 41v-12c-29 1-26-18-26-41zm0-131c0-23-3-41 26-40v-12h-2c-28-1-40 13-40 40v12h16zm189-12c0-27-12-41-40-40h-2v12c29-1 27 17 27 40h14c1-5 1-9 1-12zm-16 131c0 11 1 21 0 31 0 17-10 22-26 21v12c29 0 42-10 42-40v-24h-16zm-128 2c1 12 5 20 5 20h-18v-19h-16v19c0 9 7 17 15 17h31s46 40 87-1c10-11 16-24 17-38l-51 1-1 8h-15l-1-8-53 1zm101-121l-26-27h-89c-8 0-15 8-15 17v10h16v-10h78v10h36zm-51 134h23v20h-23v-20zm205-439h-2c-2-2-3-3-5-4s-4-1-5-1c-6-14-17-23-31-26l4-61c0-1-1-2-1-2l-32-42c7-1 15-4 21-8-2 7 7 13 13 8l5-4 4 5c5 6 14 2 14-5 0-4-3-7-6-10l5-5c9-6-2-19-10-12l-5 4-4-5c-7-8-19 3-13 11-7-11-36-17-52-20 2-5-1-11-6-13-7-3-15 3-14 10-12-1-24-2-37-2-18-1-35-1-53 1l2-2c7-6-1-15-8-10l-3 3-3-3c-5-7-15 1-10 8l3 3-4 4c-30 5-37 12-37 18 0 5 8 12 23 17 1 5 5 8 10 8 3-1 6-3 7-6v99c-41 9-62 27-61 54-2 1-3 2-4 2l-2 1c-3 1-5 5-4 8 0 3-1 4 1 7 0 2 0 4 2 5v2c0 2 2 3 3 4 2 0 4 0 6-1 1-1 2-2 4-2-1 2 1 4 2 6s3 4 6 4c0 0 1 0 2-1l1-1c3-2 2-5 1-7v-2c0-1 1-2 1-3 0-2 0-3 1-4v-6c0-7-3-14-10-15h-4c2-21 19-35 53-42v118c0 7 6 12 12 12l64-7v24c-4 0-6 2-6 3 0 2 4 4 9 4s9-2 9-4-2-2-4-3v-25l11-1v20c-3 1-4 2-4 4 0 1 4 4 9 4s9-2 9-4c0-3-3-4-6-4 1-6 1-15 0-21l67-7c6 1 11-4 12-10 3-30 4-62 6-93 10 3 18 9 23 18-2 1-3 3-4 5-2 3-3 6-3 9 0 2 0 4 1 6 1 3 1 6 0 9-2 5-1 9 4 9 4-1 7-5 8-9 0-1 0-2 1-3 1 2 3 3 5 4s4 1 6 1c2-1 3-3 3-6 2-1 2-3 2-5 1-2 1-4 0-6 0-4 2-6-2-9zm-230-145c-2-5-7-7-12-6-1 1-3 2-4 4-7-3-10-6-10-7 0-14 91-13 99-13 23 1 47 3 70 8 22 5 27 10 27 12s-4 5-15 8l-13-17c-1-1-2-2-4-2h-127c-7 0-11 6-11 13zm172 215c0 1-2 2-3 2l-109 11-29 3c-12 1-18-3-19-11 0-73-4-148-4-222 0-2 2-3 3-3h126l2 3-4 32c-1 8 4 15 12 16 10 1 21 2 32 4l4 4-11 161zm-122-152l-3 6c-2 5 6 8 8 3l3-6 6 2c5 2 8-5 3-8l-6-2 2-6c2-5-6-8-8-3l-2 6-6-2c-5-3-9 5-3 7l6 3zm47-5l6 2-2 7c-2 5 5 8 7 3l3-6 6 2c5 2 8-6 3-8l-6-2 2-6c2-5-5-8-7-3l-3 6-6-3c-5-2-8 6-3 8zm66 85h-135c-4 0-4 7 0 7h135c5 0 5-7 0-7zm0 19h-135c-4 0-4 6 0 6h135c5 0 5-6 0-6zm-69 15h-65c-5 0-5 6 0 6h65c4 0 4-6 0-6zm-126-157l-3 3-3-3c-6-6-15 2-10 8l3 3-3 3c-7 6 1 15 8 10l3-3 3 3c5 7 15-1 10-8l-3-3 3-3c6-5-2-15-8-10zm196 181c-1 0-2-1-2-1l-2-1h-2l-2-1s-1 0-1-1c0 0-1 0-1-1v-1c1 0 1-1 1-1h5l1 1h2l1-1c-1-1-2-2-3-2-1-1-2-1-4-1h-3c-1 0-2 0-2 1l-2 2v5l1 1c1 1 1 1 2 1l2 1 2 1h2l1 1s1 1 0 1c1 1 0 2-1 2 0 1-1 1-2 1h-4l-1-1h-1l-2 2c1 1 1 1 2 1l2 1h4c1 0 2-1 3-1s2-1 3-2c1 0 1-1 2-2v-2-2c-1 0-1-1-1-1zm-22 4v2c0 1 0 1-1 2 0 0 0 1-1 1h-4v3h3c2 0 3 0 4-1 1 0 2-1 2-2 1 0 1-1 2-2v-18l-4-1-1 16zm-99-95l9-8 8 8c2 1 5 1 7 0l9-8 8 8c2 1 5 1 7 0l8-8 9 8c2 1 4 1 6 0l8-8 9 8c4 4 10-3 6-7l-11-10c-2-2-5-2-7 0l-8 7-8-7c-2-2-5-2-7 0l-9 7-8-7c-2-2-5-2-7 0l-9 7-8-7c-2-2-5-2-7 0l-11 9c-5 5 2 11 6 8zm-734 57c-2-16-15-28-31-29 6-9 7-20 3-30s-14-17-24-19c4-7 4-17-1-24-7-8-17-13-27-11 6-12 2-26-8-35-13-16-31-27-51-33-3-1 0 4 3 11 1 7-2 13-6 17-8 9-10 17-4 25-10 2-19 8-25 17-7 10-7 23-2 34-11 1-20 8-24 18-5 10-3 22 4 31-24 5-34 18-32 38s15 26 37 23c21-5 44-5 66-1 31 4 62 4 93 0 18-3 31-13 29-32zm-173-58c0-14 9-31 25-31 13 0 24 14 24 31 0 16-11 31-24 31-14 0-25-15-25-31zm97 52c-25 18-49 20-73-1-7-7-7-9 1-11h71c13 2 2 12 1 12zm2-23c-16 0-24-17-24-30 0-17 10-31 24-31 13 0 24 14 24 31 0 13-9 30-24 30zm-1-48c6 0 12 8 12 18s-6 19-12 19c-7 0-12-9-12-19s5-18 12-18zm-74-1c7 0 12 8 12 19 0 10-5 18-12 18-6 0-12-8-12-18 0-11 6-19 12-19zM584 517l-29-11c7-37-18-72-55-79-27-5-54 6-69 29l-14-16c-3-3-6-4-10-3l-21 4c3-38-24-71-62-75-27-2-53 12-66 36l-29-10c-14-10-23 16-7 18l29 10c-7 37 18 73 55 80 30 6 61-10 75-39l24-4 17 19c-9 36 13 74 49 83 31 8 63-6 77-34l29 11c12 4 19-15 7-19zm-220-68c-9 26-36 39-62 31-25-9-38-37-30-62 9-25 36-39 62-30 25 8 39 36 30 61zm157 9l-18 15-37-23c19-9 40-5 55 8zm-65-1l32 21-47 4c2-10 7-18 15-25zm15 81c-19-7-31-24-32-44l50-5-20 24c-5 6 3 14 9 8 8-8 16-20 24-29l11 23c3 7 14 2 11-5l-9-18 9 4c13 0 10-9 6-11l-15-7 13-11c25 39-13 87-57 71zm714-351h282c9 0 17-7 17-17V3c0-9-8-17-17-17h-282c-10 0-18 8-18 17v167c0 10 8 17 18 17zm287-17c0 3-2 6-5 6h-282c-4 0-6-3-6-6V18h293v152zM1411-1h57c6-1 6 8 0 8h-57c-6 0-6-8 0-8zm-155 0h142c6 0 6 8 0 8h-142c-5 0-5-7 0-8zm-17 1l3 3-3 3V0zm-6 0v6l-3-3 3-3zm-15 3c0 3-2 5-5 5s-5-2-5-5c0-6 10-7 10 0zm-15 0c0 3-2 5-5 5-2 0-5-2-5-5 1-6 10-7 10 0zm-14 0c0 3-3 5-5 5-3 0-5-2-5-5 0-6 10-7 10 0zm86 149h101c34 0 44-47 13-62-4-9-13-16-23-18-6-22-29-35-52-28-11 3-21 11-26 22-14 2-26 12-29 26-27 18-15 59 16 60zm-8-54c1-15 13-23 28-23 5-17 23-27 40-22 12 4 21 15 23 28 11 0 21 5 24 17 25 8 19 44-6 45h-101c-24-1-30-35-8-45zm30 30c16-13 41-13 57 0 4 4 9-1 5-5-18-16-49-16-67 0-4 4 2 9 5 5zm51-27c4 0 7-3 7-7s-3-7-7-7-7 3-7 7 3 7 7 7zm-45 0c4 0 7-3 7-7s-3-7-7-7-7 3-7 7 3 7 7 7zm554 28c8 0 15 6 15 14s-7 15-15 15-15-7-15-15 7-14 15-14zm81-65c-26 0-47 21-47 47s21 47 47 47 47-21 47-47-21-47-47-47zm22 55h-44c-11 0-11-16 0-16h44c10 0 10 16 0 16zm-144-10c-4 3-4 8 0 11 3 3 8 3 11 0 14-14 36-18 53-9 0-6 1-11 3-17-23-9-50-3-67 15zm95-49c-42-22-93-15-127 18-10 8 5 22 12 11 26-26 66-33 100-18 4-4 9-8 15-11zm-145 0c49-49 127-51 180-6 6 1 11 2 17 5 3-3 3-9 0-12-57-57-152-54-209 2-7 7 4 19 12 11zM868 47l28 20-20 18 29-1 1 30 20-27 68 16-58-41 6-83-34 69-40-1zm63-28l-4 47 30 21-35-8-9 13V76h-15l10-9-15-12 20 1 18-37zm31 43c1 0 2 1 2 2v11l11 8 2-68c0-5-5-10-10-10h-21l-1 15c1-1 16 0 18 0 1 0 2 0 2 1v7c0 1-1 2-2 2h-17l-2 6 19 1c1 0 1 0 1 1v17c0 1 0 2-1 2l-21-1v5l2 1h18zm-91-26v6h7v-7s0-1 1-1l18 1c1 0 1 0 1 1v7h7v-7c0-1 0-1 1-1h4l14-31h-35l-10 13-5 5-2 6c0 1-1 2-1 1h-3l-4 5h6c1 0 1 1 1 2zm29-21c1 0 2 0 2 1l3 6c0 1 0 2-1 2l-16 7c-1 0-2 0-2-1l-3-6c0-1 0-2 1-2 5-2 11-5 16-7zM608 163l192-21 7-12-90 10c-1 0-2-1-2-1l-2-17c0-1 1-2 2-2l104-11 4-8-7-1-1-1 3-17c0-1 1-1 2-1l10 2-1-9-6-2c-1 0-2-1-1-2l4-16c0-1 1-2 2-1l4 1 4-7c-1 0-1 0-1-1l-2-17c0-1 0-1 1-2h5l1-8-6-1c-1 0-1-1-1-2l1-6c0-1 1-2 1-2l10 2 10-16-262 29c-6 1-10 6-9 11l13 120c1 6 6 10 11 9zm-8-64l-2-17c0-1 1-2 1-2l31-3c1 0 1 0 2 1l1 17c0 1 0 1-1 2l-30 3c-1 0-2 0-2-1zm3 27l-2-17c0-1 1-2 1-2l47-5c1 0 2 1 2 1l2 17c0 1-1 2-2 2l-46 5c-1 0-2-1-2-1zm145-69l-17 2c-1 0-2-1-2-2l-2-17 1-1 18-2s1 0 1 1l2 17c0 1 0 2-1 2zm14 5c1 0 1 0 1 1l2 17c0 1 0 2-1 2l-17 2c-1 0-2-1-2-2l-2-17s1-1 2-1l17-2zm-27 3c1 0 1 0 2 1l1 17c1 1 0 1-1 2l-17 1c-1 1-1 0-1-1l-2-17c0-1 0-2 1-2l17-1zm-31-4c-1 1-2 0-2-1l-2-17s1-1 2-1l17-2c1 0 1 0 1 1l2 17c0 1 0 1-1 2l-17 1zm5 7s1 0 1 1l2 17c1 1 0 1-1 2l-17 1c-1 1-1 0-1-1l-2-17s0-1 1-1l17-2zm-7 28s1 0 1 1l2 17c0 1 0 1-1 1l-17 2c-1 0-2 0-2-1l-2-17c0-1 1-1 1-1h1l17-2zm-35-4c-1 0-1 0-1-1l-2-17c0-1 0-2 1-2l17-2c1 0 2 1 2 2l2 17-1 1-18 2zm8 7c1-1 2 0 2 1l2 17-1 1-17 2c-1 0-2 0-2-1l-2-17c0-1 0-1 1-2l17-1zm-34-4c-1 0-2 0-2-1l-1-17c0-1 0-2 1-2l17-2c1 0 2 1 2 2l2 17-1 1-18 2zm-33 57c-1 0-2 0-2-1l-2-17c0-1 1-2 1-2l27-3c1 0 2 1 2 2l2 17s0 1-1 1l-27 3zm36-4c-1 0-2 0-2-1l-2-17c0-1 1-2 1-2l27-3c1 0 2 1 2 2l2 16c0 1 0 2-1 2l-27 3zm36-4c-1 0-2 0-2-1l-2-17c0-1 1-2 1-2l27-3c1 0 2 1 2 2l3 17c0 1 0 1-1 1l-28 3zm51-31l-17 2c-1 0-2-1-2-1l-2-17c0-1 0-2 1-2l17-2c1 0 2 1 2 1l2 17c0 1-1 2-1 2zm9-1c-1 0-2-1-2-1l-2-17c0-1 1-2 2-2l17-2c1 0 1 1 1 1v1l2 16c0 1 0 2-1 2l-17 2zm26-3c-1 0-1 0-1-1l-2-18s0-1 1-1l17-2c1 0 2 0 2 1l2 17c0 1-1 2-2 2l-17 2zm4-46c0-1 0-2 1-2l17-2c1 0 2 1 2 2l2 16c0 1-1 1-2 2l-17 1c-1 1-1 0-1-1l-2-16zm38 43c0 1-1 1-2 1l-17-4s-1-1-1-2l4-16c0-1 1-1 2-1l17 4 1 1-4 17zm5-54c-1 0-2 0-2-1l-6-16c-1 0 0-1 1-2l16-6s1 0 1 1l7 16-1 1c0 1-14 6-16 7zm-8-38l17-2c1 0 1 1 1 1l1 7c0 1 0 2-1 2l-17 2c-1 0-2-1-2-1l-1-7c0-1 1-2 2-2zm14 48c1 0 1 1 1 2l-8 15c0 1-1 1-2 1l-15-8c-1 0-1-1-1-2l8-15c0-1 1-1 2-1 0 0 13 7 15 8zm-19-29l2 17-1 1-17 2c-1 0-2 0-2-1l-2-17c0-1 0-2 1-2l17-2c1 0 2 1 2 1v1zm-25-16l17-2s1 1 1 2l1 7s0 1-1 1l-17 2c-1 0-2 0-2-1l-1-7c0-1 1-2 2-2zm0 35c1 1 0 2-1 2l-17 2c-1 0-1-1-2-2l-1-17c-1 0 0-1 1-1l17-2c1 0 1 0 2 1l1 17zm-30-32l17-1c1-1 1 0 2 1v7c0 1 0 1-1 1l-17 2h-2c0-1-1-7-1-8s1-1 1-2h1zm-30 4l17-2c1 0 1 0 1 1l1 7c0 1 0 2-1 2l-17 2c-1 0-2-1-2-2 0-2 0-5-1-7 0-1 1-1 2-1zm-30 3l17-2c1 0 1 1 1 1l1 7c0 1 0 2-1 2l-17 2c-1 0-2-1-2-1v-7c-1-1 0-2 1-2zm8 16c1 0 1 1 1 1l2 17c0 1 0 2-1 2l-17 2c-1 0-1-1-2-1l-1-17c-1-1 0-2 0-2s16-2 18-2zm-21-15c1 0 2 1 2 2v7c1 1 0 1-1 1l-17 2c-1 1-1 0-2 0l-1-8c0-1 1-2 2-2l17-2zm-5 18s1 0 1 1l2 17c0 1 0 2-1 2l-17 2c-1 0-2-1-2-2l-2-16c0-1 0-2 1-2 1-1 15-2 18-2zm-25-14c1 0 1 0 2 1v7c0 1 0 2-1 2l-17 2c-1 0-2-1-2-1v-7c-1-1 0-2 0-2l18-2zm-19 19l17-2c1 0 2 0 2 1l2 17c0 1-1 1-2 1l-17 2c-1 0-1 0-1-1l-2-17c0-1 0-1 1-1zm-29-6v-7c-1 0 0-1 1-1l17-2c1 0 1 0 1 1l1 7c0 1 0 2-1 2l-17 2c-1 0-2-1-2-1v-1zm3 8l17-1c1-1 1 0 1 1l2 17s0 1-1 1l-17 2c-1 0-2 0-2-1l-2-17c0-1 1-1 2-2zm258 9l4 2c1 0 1 1 1 2-2 5-5 11-7 16 0 0-1 1-2 1-1-1-2-1-2-2v10l-5 17s-1 1-2 1l-4-2-4 6h18c1 0 1 1 1 1v17c0 1 0 2-1 2l-32-1-7 11 151 4c5 0 10-5 10-10l1-34-12-2-3 11c0 1-1 1-2 1-8-3-18-5-26-8-1 0-1-1-1-2 0 0 2-8 3-9l-6-1-2 1v14s0 1-1 1h-9l-5 6h14c1 0 2 1 2 2v17s-1 1-2 1l-27-1c-1 0-1 0-1-1v-17c0-1 0-1 1-1h3v-7h-19c-1 0-2-1-2-1V90h-7l1 15c0 1 0 2-1 2-6 0-12 0-17 1-1 0-2-1-2-2 0-5-1-11-1-16 0-1 0-2 1-2 4 0 9-1 13-1l4-4-10-13c-1-1-1-1 0-2 4-4 9-7 13-11l-1-1c-4-2-7-3-11-6l2 4h-5l-4 8zm78 54l27-1c1 0 2 1 2 1 0 6 0 12 1 17 0 1-1 2-2 2-8 0-18 1-27 1 0 0-1 0-1-1 0-6-1-12-1-17 0-2 1-2 1-2zm-73-1c0-1 0-2 1-2l27 1c1 0 2 1 2 2v17c-1 0-1 1-2 1l-27-1c-1 0-1 0-1-1v-17zM427 696h-34c-4 1-4 6 0 7h34c4 0 5-6 1-7h-1zm-8 204c0 6-4 10-9 10s-10-4-10-10c0-3 2-6 5-7l10-1c2 2 4 5 4 8zm35-225h-88c-12 0-21 10-21 22v50h34l-13-25c-2-5 5-9 8-4l14 29h52c2-2 4-1 6 0h29v-50c0-12-10-22-21-22zm-109 94v36l35-1-20-12c-4-3 0-10 4-7l32 19h13l-18-34-46-1zm0 125v12c0 12 9 22 21 22h88c11 0 21-10 21-22v-15l-14 1v14c0 4-3 8-7 8h-88c-4 0-7-4-7-8v-13l-14 1zm130-90v-32l-32-1-8 33h4l7-10c3-4 10 0 7 5l-4 5h26zM359 697c0-4 3-8 7-8h88c3 0 7 4 7 8v13H359v-13zm42 73l17 34h8l8-33-33-1zm1086 120h-6c1-2 1-4 1-6v-11h-10v11c0 3-3 6-6 6h-272c-4 0-6-3-6-6v-6l-11 1v5c0 2 0 4 1 5h-5c-9 0-17 8-17 17v5c0 9 8 16 17 16h314c9 0 16-7 16-16v-5c0-9-7-16-16-16zm-5-95v-4h-10v4h10zm-294 3v-13h-11v13h11zm294-51v-24c0-9-7-16-16-17h-272c-10 0-17 8-17 17v24h11v-24c0-3 2-5 5-5h273c3 0 6 2 6 5v24h10zm10 164c0 3-2 5-5 5h-314c-3 0-6-2-6-5v-5c0-3 3-5 6-5h314c3 0 5 2 5 5v5zm-169-183h26c3 0 3-5 0-5h-26c-4 0-4 5 0 5zm-7-3c0 3-2 4-4 4-3 0-4-1-4-4 0-5 8-5 8 0zm146 8h-265v14h9c-3-4 2-9 6-6l7 6h47l1-3c1-6 10-4 9 1l-1 2h187v-14zm-265 53v12l33-1c9-4 18-7 24-9l-1-1-56-1zm265 9v-4l-173-4-1 1-11 2 14 7 171-2zm-198 2zm-637 92c-4 3-3 9 2 11 4 1 14-1 15-5 0-3-2-5-4-7l-13 1zm236-142c-7 0-14 0-18-1l-6-1c-3-2-3-6-4-10-1-2-3-3-5-4-4-1-3-5 1-6 4 0 8-1 12-2 2-1 4-4 3-6 0-2-2-4-4-4-3-1-6 1-9 1-10 1-23-2-23-15 0-3 3-4 2-7s-5-2-5-4c-1-4 13-19 15-22 3-3 6-4 5-8-1-2-4-3-6-2-5 1-8 11-10 15-9 12-22 14-26 7-1-2-1-4-3-5-2 0-3 2-4 2-6 1-13-3-13-15 0-3 3-18-4-16s3 24-5 26c-4 1-5-6-9-5-3 1-4 4-6 0-3-3-4-15-10-14-6 2 4 13 5 15 2 3 2 11-2 11-3 0-3-6-7-5-6 2 4 6 3 7-1 2-5-1-6 0-5 2 0 10 2 14 3 6 2 10-7 11h-1c-1 0-6-3-6 1 0 3 4 3 5 5 6 7 6 13-5 12-3-1-5-1-8-2l-59-42c-3-2-16-12-25-7s-6 21-4 29c3 11 9 20 17 28 7 7 16 12 26 13 5 0 10 0 15-2 12-4 10-4 21-10l2-2c6 1 18 4 20 9 1 2 6 5 6 11h16l7-42 18 3-7 39h19c-2-4-3-9-1-15 5-26 44-23 52 1l-16 6c-2-10-16-14-19-4v1c-1 4 2 8 7 11h64zm-113 30c-4 8-13 13-22 12h-2l2 1c3 1 6 4 5 11h56c-12-2-23-11-28-23l1-1h-12zm-63 110c-5 12-11 23-12 25-1 3-20 21-13 28 8 4 17-22 17-24 3-5 6-10 9-14 3-3 6-8 9-15h-10zm126-86l-2-2c-2 1-4 1-6 2h8zm-33-23c7 10 24 11 25 1v-1h-25zm44 1v4c-1 3-3 7-5 10 4 2 10 4 18 8l46-1-1-4 3-1c2-1 4-1 6-2h1c7-5 13-9 16-13h-16c-7 4-15 6-19 7-12 2-25 0-34-8h-15zm-169-48c-11-4-21-13-26-24-3-6-9-24-4-28 2-1 10 3 14 7l36 26 14 9c-11 8-19 13-34 10zm175-83c-6 3 6 7 3 1 0-1-2-2-3-1zm-84 238c-1 5-1 9 2 9s6-4 7-9h-9zm74-191l1 1c1 1 2 1 3 0 7-5 14-9 22-12 3 2 6 1 8-2 1-2 1-6-2-7-3-2-6-1-8 2 0 0 0 1-1 2-8 3-15 7-22 12-1 1-1 3-1 4zm-126-32v-2c-1-3-5-5-8-4s-4 4-3 7 4 5 7 4h1c6 4 12 10 18 16 0 1 2 1 3 1l1-1c1-1 1-3 0-4-6-6-12-12-19-17zm10 126c1 0 4-3 6-5-3-2-5-5-7-8h-2l-1 1-7 8c-5 4-11 10-18 17h12c6-5 12-9 17-13zM580 889c-1 1-1 2 0 3 1 3 7-1 9-3h-9zm488-147l-2-2h-3l-7 7h9l3-3v-2zm-25 5l-7-7c-1-1-1-1-2 0-1 0-2 2-2 2-1 1-1 2 0 2l2 3h9zm-839-33c-2-3-7-3-9 0l-17 33h17l-1-5v-9h12l-1 9v5h17l-18-33zm-37 52l-3 6c-2 4 0 8 4 8h63c4 0 7-4 5-8l-3-5h-28v5h-10v-5l-28-1zm560-324l-2-2s-1-1-2 0l-14 13-13-13c-1-1-2-1-3 0 0 0-1 2-2 2v2l14 14-14 13v2l2 2c1 1 2 1 2 0 5-4 10-9 14-13l14 13c0 1 1 1 2 0l2-2c1 0 1-1 0-2l-13-13 13-14c1-1 1-1 0-2zM285 210l-2-2c-1-1-2-1-2 0l-14 13-14-14h-2c0 1-1 2-2 3-1 0 0 1 0 2l14 14-14 13v2c1 0 2 1 2 2 1 1 2 1 2 0l14-14 14 14c0 1 1 1 2 0l2-2c1-1 0-1 0-2l-13-14 13-13c1-1 1-2 0-2zm1349-65l-2-2c-1-1-2-1-2 0l-14 13-14-14h-2c-1 1-2 2-2 3-1 0-1 1 0 2l13 14-13 13c-1 0-1 1 0 2l2 2c0 1 1 1 2 0 4-5 9-9 14-14l13 14c1 1 2 1 2 0 1 0 2-1 2-2 1-1 1-1 0-2l-13-14 14-13v-2zm328 444l-2-2c-1-1-2-1-2 0l-14 13-14-14h-2c0 1-1 2-2 3-1 0 0 1 0 2l14 13-14 14s-1 1 0 2c1 0 2 1 2 2h2l14-14 14 14h2c0-1 1-2 2-2 1-1 0-2 0-2l-13-14 13-14v-1zM603 260c-2-4-7-4-9 0l-32 58c-2 3 1 8 5 8h63c4 0 6-5 4-8l-31-58zm1 58h-11v-9h11v9zm0-30l-2 18h-7l-2-18v-9h11v9zm-852 590c0-22 4-53-17-65 21-12 17-44 17-66 0-23-3-41 26-40v-12h-2c-28-1-40 13-40 40v47c1 14-9 25-23 25v12c14-1 24 11 23 24v47c0 30 12 41 42 41v-12c-29 1-26-18-26-41zm189-143c0-27-11-41-40-40h-2v12c29-1 27 17 27 40 0 22-6 53 16 66-9 5-14 13-15 24-3 18-1 41-2 60 0 17-10 22-26 21v12c29 0 42-10 42-40v-48c0-13 9-25 23-24v-11c-7 0-12-4-18-8-9-7-5-53-5-64zm-33 91v-68l-36-38h-89c-8 0-15 8-15 17v151c0 9 7 17 15 17h31s46 40 87-1c20-21 23-54 7-78zM52 442h-2c-2-2-3-3-5-4s-4-1-5-1c-6-14-17-23-31-26l4-61c0-1 0-2-1-2l-32-42c7-1 15-4 21-8-2 7 7 13 13 8l5-4 4 5c5 6 14 2 14-5 0-4-3-7-6-10l5-5c9-6-2-19-10-12l-5 4-4-5c-7-8-19 3-13 11-7-11-36-17-52-20 2-5-1-11-6-13-7-3-15 3-14 10-12-1-24-2-37-2-18-1-35-1-53 1l2-2c7-6-1-15-8-10l-3 3-3-3c-5-7-15 1-10 8l3 3-4 4c-30 5-37 12-37 18 0 5 8 12 23 17 1 5 5 8 10 8 3-1 6-3 7-6v99c-41 9-62 27-61 54-1 1-3 2-4 2l-2 1c-3 1-5 5-4 8 0 3-1 4 1 7 0 2 0 4 2 5v2c0 2 2 3 3 4 2 0 4 0 6-1 1-1 2-2 4-2-1 2 1 4 2 6s3 4 6 4c1 0 1 0 2-1l1-1c3-2 2-5 1-7v-2c0-1 1-2 1-3 0-2 0-3 1-4v-6c0-7-3-14-10-15h-4c2-21 19-35 53-42v118c0 7 6 12 12 12l64-7v24c-4 0-6 2-6 3 0 2 4 4 9 4s9-2 9-4-2-2-4-3v-25l11-1v20c-3 1-4 2-4 4 0 1 4 4 9 4s9-2 9-4c0-3-3-4-6-4 1-6 1-15 0-21l67-7c6 1 11-4 12-10 3-30 4-62 6-93 10 3 18 9 23 18-2 1-3 3-4 5-2 3-3 6-3 9 0 2 0 4 1 6 1 3 1 6 0 9-2 5-1 9 4 9 4-1 7-5 8-9 0-1 0-2 1-3 1 2 3 3 5 4s4 1 6 1c2-1 3-3 3-6 2-1 2-3 2-5 1-2 1-4 0-6 0-4 2-6-2-9zm-180-82l-3 6c-2 5 6 8 8 3l3-6 6 2c5 2 8-5 3-8l-6-2 2-6c2-5-6-8-8-3l-2 6-6-2c-5-3-9 5-3 7l6 3zm47-5l6 2-2 7c-2 5 5 8 7 3l3-6 6 2c5 2 8-6 3-8l-6-2 2-6c3-5-5-8-7-3l-3 6-6-3c-5-2-8 6-3 8zm66 85h-134c-5 0-5 7 0 7h134c5 0 5-7 0-7zm0 19h-134c-5 0-5 6 0 6h134c5 0 5-6 0-6zm-69 15h-65c-5 0-5 6 0 6h65c4 0 4-6 0-6zm-126-157l-3 3-3-3c-6-6-15 2-10 8l3 3-3 3c-7 6 1 15 8 10l3-3 3 3c5 7 15-1 10-8l-3-3 3-3c6-5-2-15-8-10zm196 181c-1 0-2-1-2-1l-2-1h-2l-2-1s-1 0-1-1c0 0-1 0-1-1v-1c1 0 1-1 1-1h5l1 1h2l1-1c-1-1-2-2-3-2-1-1-2-1-4-1h-3c-1 0-1 0-2 1l-2 2v5l1 1c1 1 2 1 2 1l2 1 2 1h2l1 1 1 1c0 1-1 2-1 2-1 1-2 1-3 1h-4l-1-1h-1l-2 2c1 1 1 1 2 1l2 1h4c1 0 2-1 4-1l2-2c1 0 1-1 2-2v-2-2c-1 0-1-1-1-1zm-22 4v2c0 1 0 1-1 2 0 0 0 1-1 1h-4v3h3c2 0 3 0 4-1 1 0 2-1 2-2 1 0 1-1 2-2v-18l-4-1-1 16zm-99-95l9-8 8 8c2 1 5 1 7 0l9-8 8 8c2 1 5 1 7 0l8-8 9 8c2 1 4 1 6 0l8-8 9 8c4 4 10-3 6-7l-11-10c-2-2-5-2-7 0l-8 7-8-7c-2-2-5-2-7 0l-9 7-8-7c-2-2-5-2-7 0l-9 7-8-7c-2-2-5-2-7 0l-11 9c-5 5 2 11 6 8zm59-278c8 0 15 6 15 14s-7 15-15 15-14-7-14-15 6-14 14-14zM5 64c-26 0-47 21-47 47s21 47 47 47 47-21 47-47S31 64 5 64zm-122 45c-4 3-4 8 0 11 3 3 8 3 11 0 14-14 36-18 53-9 0-6 1-11 3-17-23-9-50-3-67 15zm95-49c-42-22-93-15-127 18-10 8 5 22 12 11 26-26 66-33 100-18 4-4 9-8 15-11zm-145 0c49-49 127-51 180-6 6 1 11 2 17 5 3-3 3-9 0-12-57-57-152-54-209 2-7 7 4 19 12 11zm-132 85l-2-2c-1-1-2-1-2 0l-14 13v9l13 13c1 1 2 1 2 0 1 0 2-1 2-2 1-1 1-1 0-2l-13-14 14-13v-2zM29 589l-2-2c-1-1-2-1-2 0l-14 13-14-14h-2c0 1-1 2-2 3-1 0 0 1 0 2l14 13-14 14v2c1 0 2 1 2 2h2l14-14 14 14h2c0-1 1-2 2-2 1-1 0-2 0-2l-13-14 13-14v-1zm1519-29c-3-4-8-4-11 0l-36 67c-2 4 1 9 5 9h73c4 0 7-5 5-9l-36-67zm1 67h-13v-11h13v11zm0-35l-2 21h-9l-2-21v-10h13v10zM27 119h-44c-11 0-11-16 0-16h44c10 0 10 16 0 16zm-205 178c-2-5-7-7-12-6-1 1-3 2-4 4-7-3-10-6-10-7 0-14 91-13 99-13 23 1 47 3 70 8 22 5 27 10 27 12s-4 5-15 8l-13-17c-1-1-2-2-4-2h-127c-7 0-11 6-11 13zM-6 512c0 1-2 2-3 2l-109 11-29 3c-12 1-18-3-19-11 0-73-4-148-4-222 0-2 2-3 3-3h126l2 3-4 32c-1 8 4 15 12 16 10 1 21 2 32 4l4 4-11 161zm-192 376h-18V737h78v33h31v40c1 1-49-32-84 13-25 32-7 65-7 65zm45-68h24v18l-5 37h-15l-4-37v-18zm0 61h23v20h-23v-20z" fill="#ba2e27" fill-opacity=".32"/>
    </g>
    <path fill="#2b2d42" d="M2230 1331h531v494h-531z"/>
  </g>
  <g id="right_field" transform="translate(5610 175)">
    <rect width="1402" height="581" rx="20" ry="20" fill="#2b2d42">
      <animate id="but_blick" attributeType="CSS" attributeName="fill" values="#2B2D42;#3D3F57;#2B2D42;#2B2D42" begin="0.4s;but_blick.end" dur="2.1s" keyTimes="0;0.07;0.5;1"/>
    </rect>
    <text x="100" y="380" fill="#fff" font-size="300px" font-weight="bold" font-family="Open Sans">728 x 90</text>
  </g>
  <g opacity=".1">
    <g id="left_back">
      <animate id="l_back_blick" attributeType="CSS" attributeName="opacity" values="1;0;1;0.2;1;0.2;1;0.4" begin="but_blick.begin" dur="0.7s" fill="freeze"/>
      <g transform="matrix(1 -0.1 0 1 0 0)" font-weight="bold" fill="#fff">
        <text x="100" y="300" font-size="160px">$ </text>
        <text x="320" y="530" font-size="160px"> </text>
        <text x="180" y="790" font-size="160px"> </text>
      </g>
    </g>
    <set attributeName="opacity" attributeType="XML" begin="but_blick.begin" to=".6"/>
  </g>
  <g id="left_nimb">
    <path d="M1171 166c-1 16-24 29-69 38 31-7 49-16 49-27 2-68-540-86-542-19-1 14 29 24 39 28-16-2-57-18-57-39 11-90 570-68 580 19z" fill="#2b2d42" fill-opacity=".3"/>
    <g>
      <animateMotion dur="1.5s" fill="freeze" repeatCount="indefinite" path="M661 191c-40,-14 -63,-34 -63,-52 0,-60 230,-63 283,-61 57,2 281,26 283,82 1,40 -128,71 -284,65 -88,-3 -167,-16 -219,-34z"/>
      <g transform="translate(-5780 -1670) scale(9 9)" id="bag">
        <path fill="#FFFFFF" d="M639.1,180.9c-0.1,0-0.2,0.1-0.2,0.1v0.4c0,0.1,0.1,0.1,0.2,0.1h2.9c0.1,0,0.2-0.1,0.2-0.1v-0.4
                  c0-0.1-0.1-0.1-0.2-0.1H639.1z"/>
        <path fill="#FFFFFF" d="M638.8,180l3.4,0l0.8-1.5c0.1-0.2-1.3,0.5-1.5,0.5l-0.9-1.2l-0.6,1.2l-1.7-0.9c-0.2,0-0.6,0.3-0.5,0.5
                  L638.8,180z"/>
        <path fill="#FFFFFF" d="M646.1,190.2c0-1,0-2.2-0.2-3.2c-0.4-2.1-1.9-4.6-4.3-4.6h-2c-2.5,0-5.1,4-4.9,7.2c0,0.2,0.1,0.9,0.1,1
                  c0,0,0,0,0,0c0,0.2,0.1,0.4,0.1,0.5c0.4,1,1.6,1.8,3.3,2.2c0.7,0.2,1.5,0.3,2.3,0.3c0.8,0,1.6-0.1,2.3-0.3
                  c1.9-0.5,3.2-1.4,3.4-2.6c0-0.1,0-0.2,0-0.3C646.1,190.3,646.1,190.3,646.1,190.2z M640.9,190.7v0.7h-0.6v-0.7
                  c-0.8,0-1.5-0.4-1.5-1.4V189h1.3v0.2c0,0.4,0.1,0.7,0.6,0.7c0.5,0,0.6-0.3,0.6-0.6c0-1.2-2.4-0.5-2.4-2.6c0-0.8,0.4-1.5,1.5-1.6
                  v-0.6h0.6v0.6c1.1,0.1,1.5,0.7,1.5,1.5v0.1h-1.3c0-0.2,0-0.4-0.1-0.6c-0.1-0.1-0.2-0.2-0.4-0.2c-0.3,0-0.5,0.2-0.5,0.6
                  c0,1.1,2.4,0.6,2.4,2.5C642.5,190.1,641.9,190.7,640.9,190.7z"/>
      </g>
    </g>
    <g>
      <animateMotion dur="1.5s" fill="freeze" repeatCount="indefinite" path="M1011 90c91,16 152,50 153,70 1,40 -127,67 -283,61 -156,-5 -283,-42 -283,-82 0,-40 127,-67 283,-61 47,1 91,6 130,12z"/>
      <use xlink:href="#bag"/>
    </g>
    <g>
      <animateMotion dur="1.5s" fill="freeze" repeatCount="indefinite" path="M715 85c46,-7 104,-10 166,-7 57,2 281,26 283,82 1,40 -127,67 -283,61 -156,-5 -283,-42 -283,-82 0,-24 46,-43 117,-54z"/>
      <g transform="translate(-2960 -360) scale(5 5)" id="dollar">
        <g>
          <path fill="#F7BE2B" d="M590.4,81.3c-1.4-0.1-2.8-0.5-4.1-0.9c-1.3-0.5-2.5-1.1-3.6-1.9l2.6-3.8c0.9,0.6,1.8,1.2,2.7,1.5
				c0.9,0.4,1.7,0.6,2.6,0.8v-3.4c-1.1-0.3-2.1-0.6-3-0.9c-0.9-0.3-1.6-0.8-2.2-1.2c-0.6-0.5-1-1.1-1.3-1.7
				c-0.3-0.6-0.4-1.4-0.4-2.3v-0.1c0-0.8,0.2-1.6,0.5-2.3c0.3-0.7,0.7-1.3,1.3-1.8c0.6-0.5,1.3-0.9,2.1-1.3c0.8-0.3,1.8-0.5,2.9-0.6
				v-1.6h3v1.7c1.2,0.1,2.3,0.4,3.2,0.8c1,0.4,1.9,0.9,2.8,1.5l-2.3,3.8c-0.6-0.4-1.2-0.8-1.9-1.1c-0.7-0.3-1.3-0.5-2-0.7v3.3
				c1.1,0.3,2.1,0.6,3,0.9c0.8,0.4,1.6,0.8,2.1,1.3c0.6,0.5,1,1.1,1.3,1.7c0.3,0.7,0.4,1.4,0.4,2.3v0.1c0,0.9-0.2,1.7-0.5,2.4
				c-0.3,0.7-0.8,1.3-1.4,1.8c-0.6,0.5-1.3,0.9-2.1,1.2c-0.8,0.3-1.7,0.5-2.7,0.6v2.8h-3V81.3z M590.6,65.5
				c-0.7,0.1-1.2,0.2-1.5,0.5c-0.3,0.3-0.4,0.6-0.4,1V67c0,0.4,0.1,0.7,0.4,0.9c0.3,0.2,0.8,0.5,1.6,0.7V65.5z M593.2,77.2
				c1.3-0.1,1.9-0.6,1.9-1.5v-0.1c0-0.4-0.1-0.7-0.4-0.9c-0.3-0.2-0.8-0.5-1.5-0.7V77.2z"/>
        </g>
      </g>
    </g>
    <g>
      <animateMotion dur="1.5s" fill="freeze" repeatCount="indefinite" path="M988 223c-34,3 -70,4 -108,2 -50,-2 -282,-20 -282,-86 0,-60 230,-63 283,-61 57,2 281,26 283,82 1,30 -73,55 -176,63z"/>
      <use xlink:href="#dollar"/>
    </g>
  </g>
  <g id="left_guy">
    <g id="guy_arms">
      <path transform="scale(-1,-1) translate(-1820,-1000)" id="arm_right" d="M1306 624c1 4 0 11-4 12-5 2-21-8-25-12-15 1-10 15-16 24-3 5-8 10-14 6-2-2 0-5 1-10 11-31-15-48 13-74-19-49-70-62-115-75l5-16c52 15 108 31 128 90 8 2 19 7 25 13 2 1 10 3 11 6 2 2 2 9-2 10 4 3 3 13-2 13 2 4 1 15-5 13z"/>
      <path transform="scale(-1,-1) translate(-1890,-1000)" id="arm_left" d="M537 714c1 3 4 9 8 9 5 0 16-17 17-22 8-3 13 0 17 7 4 5 19 17 23 6 1-2-1-5-5-8-21-21-7-44-33-56-13-104 105-132 183-149l-3-16c-86 18-208 51-197 161-11 4-24 18-27 29-2 1-3 3-4 4-1 2-4 5-4 6 0 4 3 9 7 9-2 4 3 13 8 10-1 5 4 14 10 10z"/>
    </g>
    <path opacity=".25" transform="translate(30 50)" d="M716 154h346l131 172-29 437c-1 12-10 21-21 22l-425 44c-13 1-24-8-26-21V178c0-13 11-24 24-24z" filter="url(&quot;#blur2&quot;)" fill="#2b2d42"/>
    <path d="M716 154h346l131 172-29 437c-1 12-10 21-21 22l-425 44c-13 1-24-8-26-21V178c0-13 11-24 24-24z" stroke="#fff" stroke-width="10" fill="#fff" fill-rule="nonzero"/>
    <path d="M1189 327l-130-168H716c-11 0-19 8-19 19v628c0 11 9 20 21 18l425-43c9-1 16-9 17-18l29-436z" fill="none" stroke="#f6511d" stroke-width="12"/>
    <circle r="28" cx="835" cy="345"/>
    <circle r="10" cx="828" cy="333" fill="#fff"/>
    <circle r="28" cx="977" cy="340"/>
    <circle r="10" cx="970" cy="328" fill="#fff"/>
    <path class="fil10" d="M701 222v585c2 11 12 16 29 13 27-5 333-32 342-37 6-3-95 5-304 24-32 3-48-7-49-29s-7-207-18-556z" fill="#f3d0d0"/>
    <path stroke="#c52623" stroke-width="8" stroke-linecap="square" stroke-opacity=".1" d="M763 579h363"/>
    <path stroke="#c52623" stroke-width="8" stroke-linecap="square" stroke-opacity=".3" d="M763 629h363M763 670h175"/>
    <path d="M1080 307l109 13-127-163-14 109c-2 20 12 38 32 41z" fill="#f6511d"/>
    <path transform="translate(800 550) scale(0.02 -0.0125)" d="M10057 7462 c-60 -62 -53 -189 25 -452 112 -379 309 -778 491 -992 l57 -68 -16 -77 c-23 -114 -48 -210 -125 -483 -260 -914 -677 -1815 -1160 -2505 -215 -307 -397 -524 -654 -780 -398 -397 -774 -665 -1231 -877 -175 -81 -441 -175 -574 -202 -69 -15 -154 -35 -190 -45 -192 -57 -606 -85 -895 -61 -925 77 -1779 488 -2609 1256 -724 668 -1382 1630 -1864 2728 l-70 158 68 137 c178 356 291 798 326 1267 5 79 4 97 -14 137 -22 49 -45 67 -87 67 -66 0 -71 -14 -105 -280 -39 -308 -101 -566 -190 -790 -177 -444 -447 -774 -765 -933 -110 -55 -170 -73 -303 -88 -118 -14 -145 -29 -162 -87 -22 -79 -5 -185 36 -223 24 -22 26 -22 129 -10 302 35 522 143 730 360 62 65 112 99 124 84 4 -4 43 -98 86 -208 323 -825 776 -1655 1237 -2270 840 -1118 1854 -1868 2873 -2124 303 -75 478 -96 825 -96 353 0 572 25 885 100 1188 284 2261 1255 3043 2755 341 654 638 1494 836 2365 24 106 86 401 86 410 0 10 41 -12 133 -72 238 -154 405 -209 667 -220 148 -6 173 0 233 55 28 27 28 27 21 122 -5 77 -10 99 -28 118 -38 42 -55 46 -207 43 -131 -2 -156 0 -243 24 -278 76 -505 229 -717 486 -246 297 -435 681 -534 1084 -31 126 -43 153 -85 189 -40 33 -50 33 -83 -2z"/>
    <text transform="matrix(1 -0.1 0 1 0 0)" x="770" y="870" font-weight="bold" font-family="Open Sans">
      <tspan font-size="80px" fill="#0af" >Rich</tspan>
      <tspan font-size="70px" fill="#f33" >inMe</tspan>
    </text>
  </g>
  <defs>
    <g dominant-baseline="middle" text-anchor="middle" font-weight="bold" font-family="Open Sans" id="mainText">
      <text x="47%" y="30%" font-size="300px" dx="-20" dy="20" id="row1">-</text>
      <text x="47%" y="70%" font-size="300px" dx="-20" dy="20" id="row2">-</text>
    </g>
  </defs>
  <use xlink:href="#mainText" fill="#000" x="-20" y="20" opacity="0.5"/>
  <use xlink:href="#mainText" fill="#000" x="-10" y="10" opacity="0.5"/>
  <use xlink:href="#mainText" fill="#fff" id="mainColorText"/>
  <script>
    const urlParams = new URLSearchParams(window.location.search);
    document.getElementById("row1").textContent=urlParams.get('row1');
    document.getElementById("row2").textContent=urlParams.get('row2');
  </script>
</svg>