<svg xmlns="http://www.w3.org/2000/svg" viewBox="0 0 508.33 508.36"><path d="M483.17 27.9c11.45 15.13 16.6 40.2 19.15 70.7 3.36 45.5 4.7 100.1 6 156.52-1.67 57.47-2.35 115.43-6 156.52-2.88 31.54-9 52.66-19.22 65.47-13 12.8-37.94 23.6-73.5 26.15-43.25 3.7-96.6 3.65-155.48 5.1-65.44-1.12-109.82-.64-156.38-5.08-36.32-2.52-60.08-13.2-74.7-26.07-10.83-14.54-14-30-17-66.24-3.75-41.85-4.58-98.56-6-155.54 2.13-56.68 2.26-113.8 6.03-156.5 2.53-33.7 6.52-56.34 16.75-70.74 14.35-12.23 38.83-18.3 75.35-21.3 50-5.85 102.06-7 155.88-6.87 55.4.1 108.56 1.67 156 6.34 32 2.56 58.48 8.07 73.07 21.56z" fill="#323232" fill-rule="evenodd"/><path d="M329.54 256.37c-.38-37.95 30.94-56.15 32.35-57.07-17.6-25.74-45-29.27-54.8-29.67-23.32-2.37-45.53 13.74-57.36 13.74s-30.1-13.4-49.43-13c-25.44.38-48.9 14.8-62 37.57-26.42 45.83-6.76 113.76 19 151 12.6 18.18 27.6 38.64 47.3 37.9 19-.75 26.14-12.28 49.08-12.28s29.4 12.28 49.46 11.9c20.4-.37 33.35-18.53 45.83-36.78a165.67 165.67 0 0 0 20.75-42.61c-.43-.3-39.77-15.37-40.18-60.68zM291.82 145c10.44-12.68 17.52-30.3 15.6-47.83-15.07.6-33.3 10-44.13 22.68-9.7 11.24-18.17 29.14-15.9 46.36 16.8 1.3 33.96-8.56 44.44-21.2z" fill="#fff"/></svg>