<svg xmlns="http://www.w3.org/2000/svg" xmlns:xlink="http://www.w3.org/1999/xlink" width="1160" height="1160"><path fill="#fff" d="M0 0h1160v1160H0z"/><path d="M400 80h40v40h-40z"/><path d="M440 80h40v40h-40z"/><use xlink:href="#B"/><path d="M640 80h40v40h-40zm-120 40h40v40h-40z"/><path d="M560 120h40v40h-40zm-160 40h40v40h-40z"/><use xlink:href="#B" x="120" y="80"/><path d="M720 160h40v40h-40zm-280 40h40v40h-40z"/><use xlink:href="#B" y="120"/><path d="M600 200h40v40h-40z"/><path d="M640 200h40v40h-40z"/><path d="M680 200h40v40h-40zm-240 40h40v40h-40z"/><path d="M480 240h40v40h-40z"/><path d="M520 240h40v40h-40z"/><path d="M560 240h40v40h-40zm80 0h40v40h-40zm-240 40h40v40h-40zm80 0h40v40h-40z"/><path d="M560 280h40v40h-40z"/><path d="M600 280h40v40h-40z"/><path d="M640 280h40v40h-40zm80 0h40v40h-40zm-320 40h40v40h-40zm80 0h40v40h-40z"/><path d="M560 320h40v40h-40zm80 0h40v40h-40zm80 0h40v40h-40zm-240 40h40v40h-40z"/><path d="M520 360h40v40h-40zm160 0h40v40h-40zM80 400h40v40H80zm80 0h40v40h-40zm160 0h40v40h-40z"/><use xlink:href="#B" x="-120" y="320"/><use xlink:href="#C"/><path d="M720 400h40v40h-40zm120 0h40v40h-40zm120 0h40v40h-40zm80 0h40v40h-40zM80 440h40v40H80zm120 0h40v40h-40zm80 0h40v40h-40zm80 0h40v40h-40zm80 0h40v40h-40zm80 0h40v40h-40z"/><path d="M560 440h40v40h-40z"/><use xlink:href="#B" x="120" y="360"/><use xlink:href="#B" x="240" y="360"/><path d="M840 440h40v40h-40zm120 0h40v40h-40zm80 0h40v40h-40zm-920 40h40v40h-40zm80 0h40v40h-40z"/><path d="M240 480h40v40h-40z"/><path d="M280 480h40v40h-40z"/><use xlink:href="#B" x="-160" y="400"/><path d="M440 480h40v40h-40zm120 0h40v40h-40z"/><path d="M600 480h40v40h-40zm80 0h40v40h-40zm160 0h40v40h-40z"/><path d="M880 480h40v40h-40zm80 0h40v40h-40zm80 0h40v40h-40zM80 520h40v40H80z"/><path d="M120 520h40v40h-40z"/><path d="M160 520h40v40h-40zm120 0h40v40h-40zm200 0h40v40h-40z"/><path d="M520 520h40v40h-40zm120 0h40v40h-40zm120 0h40v40h-40zm80 0h40v40h-40zm80 0h40v40h-40zm80 0h40v40h-40zM80 560h40v40H80zm80 0h40v40h-40zm160 0h40v40h-40z"/><path d="M360 560h40v40h-40zm160 0h40v40h-40z"/><path d="M560 560h40v40h-40zm160 0h40v40h-40zm80 0h40v40h-40z"/><path d="M840 560h40v40h-40zm80 0h40v40h-40zm80 0h40v40h-40z"/><path d="M1040 560h40v40h-40zm-840 40h40v40h-40z"/><path d="M240 600h40v40h-40zm120 0h40v40h-40z"/><path d="M400 600h40v40h-40zm160 0h40v40h-40zm120 0h40v40h-40z"/><use xlink:href="#B" x="240" y="520"/><use xlink:href="#B" x="360" y="520"/><path d="M960 600h40v40h-40zm80 0h40v40h-40zM80 640h40v40H80z"/><path d="M120 640h40v40h-40zm160 0h40v40h-40z"/><path d="M320 640h40v40h-40z"/><path d="M360 640h40v40h-40zm200 0h40v40h-40z"/><use xlink:href="#B" x="120" y="560"/><path d="M720 640h40v40h-40z"/><path d="M760 640h40v40h-40zm120 0h40v40h-40z"/><path d="M920 640h40v40h-40z"/><path d="M960 640h40v40h-40zm80 0h40v40h-40zm-880 40h40v40h-40zm80 0h40v40h-40z"/><use xlink:href="#C" x="-200" y="280"/><path d="M520 680h40v40h-40z"/><use xlink:href="#B" x="80" y="600"/><path d="M680 680h40v40h-40zm80 0h40v40h-40zm160 0h40v40h-40zm80 0h40v40h-40zM80 720h40v40H80z"/><path d="M120 720h40v40h-40zm120 0h40v40h-40zm80 0h40v40h-40zm80 0h40v40h-40z"/><path d="M440 720h40v40h-40z"/><path d="M480 720h40v40h-40zm80 0h40v40h-40zm80 0h40v40h-40z"/><path d="M680 720h40v40h-40z"/><path d="M720 720h40v40h-40z"/><path d="M760 720h40v40h-40z"/><path d="M800 720h40v40h-40z"/><path d="M840 720h40v40h-40z"/><path d="M880 720h40v40h-40zm-480 40h40v40h-40zm200 0h40v40h-40zm80 0h40v40h-40z"/><path d="M720 760h40v40h-40zm160 0h40v40h-40z"/><path d="M920 760h40v40h-40zm120 0h40v40h-40zm-640 40h40v40h-40zm80 0h40v40h-40z"/><path d="M520 800h40v40h-40zm200 0h40v40h-40zm80 0h40v40h-40zm80 0h40v40h-40z"/><path d="M920 800h40v40h-40z"/><path d="M960 800h40v40h-40zm80 0h40v40h-40zm-480 40h40v40h-40zm120 0h40v40h-40z"/><path d="M720 840h40v40h-40zm160 0h40v40h-40z"/><path d="M920 840h40v40h-40zm80 0h40v40h-40zm-520 40h40v40h-40zm80 0h40v40h-40zm120 0h40v40h-40z"/><path d="M720 880h40v40h-40z"/><path d="M760 880h40v40h-40z"/><path d="M800 880h40v40h-40z"/><path d="M840 880h40v40h-40z"/><path d="M880 880h40v40h-40z"/><path d="M920 880h40v40h-40zm80 0h40v40h-40zm-520 40h40v40h-40z"/><path d="M520 920h40v40h-40z"/><path d="M560 920h40v40h-40zm200 0h40v40h-40zm120 0h40v40h-40z"/><path d="M920 920h40v40h-40z"/><path d="M960 920h40v40h-40z"/><path d="M1000 920h40v40h-40zm-600 40h40v40h-40z"/><use xlink:href="#C" x="-40" y="560"/><path d="M680 960h40v40h-40z"/><path d="M720 960h40v40h-40z"/><path d="M760 960h40v40h-40zm120 0h40v40h-40zm120 0h40v40h-40z"/><path d="M1040 960h40v40h-40zm-600 40h40v40h-40z"/><path d="M480 1000h40v40h-40z"/><path d="M520 1000h40v40h-40z"/><use xlink:href="#C" x="80" y="600"/><path d="M800 1000h40v40h-40zm80 0h40v40h-40zm-480 40h40v40h-40z"/><path d="M440 1040h40v40h-40zm120 0h40v40h-40zm160 0h40v40h-40z"/><path d="M760 1040h40v40h-40zm80 0h40v40h-40zm200 0h40v40h-40zM318 80H80v280h280V80h-42zm0 238H122V122h196v196zm720-238H800v280h280V80h-42zm0 238H842V122h196v196zM318 800H80v280h280V800h-42zm0 238H122V842h196v196zM160 160h120v120H160zm720 0h120v120H880zM160 880h120v120H160z"/><defs ><path id="B" d="M480 80h40v40h-40zm80 0h40v40h-40z"/><path id="C" d="M480 400h40v40h-40zm80 0h40v40h-40zm120 0h40v40h-40z"/></defs></svg>