<svg xmlns="http://www.w3.org/2000/svg" width="1160" height="1160"><path fill="#fff" d="M0 0h1160v1160H0z"/><path d="M400 80h40v40h-40z"/><path d="M440 80h40v40h-40z"/><path d="M480 80h40v40h-40z"/><path d="M520 80h40v40h-40z"/><path d="M560 80h40v40h-40zm80 0h40v40h-40zm-200 40h40v40h-40z"/><path d="M400 160h40v40h-40z"/><path d="M440 160h40v40h-40z"/><path d="M480 160h40v40h-40z"/><path d="M520 160h40v40h-40z"/><path d="M560 160h40v40h-40z"/><path d="M600 160h40v40h-40zm80 0h40v40h-40z"/><path d="M720 160h40v40h-40zm-280 40h40v40h-40z"/><path d="M480 200h40v40h-40zm120 0h40v40h-40z"/><path d="M640 200h40v40h-40z"/><path d="M680 200h40v40h-40zm-200 40h40v40h-40z"/><path d="M640 240h40v40h-40zm-240 40h40v40h-40z"/><path d="M480 280h40v40h-40zm120 0h40v40h-40z"/><path d="M640 280h40v40h-40zm80 0h40v40h-40zm-320 40h40v40h-40zm80 0h40v40h-40z"/><path d="M560 320h40v40h-40zm80 0h40v40h-40zm80 0h40v40h-40zm-240 40h40v40h-40z"/><path d="M520 360h40v40h-40zm160 0h40v40h-40zM80 400h40v40H80zm80 0h40v40h-40zm160 0h40v40h-40z"/><path d="M360 400h40v40h-40zm200 0h40v40h-40zm120 0h40v40h-40z"/><path d="M720 400h40v40h-40zm120 0h40v40h-40zm120 0h40v40h-40zm80 0h40v40h-40zM80 440h40v40H80z"/><path d="M120 440h40v40h-40z"/><path d="M160 440h40v40h-40z"/><path d="M200 440h40v40h-40zm80 0h40v40h-40zm120 0h40v40h-40zm120 0h40v40h-40zm80 0h40v40h-40zm80 0h40v40h-40z"/><path d="M720 440h40v40h-40zm80 0h40v40h-40z"/><path d="M840 440h40v40h-40zm120 0h40v40h-40z"/><path d="M1000 440h40v40h-40z"/><path d="M1040 440h40v40h-40zm-920 40h40v40h-40z"/><path d="M160 480h40v40h-40z"/><path d="M200 480h40v40h-40z"/><path d="M240 480h40v40h-40z"/><path d="M280 480h40v40h-40z"/><path d="M320 480h40v40h-40zm120 0h40v40h-40zm160 0h40v40h-40zm80 0h40v40h-40zm80 0h40v40h-40zm80 0h40v40h-40zm80 0h40v40h-40zm80 0h40v40h-40z"/><path d="M1040 480h40v40h-40zM80 520h40v40H80z"/><path d="M120 520h40v40h-40zm160 0h40v40h-40zm120 0h40v40h-40z"/><path d="M440 520h40v40h-40zm80 0h40v40h-40zm120 0h40v40h-40zm120 0h40v40h-40zm80 0h40v40h-40zm200 0h40v40h-40zm-880 40h40v40h-40z"/><path d="M200 560h40v40h-40zm80 0h40v40h-40z"/><path d="M320 560h40v40h-40z"/><path d="M360 560h40v40h-40zm120 0h40v40h-40z"/><path d="M520 560h40v40h-40z"/><path d="M560 560h40v40h-40zm160 0h40v40h-40zm80 0h40v40h-40z"/><path d="M840 560h40v40h-40zm80 0h40v40h-40zm80 0h40v40h-40z"/><path d="M1040 560h40v40h-40zm-880 40h40v40h-40z"/><path d="M200 600h40v40h-40zm240 0h40v40h-40z"/><path d="M480 600h40v40h-40zm200 0h40v40h-40z"/><path d="M720 600h40v40h-40zm80 0h40v40h-40z"/><path d="M840 600h40v40h-40zm80 0h40v40h-40z"/><path d="M960 600h40v40h-40zm80 0h40v40h-40zM80 640h40v40H80z"/><path d="M120 640h40v40h-40zm200 0h40v40h-40zm80 0h40v40h-40zm80 0h40v40h-40z"/><path d="M520 640h40v40h-40z"/><path d="M560 640h40v40h-40z"/><path d="M600 640h40v40h-40zm80 0h40v40h-40z"/><path d="M720 640h40v40h-40zm320 0h40v40h-40zm-880 40h40v40h-40zm200 0h40v40h-40z"/><path d="M400 680h40v40h-40z"/><path d="M440 680h40v40h-40z"/><path d="M480 680h40v40h-40z"/><path d="M520 680h40v40h-40z"/><path d="M560 680h40v40h-40zm80 0h40v40h-40z"/><path d="M680 680h40v40h-40zm160 0h40v40h-40z"/><path d="M880 680h40v40h-40zm160 0h40v40h-40zM80 720h40v40H80z"/><path d="M120 720h40v40h-40zm80 0h40v40h-40zm80 0h40v40h-40z"/><path d="M320 720h40v40h-40z"/><path d="M360 720h40v40h-40z"/><path d="M400 720h40v40h-40z"/><path d="M440 720h40v40h-40zm120 0h40v40h-40z"/><path d="M600 720h40v40h-40zm80 0h40v40h-40z"/><path d="M720 720h40v40h-40z"/><path d="M760 720h40v40h-40z"/><path d="M800 720h40v40h-40z"/><path d="M840 720h40v40h-40z"/><path d="M880 720h40v40h-40z"/><path d="M920 720h40v40h-40zm120 0h40v40h-40zm-640 40h40v40h-40zm80 0h40v40h-40z"/><path d="M520 760h40v40h-40z"/><path d="M560 760h40v40h-40zm120 0h40v40h-40z"/><path d="M720 760h40v40h-40zm160 0h40v40h-40z"/><path d="M920 760h40v40h-40z"/><path d="M960 760h40v40h-40zm80 0h40v40h-40zm-640 40h40v40h-40z"/><path d="M440 800h40v40h-40zm80 0h40v40h-40zm80 0h40v40h-40z"/><path d="M640 800h40v40h-40z"/><path d="M680 800h40v40h-40z"/><path d="M720 800h40v40h-40zm80 0h40v40h-40zm80 0h40v40h-40zm160 0h40v40h-40zm-600 40h40v40h-40z"/><path d="M480 840h40v40h-40zm160 0h40v40h-40z"/><path d="M680 840h40v40h-40z"/><path d="M720 840h40v40h-40zm160 0h40v40h-40z"/><path d="M920 840h40v40h-40zm120 0h40v40h-40zm-600 40h40v40h-40z"/><path d="M480 880h40v40h-40zm80 0h40v40h-40zm120 0h40v40h-40z"/><path d="M720 880h40v40h-40z"/><path d="M760 880h40v40h-40z"/><path d="M800 880h40v40h-40z"/><path d="M840 880h40v40h-40z"/><path d="M880 880h40v40h-40zm120 0h40v40h-40zm-560 40h40v40h-40zm80 0h40v40h-40z"/><path d="M560 920h40v40h-40zm120 0h40v40h-40z"/><path d="M720 920h40v40h-40z"/><path d="M760 920h40v40h-40zm120 0h40v40h-40zm120 0h40v40h-40zm-600 40h40v40h-40z"/><path d="M440 960h40v40h-40zm80 0h40v40h-40zm80 0h40v40h-40zm160 0h40v40h-40zm120 0h40v40h-40z"/><path d="M920 960h40v40h-40z"/><path d="M960 960h40v40h-40z"/><path d="M1000 960h40v40h-40z"/><path d="M1040 960h40v40h-40zm-480 40h40v40h-40zm160 0h40v40h-40z"/><path d="M760 1000h40v40h-40zm120 0h40v40h-40z"/><path d="M920 1000h40v40h-40zm-520 40h40v40h-40z"/><path d="M440 1040h40v40h-40z"/><path d="M480 1040h40v40h-40zm80 0h40v40h-40zm120 0h40v40h-40z"/><path d="M720 1040h40v40h-40zm80 0h40v40h-40z"/><path d="M840 1040h40v40h-40z"/><path d="M880 1040h40v40h-40zm160 0h40v40h-40zM318 80H80v280h280V80h-42zm0 238H122V122h196v196zm720-238H800v280h280V80h-42zm0 238H842V122h196v196zM318 800H80v280h280V800h-42zm0 238H122V842h196v196zM160 160h120v120H160zm720 0h120v120H880zM160 880h120v120H160z"/></svg>