<svg xmlns="http://www.w3.org/2000/svg" viewBox="0 0 508.33 508.36"><path d="M483.17 27.9c11.45 15.13 16.6 40.2 19.15 70.7 3.36 45.5 4.7 100.1 6 156.52-1.67 57.47-2.35 115.43-6 156.52-2.88 31.54-9 52.66-19.22 65.47-13 12.8-37.94 23.6-73.5 26.15-43.25 3.7-96.6 3.65-155.48 5.1-65.44-1.12-109.82-.64-156.38-5.08-36.32-2.52-60.08-13.2-74.7-26.07-10.83-14.54-14-30-17-66.24-3.75-41.85-4.58-98.56-6-155.54 2.13-56.68 2.26-113.8 6.03-156.5 2.53-33.7 6.52-56.34 16.75-70.74 14.35-12.23 38.83-18.3 75.35-21.3 50-5.85 102.06-7 155.88-6.87 55.4.1 108.56 1.67 156 6.34 32 2.56 58.48 8.07 73.07 21.56z" fill="#24292e" fill-rule="evenodd"/><path d="M248 101.05c-73.48.023-136.102 53.323-147.87 125.854S130.926 369.8 200.63 393.05c7.5 1.4 10.24-3.25 10.24-7.2l-.2-27.9c-41.7 9.07-50.5-17.67-50.5-17.67-6.82-17.32-16.64-21.92-16.64-21.92-13.6-9.3 1-9.1 1-9.1 15 1.06 23 15.44 23 15.44 13.36 22.9 35.05 16.28 43.6 12.45 1.34-9.68 5.23-16.3 9.5-20-33.28-3.8-68.27-16.64-68.27-74a58 58 0 0 1 15.44-40.22c-1.56-3.78-6.68-19 1.45-39.65 0 0 12.58-4 41.2 15.36a142.09 142.09 0 0 1 75 0c28.7-19.44 41.23-15.44 41.23-15.44 8.16 20.64 3 35.88 1.47 39.65a57.87 57.87 0 0 1 15.42 40.22c0 57.55-35.05 70.22-68.42 73.93 5.37 4.65 10.16 13.77 10.16 27.75l-.17 41.12c0 4 2.7 8.66 10.3 7.2 69.718-23.256 112.28-93.642 100.493-166.185S321.495 101.024 248 101.04zm-93.08 215.13c-.33.75-1.5 1-2.57.46s-1.7-1.5-1.34-2.25 1.5-1 2.58-.47 1.7 1.5 1.33 2.26zm6.08 6.76c-.7.66-2.1.35-3.06-.7s-1.16-2.44-.44-3.1 2.1-.35 3.07.7 1.17 2.44.43 3.1zm5.9 8.63c-.92.64-2.42 0-3.35-1.3s-.92-2.93 0-3.57 2.4-.06 3.35 1.26.92 3 0 3.6zm8.1 8.33c-.82.9-2.57.66-3.85-.57s-1.67-2.92-.85-3.83 2.6-.65 3.88.57 1.7 2.93.82 3.83zm11.17 4.85c-.36 1.17-2 1.7-3.74 1.2s-2.8-1.9-2.46-3.07 2-1.74 3.75-1.2 2.8 1.88 2.45 3.07zm12.25.9c0 1.24-1.4 2.26-3.18 2.28s-3.24-1-3.26-2.18 1.4-2.26 3.2-2.3 3.24 1 3.24 2.2zm11.4-1.95c.2 1.2-1 2.44-2.8 2.77s-3.35-.43-3.57-1.62 1-2.47 2.78-2.8 3.36.42 3.58 1.64z" fill="#fff"/></svg>