<svg xmlns="http://www.w3.org/2000/svg" xmlns:xlink="http://www.w3.org/1999/xlink" viewBox="0 0 508.33 508.36"><style><![CDATA[.K{fill:#bebdb3}.L{fill:#c4c2b8}.M{fill:#c2c0b6}.N{fill:#c7c5bb}]]></style><path d="M483.17 27.9c11.45 15.13 16.6 40.2 19.15 70.7 3.36 45.5 4.7 100.1 6 156.52-1.67 57.47-2.35 115.43-6 156.52-2.88 31.54-9 52.66-19.22 65.47-13 12.8-37.94 23.6-73.5 26.15-43.25 3.7-96.6 3.65-155.48 5.1-65.44-1.12-109.82-.64-156.38-5.08-36.32-2.52-60.08-13.2-74.7-26.07-10.83-14.54-14-30-17-66.24-3.75-41.85-4.58-98.56-6-155.54 2.13-56.68 2.26-113.8 6.03-156.5 2.53-33.7 6.52-56.34 16.75-70.74 14.35-12.23 38.83-18.3 75.35-21.3 50-5.85 102.06-7 155.88-6.87 55.4.1 108.56 1.67 156 6.34 32 2.56 58.48 8.07 73.07 21.56z" fill="#fff" fill-rule="evenodd"/><path d="M371.95 139.46c2.73-1.64 5.52-.73 8.2 0a24.56 24.56 0 0 1 17.9 23.24l-.06 8.13a3.24 3.24 0 0 0-1.88.91l-23 16.45c-3.1 2.25-6.5 4-9.1 6.86a4.8 4.8 0 0 0-2.67 1.27q-37.87 26.13-75.68 52.2l-37.5 26h-1c-.55-.42-1-1-1.58-1.34l-111.23-77.44c-.73-.5-1.4-1.52-2.3-1s-.3 1.64-.42 2.55a4.56 4.56 0 0 0 0 .91v152c0 1.1.06 2.25.12 3.34 0 .6-.06 1.15-.06 1.76-11.53 1.4-22-.18-29.25-10.62a22.35 22.35 0 0 1-4.13-12.8q0-84.93.06-169.8c0-11.53 9.35-21.73 20.82-23.36 1.82-.24 3.64-.5 5.22.73a8.79 8.79 0 0 0 1.09 1q60.17 44.6 120.34 89.27c1.58 1.15 2.6 1.1 4.2-.06q48.06-35.5 96.2-70.88 12.7-9.6 25.75-19.3z" fill="#e65a4d"/><path d="M371.95 139.46l-26 19.36q-48.06 35.5-96.2 70.88c-1.58 1.15-2.55 1.2-4.2.06q-60.08-44.7-120.28-89.27a8.79 8.79 0 0 1-1.09-1c.73-1.2 2-.8 3-.8h241.72c1.03-.03 2.25-.45 3.03.76z" fill="#f6f4ec"/><path d="M131.58 353.5l-.12-3.34V198.18a4.56 4.56 0 0 1 0-.91c.12-.85-.42-2 .42-2.55s1.64.5 2.3 1l111.23 77.44c.55.42 1.1.9 1.58 1.34-.24.24-.55.42-.8.67l-.6.6a1.23 1.23 0 0 0-1.21.61l-.6.6c-.06.12-.18.18-.24.3.12-.06.18-.18.3-.24l.6-.6a1.23 1.23 0 0 0 1.21-.61l.6-.6 1.82-.06 100.68 69.9c4.5 3.16 9.4 5.9 13.4 9.7-1.1 1-2.43.36-3.64.55.06-1.4-1.15-1.76-2.06-2.37-4.6-3.22-9.35-6.3-13.84-9.65-7.53-5.52-15.17-10.8-22.82-16.14-6.37-4.43-12.68-9-19.24-13.23-5.7-3.64-11-8-16.7-11.7-6.43-4.13-12.5-8.74-18.87-12.93-5.28-3.46-10.44-7.16-15.6-10.8-1-.73-1.94-1-3-.3-2.18 1.58-5 2.6-6.8 4.3-5.22 4.8-11.6 7.9-17.05 12.26-7 5.52-14.5 10.44-22 15.35-12.38 8.2-24.4 17.05-36.7 25.3-7.34 4.92-14.63 9.9-21.66 15.3-1.94 1.46-4.55 2.12-5.77 4.55-1.2-.12-2.55.36-3.7-.42q32.6-22.76 65.12-45.45c2.85-2 6.07-3.58 8.44-6.25.42-.12 1-.18.9-.8a.27.27 0 0 0-.18-.18c-.6-.06-.73.42-.85.85-2.18.12-3.52 1.82-5.16 2.9q-34.7 23.85-69.43 47.55zm104.38-71l.6-.6a1.23 1.23 0 0 0 1.21-.61l.6-.6a1.23 1.23 0 0 0 1.21-.61c.06-.12.18-.18.24-.3-.12.06-.18.18-.3.24a1.23 1.23 0 0 0-1.21.61l-.6.6a1.23 1.23 0 0 0-1.21.61c-.18.24-.36.42-.55.67a.61.61 0 0 0-.3.24.61.61 0 0 0 .3-.24zm-7.9 5.4a1.23 1.23 0 0 0-1.21.61c-.36.06-.85.06-.9.6a.55.55 0 0 0 .36.36c.5-.06.55-.5.6-.85.5-.06.9-.12 1.15-.73a2.92 2.92 0 0 0 .67-.55 1.23 1.23 0 0 0 1.21-.61l.6-.6a1.23 1.23 0 0 0 1.21-.61c.06-.12.18-.18.24-.3-.12.06-.18.18-.3.24a1.23 1.23 0 0 0-1.21.61l-.6.6a1.23 1.23 0 0 0-1.21.61zm-7.9 5.52a1.23 1.23 0 0 0-1.21.61c-.5.06-1 .12-.9.8a.27.27 0 0 0 .18.18c.67.06.73-.42.8-.9a1.3 1.3 0 0 0 1.15-.67 5.28 5.28 0 0 0 .67-.55 1.23 1.23 0 0 0 1.21-.61l.6-.6a1.23 1.23 0 0 0 1.21-.61c.06-.12.18-.18.24-.3-.12.06-.18.18-.3.24a1.23 1.23 0 0 0-1.21.61l-.6.6a1.23 1.23 0 0 0-1.21.61 2.88 2.88 0 0 0-.61.61zm-6.07 4.3c.5-.06 1-.12.9-.8a.27.27 0 0 0-.18-.18c-.67-.06-.73.42-.8.9a1.29 1.29 0 0 0-1.21.61 2.09 2.09 0 0 0-1.82 1.21c-.42.12-1 .12-.9.8a.27.27 0 0 0 .18.18c.6.06.73-.42.8-.9.85 0 1.7-.06 1.82-1.2a1.41 1.41 0 0 0 1.22-.61zm19.9-14.38a3.6 3.6 0 0 1-.24.49c.18.06.36.24.5.18s.18-.3.24-.5a4.18 4.18 0 0 1-.48-.18zm-17.05 12.56c-.06-.18-.12-.42-.24-.42a.5.5 0 0 0-.49.18.32.32 0 0 0 .24.55c.2-.04.32-.2.5-.3zm25.22-17.3a1.22 1.22 0 0 1 .24-.49c-.18-.06-.36-.24-.5-.18s-.18.3-.24.5a4.18 4.18 0 0 0 .49.18zm-33.13 22.7a4.14 4.14 0 0 0-.3-.42c-.12 0-.42.12-.42.24-.12.3.06.55.36.5.15-.01.27-.2.4-.3z" fill="#e6e3d6"/><path d="M362.17 354.78c-4-3.88-8.86-6.55-13.4-9.7q-37.6-26.22-75.3-52.32l-25.37-17.6c0-.18-.06-.42-.06-.6l37.5-26q37.87-26.13 75.68-52.2a4.8 4.8 0 0 1 2.67-1.27v160.24c-.48-.14-1.1-.36-1.7-.54z" fill="#b6b5ac"/><path d="M136.43 355.32c1.15-2.43 3.82-3.1 5.77-4.55 7-5.34 14.32-10.38 21.66-15.3l36.72-25.3c7.46-4.92 15-9.83 22-15.35 5.52-4.37 11.83-7.46 17.05-12.26 1.88-1.7 4.6-2.73 6.8-4.3 1-.8 1.94-.5 3 .3l15.6 10.8c6.37 4.2 12.44 8.86 18.87 12.93 5.7 3.64 11 8 16.7 11.7 6.55 4.2 12.87 8.8 19.24 13.23l22.82 16.14c4.55 3.34 9.22 6.43 13.84 9.65.85.6 2.12 1 2.06 2.37q-111.06-.1-222.12-.07z" fill="#e6e3d6"/><path d="M364 355.32V195.05c2.6-2.85 6-4.6 9.1-6.86l23-16.45a3.07 3.07 0 0 1 1.88-.91c.06 1 .12 2 .12 3q0 77.47.06 155a44.46 44.46 0 0 1-1 10.56 17.45 17.45 0 0 1-11.71 13.23 55 55 0 0 1-21.45 2.7z" fill="#b1392f"/><path d="M206.28 303.18c-2.37 2.67-5.58 4.25-8.44 6.25q-32.5 22.76-65.12 45.45l-1.2.36c0-.6.06-1.15.06-1.76q34.77-23.76 69.5-47.52c1.64-1.1 2.9-2.85 5.16-2.9z" class="K"/><path d="M248.1 274.55a2.06 2.06 0 0 0 .06.61l-1.82.06c.24-.24.55-.42.8-.67z" class="N"/><path d="M211 299.43a2.09 2.09 0 0 1 1.82-1.21l.06.06c-.12 1.15-1 1.2-1.82 1.2z" class="K"/><path d="M234 283.35a4.18 4.18 0 0 1 .49.18c-.06.18-.12.42-.24.5s-.3-.12-.5-.18a3.58 3.58 0 0 1 .24-.49z" class="L"/><path d="M214.05 297.6c.06-.5.18-.9.8-.9a.27.27 0 0 1 .18.18c0 .67-.5.67-.9.8 0 .06-.06-.06-.06-.06zm2.9-1.7c-.12.12-.3.3-.42.24a.32.32 0 0 1-.24-.55c.06-.12.36-.18.5-.18s.05.37.17.5z" class="K"/><path d="M242.17 278.6a1.22 1.22 0 0 1-.49-.24c.06-.18.12-.42.24-.5s.3.12.5.18a2.16 2.16 0 0 0-.24.55z" class="N"/><path d="M219.03 294.1c-.06.5-.18.9-.8.9a.27.27 0 0 1-.18-.18c0-.67.5-.67.9-.8z" class="K"/><path d="M226.9 288.63c-.06.42-.12.8-.6.85a.55.55 0 0 1-.36-.36c.06-.5.5-.55.9-.6a.21.21 0 0 0 .06.12z" class="M"/><path d="M211.17 299.55c-.12.5-.18.9-.8.9a.27.27 0 0 1-.18-.18c-.06-.67.5-.67.9-.8zm-2.1 1.75c-.12.12-.24.3-.36.3-.36.06-.5-.18-.36-.5a.61.61 0 0 1 .42-.24c.06.07.18.3.3.43zm-2.9 1.77c.12-.5.18-.9.85-.85a.27.27 0 0 1 .18.18c.06.67-.5.67-.9.8z" class="K"/><use xlink:href="#B" class="L"/><path d="M212.9 298.18a1.23 1.23 0 0 1 1.21-.61l.06.06a1.23 1.23 0 0 1-1.21.61c0 .1-.06-.06-.06-.06z" class="K"/><path d="M230.5 286.18a1.23 1.23 0 0 1 1.21-.61l.06.06a1.41 1.41 0 0 1-1.27.55zm-.6.57a1.23 1.23 0 0 1-1.21.61h0a1.18 1.18 0 0 1 1.21-.61z" class="M"/><g class="K"><path d="M222.6 291.6a1.23 1.23 0 0 1 1.21-.61l.06.06a1.41 1.41 0 0 1-1.27.55zm-.6.58a1.23 1.23 0 0 1-1.21.61h0c.24-.55.67-.6 1.2-.6z"/><use xlink:href="#B" x="-17.61" y="12.12"/></g><use xlink:href="#B" x="7.89" y="-5.48" class="N"/><path d="M238.38 280.68a1.23 1.23 0 0 1 1.21-.61h0a1.18 1.18 0 0 1-1.21.61z" class="L"/><use xlink:href="#B" x="-9.71" y="6.66" class="M"/><path d="M222 292.18l.6-.6.06.06-.67.55z" class="K"/><path d="M228.67 287.35l-.6.6-.06-.06.67-.55z" class="M"/><path d="M235.96 282.5l.6-.6.06.06-.67.55z" class="L"/><path d="M231.7 285.53c.12-.06.18-.18.3-.24-.12.06-.18.18-.3.24z" class="M"/><path d="M239.6 280.07c.12-.06.18-.18.3-.24-.12.06-.18.18-.3.24z" class="L"/><g class="N"><path d="M243.85 277.04c-.12.06-.18.18-.3.24.12-.06.18-.18.3-.24z"/><path d="M243.85 277.04l.6-.6.06.06-.67.55z"/></g><path d="M237.78 281.3l.6-.6.06.06-.67.55z" class="L"/><path d="M246.27 275.18l-.6.6-.06-.06.67-.55z" class="N"/><path d="M235.96 282.5c-.12.06-.18.18-.3.24.12-.06.18-.18.3-.24z" class="L"/><path d="M223.82 291c.12-.06.18-.18.3-.24-.12.06-.18.18-.3.24z" class="K"/><path d="M230.5 286.18l-.6.6-.06-.06.67-.55z" class="M"/><path d="M220.8 292.82l-.6.6-.06-.06.67-.55z" class="K"/><defs ><path id="B" d="M237.78 281.3a1.23 1.23 0 0 1-1.21.61l-.06-.06a1.41 1.41 0 0 1 1.27-.55z"/></defs></svg>