<svg xmlns="http://www.w3.org/2000/svg" width="1155" height="1155"><path fill="#fff" d="M0 0h1155v1155H0z"/><path d="M385 70h35v35h-35z"/><path d="M420 70h35v35h-35z"/><path d="M455 70h35v35h-35z"/><path d="M490 70h35v35h-35zm70 0h35v35h-35zm140 0h35v35h-35z"/><path d="M735 70h35v35h-35zm-315 35h35v35h-35z"/><path d="M630 105h35v35h-35zm140 0h35v35h-35zm-350 35h35v35h-35zm140 0h35v35h-35z"/><path d="M595 140h35v35h-35zm70 0h35v35h-35zm-280 35h35v35h-35zm105 0h35v35h-35z"/><path d="M525 175h35v35h-35zm105 0h35v35h-35zm70 0h35v35h-35zm-315 35h35v35h-35z"/><path d="M455 210h35v35h-35zm210 0h35v35h-35z"/><path d="M700 210h35v35h-35zm-350 35h35v35h-35z"/><path d="M385 245h35v35h-35zm210 0h35v35h-35z"/><path d="M630 245h35v35h-35zm105 0h35v35h-35z"/><path d="M770 245h35v35h-35zm-420 35h35v35h-35zm70 0h35v35h-35zm70 0h35v35h-35z"/><path d="M560 280h35v35h-35zm70 0h35v35h-35zm70 0h35v35h-35zm70 0h35v35h-35zm-385 35h35v35h-35z"/><path d="M420 315h35v35h-35zm70 0h35v35h-35z"/><path d="M525 315h35v35h-35zm70 0h35v35h-35z"/><path d="M630 315h35v35h-35z"/><path d="M665 315h35v35h-35zm70 0h35v35h-35zM70 350h35v35H70zm105 0h35v35h-35zm70 0h35v35h-35z"/><path d="M280 350h35v35h-35zm70 0h35v35h-35z"/><path d="M385 350h35v35h-35zm105 0h35v35h-35zm70 0h35v35h-35zm70 0h35v35h-35zm140 0h35v35h-35z"/><path d="M805 350h35v35h-35zm70 0h35v35h-35zm-770 35h35v35h-35zm105 0h35v35h-35zm105 0h35v35h-35z"/><path d="M350 385h35v35h-35z"/><path d="M385 385h35v35h-35z"/><path d="M420 385h35v35h-35z"/><path d="M455 385h35v35h-35z"/><path d="M490 385h35v35h-35z"/><path d="M525 385h35v35h-35zm70 0h35v35h-35z"/><path d="M630 385h35v35h-35zm105 0h35v35h-35z"/><path d="M770 385h35v35h-35zm70 0h35v35h-35z"/><path d="M875 385h35v35h-35zm105 0h35v35h-35z"/><path d="M1015 385h35v35h-35z"/><path d="M1050 385h35v35h-35zM70 420h35v35H70z"/><path d="M105 420h35v35h-35z"/><path d="M140 420h35v35h-35z"/><path d="M175 420h35v35h-35zm105 0h35v35h-35z"/><path d="M315 420h35v35h-35zm70 0h35v35h-35zm70 0h35v35h-35zm70 0h35v35h-35z"/><path d="M560 420h35v35h-35z"/><path d="M595 420h35v35h-35zm105 0h35v35h-35z"/><path d="M735 420h35v35h-35zm70 0h35v35h-35z"/><path d="M840 420h35v35h-35z"/><path d="M875 420h35v35h-35z"/><path d="M910 420h35v35h-35zm-735 35h35v35h-35z"/><path d="M210 455h35v35h-35zm140 0h35v35h-35zm105 0h35v35h-35z"/><path d="M490 455h35v35h-35z"/><path d="M525 455h35v35h-35zm105 0h35v35h-35zm70 0h35v35h-35z"/><path d="M735 455h35v35h-35zm105 0h35v35h-35z"/><path d="M875 455h35v35h-35zm70 0h35v35h-35z"/><path d="M980 455h35v35h-35z"/><path d="M1015 455h35v35h-35z"/><path d="M1050 455h35v35h-35zM70 490h35v35H70zm105 0h35v35h-35zm70 0h35v35h-35z"/><path d="M280 490h35v35h-35zm105 0h35v35h-35z"/><path d="M420 490h35v35h-35zm140 0h35v35h-35z"/><path d="M595 490h35v35h-35z"/><path d="M630 490h35v35h-35z"/><path d="M665 490h35v35h-35zm70 0h35v35h-35zm70 0h35v35h-35z"/><path d="M840 490h35v35h-35zM70 525h35v35H70zm70 0h35v35h-35zm70 0h35v35h-35zm105 0h35v35h-35z"/><path d="M350 525h35v35h-35zm175 0h35v35h-35z"/><path d="M560 525h35v35h-35z"/><path d="M595 525h35v35h-35z"/><path d="M630 525h35v35h-35zm105 0h35v35h-35zm70 0h35v35h-35zm140 0h35v35h-35z"/><path d="M980 525h35v35h-35zm-875 35h35v35h-35zm105 0h35v35h-35z"/><path d="M245 560h35v35h-35z"/><path d="M280 560h35v35h-35z"/><path d="M315 560h35v35h-35zm70 0h35v35h-35z"/><path d="M420 560h35v35h-35z"/><path d="M455 560h35v35h-35z"/><path d="M490 560h35v35h-35z"/><path d="M525 560h35v35h-35z"/><path d="M560 560h35v35h-35zm70 0h35v35h-35zm175 0h35v35h-35z"/><path d="M840 560h35v35h-35z"/><path d="M875 560h35v35h-35zm70 0h35v35h-35z"/><path d="M980 560h35v35h-35zm70 0h35v35h-35zM70 595h35v35H70zm70 0h35v35h-35z"/><path d="M175 595h35v35h-35zm70 0h35v35h-35zm140 0h35v35h-35z"/><path d="M420 595h35v35h-35z"/><path d="M455 595h35v35h-35z"/><path d="M490 595h35v35h-35zm140 0h35v35h-35z"/><path d="M665 595h35v35h-35zm105 0h35v35h-35z"/><path d="M805 595h35v35h-35zm245 0h35v35h-35zM70 630h35v35H70zm105 0h35v35h-35zm105 0h35v35h-35z"/><path d="M315 630h35v35h-35z"/><path d="M350 630h35v35h-35z"/><path d="M385 630h35v35h-35zm70 0h35v35h-35z"/><path d="M490 630h35v35h-35z"/><path d="M525 630h35v35h-35zm70 0h35v35h-35zm70 0h35v35h-35zm105 0h35v35h-35z"/><path d="M805 630h35v35h-35zm70 0h35v35h-35zm140 0h35v35h-35zm-910 35h35v35h-35zm70 0h35v35h-35zm175 0h35v35h-35z"/><path d="M385 665h35v35h-35z"/><path d="M420 665h35v35h-35z"/><path d="M455 665h35v35h-35z"/><path d="M490 665h35v35h-35z"/><path d="M525 665h35v35h-35z"/><path d="M560 665h35v35h-35zm70 0h35v35h-35z"/><path d="M665 665h35v35h-35zm140 0h35v35h-35z"/><path d="M840 665h35v35h-35z"/><path d="M875 665h35v35h-35zm70 0h35v35h-35z"/><path d="M980 665h35v35h-35z"/><path d="M1015 665h35v35h-35z"/><path d="M1050 665h35v35h-35zM70 700h35v35H70zm70 0h35v35h-35z"/><path d="M175 700h35v35h-35zm70 0h35v35h-35z"/><path d="M280 700h35v35h-35z"/><path d="M315 700h35v35h-35z"/><path d="M350 700h35v35h-35zm140 0h35v35h-35zm70 0h35v35h-35zm245 0h35v35h-35zm105 0h35v35h-35zm105 0h35v35h-35z"/><path d="M1050 700h35v35h-35zm-910 35h35v35h-35zm105 0h35v35h-35zm315 0h35v35h-35z"/><path d="M595 735h35v35h-35z"/><path d="M630 735h35v35h-35z"/><path d="M665 735h35v35h-35z"/><path d="M700 735h35v35h-35zm210 0h35v35h-35z"/><path d="M945 735h35v35h-35zm70 0h35v35h-35z"/><path d="M1050 735h35v35h-35zM70 770h35v35H70zm70 0h35v35h-35z"/><path d="M175 770h35v35h-35zm105 0h35v35h-35zm70 0h35v35h-35z"/><path d="M385 770h35v35h-35zm70 0h35v35h-35zm140 0h35v35h-35z"/><path d="M630 770h35v35h-35zm105 0h35v35h-35z"/><path d="M770 770h35v35h-35z"/><path d="M805 770h35v35h-35z"/><path d="M840 770h35v35h-35z"/><path d="M875 770h35v35h-35z"/><path d="M910 770h35v35h-35zm70 0h35v35h-35z"/><path d="M1015 770h35v35h-35z"/><path d="M1050 770h35v35h-35zm-700 35h35v35h-35z"/><path d="M385 805h35v35h-35z"/><path d="M420 805h35v35h-35z"/><path d="M455 805h35v35h-35zm105 0h35v35h-35zm70 0h35v35h-35z"/><path d="M665 805h35v35h-35zm70 0h35v35h-35z"/><path d="M770 805h35v35h-35zm140 0h35v35h-35zm140 0h35v35h-35zm-595 35h35v35h-35z"/><path d="M630 840h35v35h-35zm140 0h35v35h-35zm70 0h35v35h-35zm70 0h35v35h-35zm70 0h35v35h-35z"/><path d="M1015 840h35v35h-35zm-665 35h35v35h-35zm70 0h35v35h-35zm140 0h35v35h-35z"/><path d="M595 875h35v35h-35z"/><path d="M630 875h35v35h-35zm70 0h35v35h-35zm70 0h35v35h-35zm140 0h35v35h-35z"/><path d="M980 875h35v35h-35zm-490 35h35v35h-35zm105 0h35v35h-35z"/><path d="M630 910h35v35h-35zm140 0h35v35h-35z"/><path d="M805 910h35v35h-35z"/><path d="M840 910h35v35h-35z"/><path d="M875 910h35v35h-35z"/><path d="M910 910h35v35h-35z"/><path d="M945 910h35v35h-35zm105 0h35v35h-35zm-700 35h35v35h-35z"/><path d="M385 945h35v35h-35z"/><path d="M420 945h35v35h-35zm70 0h35v35h-35zm175 0h35v35h-35zm70 0h35v35h-35zm105 0h35v35h-35z"/><path d="M875 945h35v35h-35z"/><path d="M910 945h35v35h-35zm105 0h35v35h-35zm-595 35h35v35h-35zm70 0h35v35h-35z"/><path d="M525 980h35v35h-35z"/><path d="M560 980h35v35h-35zm70 0h35v35h-35z"/><path d="M665 980h35v35h-35z"/><path d="M700 980h35v35h-35zm210 0h35v35h-35z"/><path d="M945 980h35v35h-35z"/><path d="M980 980h35v35h-35zm70 0h35v35h-35zm-665 35h35v35h-35z"/><path d="M420 1015h35v35h-35zm140 0h35v35h-35z"/><path d="M595 1015h35v35h-35z"/><path d="M630 1015h35v35h-35z"/><path d="M665 1015h35v35h-35z"/><path d="M700 1015h35v35h-35z"/><path d="M735 1015h35v35h-35z"/><path d="M770 1015h35v35h-35zm70 0h35v35h-35zm70 0h35v35h-35zm105 0h35v35h-35zm-665 35h35v35h-35zm70 0h35v35h-35z"/><path d="M455 1050h35v35h-35z"/><path d="M490 1050h35v35h-35zm70 0h35v35h-35zm105 0h35v35h-35zm105 0h35v35h-35z"/><path d="M805 1050h35v35h-35zm70 0h35v35h-35zm70 0h35v35h-35zm70 0h35v35h-35zM278.25 70H70v245h245V70h-36.75zm0 208.25h-171.5v-171.5h171.5v171.5zm770-208.25H840v245h245V70h-36.75zm0 208.25h-171.5v-171.5h171.5v171.5zM278.25 840H70v245h245V840h-36.75zm0 208.25h-171.5v-171.5h171.5v171.5zM140 140h105v105H140zm770 0h105v105H910zM140 910h105v105H140z"/></svg>