<svg xmlns="http://www.w3.org/2000/svg" viewBox="0 0 508.33 508.36"><path d="M483.17 27.9c11.45 15.13 16.6 40.2 19.15 70.7 3.36 45.5 4.7 100.1 6 156.52-1.67 57.47-2.35 115.43-6 156.52-2.88 31.54-9 52.66-19.22 65.47-13 12.8-37.94 23.6-73.5 26.15-43.25 3.7-96.6 3.65-155.48 5.1-65.44-1.12-109.82-.64-156.38-5.08-36.32-2.52-60.08-13.2-74.7-26.07-10.83-14.54-14-30-17-66.24-3.75-41.85-4.58-98.56-6-155.54 2.13-56.68 2.26-113.8 6.03-156.5 2.53-33.7 6.52-56.34 16.75-70.74 14.35-12.23 38.83-18.3 75.35-21.3 50-5.85 102.06-7 155.88-6.87 55.4.1 108.56 1.67 156 6.34 32 2.56 58.48 8.07 73.07 21.56z" fill="#2ca3db" fill-rule="evenodd"/><path d="M377.1 123.62l-264.48 102c-18.05 7.24-17.94 17.3-3.3 21.8l66 20.6 25.24 77.38c3.07 8.47 1.56 11.83 10.45 11.83 6.86 0 9.9-3.13 13.73-6.86l33-32.08 68.6 50.7c12.63 7 21.74 3.36 24.9-11.73l45-212.24c4.6-18.48-7.07-26.83-19.15-21.4zM185.63 263.3l148.68-93.8c7.42-4.5 14.23-2.08 8.64 2.88l-127.3 114.86-5 52.87z" fill="#fff"/></svg>