<svg xmlns="http://www.w3.org/2000/svg" width="1160" height="1160"><path fill="#fff" d="M0 0h1160v1160H0z"/><path d="M480 80h40v40h-40z"/><path d="M520 80h40v40h-40zm120 0h40v40h-40z"/><path d="M680 80h40v40h-40zm-280 40h40v40h-40z"/><path d="M440 120h40v40h-40zm80 0h40v40h-40zm80 0h40v40h-40z"/><path d="M640 120h40v40h-40z"/><path d="M680 120h40v40h-40z"/><path d="M720 120h40v40h-40zm-280 40h40v40h-40z"/><path d="M520 160h40v40h-40zm-80 40h40v40h-40z"/><path d="M480 200h40v40h-40z"/><path d="M520 200h40v40h-40zm80 0h40v40h-40z"/><path d="M640 200h40v40h-40zm-240 40h40v40h-40zm120 0h40v40h-40z"/><path d="M560 240h40v40h-40zm80 0h40v40h-40z"/><path d="M680 240h40v40h-40zm-240 40h40v40h-40z"/><path d="M560 280h40v40h-40zm120 0h40v40h-40zm-280 40h40v40h-40zm80 0h40v40h-40z"/><path d="M560 320h40v40h-40zm80 0h40v40h-40zm80 0h40v40h-40zm-280 40h40v40h-40z"/><path d="M480 360h40v40h-40z"/><path d="M520 360h40v40h-40z"/><path d="M560 360h40v40h-40z"/><path d="M600 360h40v40h-40z"/><path d="M640 360h40v40h-40zm80 0h40v40h-40zM80 400h40v40H80zm80 0h40v40h-40z"/><path d="M240 400h40v40h-40zm80 0h40v40h-40zm200 0h40v40h-40zm80 0h40v40h-40zm80 0h40v40h-40z"/><path d="M720 400h40v40h-40zm160 0h40v40h-40zm120 0h40v40h-40zM80 440h40v40H80z"/><path d="M160 440h40v40h-40zm120 0h40v40h-40zm160 0h40v40h-40zm280 0h40v40h-40z"/><path d="M760 440h40v40h-40z"/><path d="M800 440h40v40h-40z"/><path d="M840 440h40v40h-40zm80 0h40v40h-40z"/><path d="M960 440h40v40h-40z"/><path d="M1000 440h40v40h-40z"/><path d="M1040 440h40v40h-40zM80 480h40v40H80z"/><path d="M120 480h40v40h-40zm200 0h40v40h-40z"/><path d="M360 480h40v40h-40z"/><path d="M400 480h40v40h-40z"/><path d="M440 480h40v40h-40z"/><path d="M480 480h40v40h-40zm120 0h40v40h-40zm160 0h40v40h-40zm80 0h40v40h-40zm80 0h40v40h-40z"/><path d="M960 480h40v40h-40z"/><path d="M1000 480h40v40h-40z"/><path d="M1040 480h40v40h-40zM80 520h40v40H80z"/><path d="M120 520h40v40h-40z"/><path d="M160 520h40v40h-40z"/><path d="M200 520h40v40h-40z"/><path d="M240 520h40v40h-40z"/><path d="M280 520h40v40h-40zm160 0h40v40h-40z"/><path d="M480 520h40v40h-40zm80 0h40v40h-40z"/><path d="M600 520h40v40h-40z"/><path d="M640 520h40v40h-40z"/><path d="M680 520h40v40h-40zm120 0h40v40h-40zm80 0h40v40h-40zm160 0h40v40h-40zm-920 40h40v40h-40z"/><path d="M160 560h40v40h-40z"/><path d="M200 560h40v40h-40z"/><path d="M240 560h40v40h-40zm80 0h40v40h-40zm80 0h40v40h-40z"/><path d="M440 560h40v40h-40z"/><path d="M480 560h40v40h-40z"/><path d="M520 560h40v40h-40z"/><path d="M560 560h40v40h-40z"/><path d="M600 560h40v40h-40zm80 0h40v40h-40z"/><path d="M720 560h40v40h-40z"/><path d="M760 560h40v40h-40z"/><path d="M800 560h40v40h-40zm120 0h40v40h-40zm80 0h40v40h-40z"/><path d="M1040 560h40v40h-40zm-760 40h40v40h-40zm80 0h40v40h-40zm80 0h40v40h-40zm80 0h40v40h-40z"/><path d="M560 600h40v40h-40zm160 0h40v40h-40zm120 0h40v40h-40zm200 0h40v40h-40zM80 640h40v40H80zm160 0h40v40h-40z"/><path d="M280 640h40v40h-40z"/><path d="M320 640h40v40h-40zm80 0h40v40h-40z"/><path d="M440 640h40v40h-40zm80 0h40v40h-40z"/><path d="M560 640h40v40h-40zm160 0h40v40h-40zm80 0h40v40h-40zm160 0h40v40h-40z"/><path d="M1000 640h40v40h-40z"/><path d="M1040 640h40v40h-40zm-920 40h40v40h-40z"/><path d="M160 680h40v40h-40zm80 0h40v40h-40z"/><path d="M280 680h40v40h-40zm200 0h40v40h-40zm80 0h40v40h-40z"/><path d="M600 680h40v40h-40z"/><path d="M640 680h40v40h-40z"/><path d="M680 680h40v40h-40zm80 0h40v40h-40z"/><path d="M800 680h40v40h-40z"/><path d="M840 680h40v40h-40z"/><path d="M880 680h40v40h-40zm120 0h40v40h-40zM80 720h40v40H80zm120 0h40v40h-40zm80 0h40v40h-40z"/><path d="M320 720h40v40h-40z"/><path d="M360 720h40v40h-40zm160 0h40v40h-40zm120 0h40v40h-40z"/><path d="M680 720h40v40h-40z"/><path d="M720 720h40v40h-40z"/><path d="M760 720h40v40h-40z"/><path d="M800 720h40v40h-40z"/><path d="M840 720h40v40h-40z"/><path d="M880 720h40v40h-40z"/><path d="M920 720h40v40h-40zm80 0h40v40h-40z"/><path d="M1040 720h40v40h-40zm-640 40h40v40h-40z"/><path d="M440 760h40v40h-40z"/><path d="M480 760h40v40h-40z"/><path d="M520 760h40v40h-40zm160 0h40v40h-40z"/><path d="M720 760h40v40h-40zm160 0h40v40h-40zm160 0h40v40h-40zm-560 40h40v40h-40z"/><path d="M600 800h40v40h-40zm80 0h40v40h-40z"/><path d="M720 800h40v40h-40zm80 0h40v40h-40zm80 0h40v40h-40zm80 0h40v40h-40z"/><path d="M1000 800h40v40h-40z"/><path d="M1040 800h40v40h-40zm-600 40h40v40h-40z"/><path d="M480 840h40v40h-40z"/><path d="M520 840h40v40h-40zm200 0h40v40h-40zm160 0h40v40h-40zm-480 40h40v40h-40z"/><path d="M440 880h40v40h-40zm120 0h40v40h-40zm160 0h40v40h-40z"/><path d="M760 880h40v40h-40z"/><path d="M800 880h40v40h-40z"/><path d="M840 880h40v40h-40z"/><path d="M880 880h40v40h-40zm120 0h40v40h-40z"/><path d="M1040 880h40v40h-40zm-520 40h40v40h-40z"/><path d="M560 920h40v40h-40z"/><path d="M600 920h40v40h-40zm120 0h40v40h-40zm160 0h40v40h-40zm-480 40h40v40h-40zm80 0h40v40h-40z"/><path d="M520 960h40v40h-40z"/><path d="M560 960h40v40h-40zm80 0h40v40h-40zm80 0h40v40h-40zm160 0h40v40h-40z"/><path d="M920 960h40v40h-40z"/><path d="M960 960h40v40h-40zm80 0h40v40h-40zm-600 40h40v40h-40z"/><path d="M480 1000h40v40h-40zm80 0h40v40h-40z"/><path d="M600 1000h40v40h-40z"/><path d="M640 1000h40v40h-40z"/><path d="M680 1000h40v40h-40z"/><path d="M720 1000h40v40h-40z"/><path d="M760 1000h40v40h-40z"/><path d="M800 1000h40v40h-40z"/><path d="M840 1000h40v40h-40z"/><path d="M880 1000h40v40h-40zm120 0h40v40h-40zm-600 40h40v40h-40zm80 0h40v40h-40z"/><path d="M520 1040h40v40h-40zm120 0h40v40h-40z"/><path d="M680 1040h40v40h-40z"/><path d="M720 1040h40v40h-40z"/><path d="M760 1040h40v40h-40z"/><path d="M800 1040h40v40h-40zm80 0h40v40h-40z"/><path d="M920 1040h40v40h-40zm80 0h40v40h-40z"/><path d="M1040 1040h40v40h-40zM318 80H80v280h280V80h-42zm0 238H122V122h196v196zm720-238H800v280h280V80h-42zm0 238H842V122h196v196zM318 800H80v280h280V800h-42zm0 238H122V842h196v196zM160 160h120v120H160zm720 0h120v120H880zM160 880h120v120H160z"/></svg>