<svg xmlns="http://www.w3.org/2000/svg" viewBox="0 0 508.33 508.36"><path d="M483.17 27.9c11.45 15.13 16.6 40.2 19.15 70.7 3.36 45.5 4.7 100.1 6 156.52-1.67 57.47-2.35 115.43-6 156.52-2.88 31.54-9 52.66-19.22 65.47-13 12.8-37.94 23.6-73.5 26.15-43.25 3.7-96.6 3.65-155.48 5.1-65.44-1.12-109.82-.64-156.38-5.08-36.32-2.52-60.08-13.2-74.7-26.07-10.83-14.54-14-30-17-66.24-3.75-41.85-4.58-98.56-6-155.54 2.13-56.68 2.26-113.8 6.03-156.5 2.53-33.7 6.52-56.34 16.75-70.74 14.35-12.23 38.83-18.3 75.35-21.3 50-5.85 102.06-7 155.88-6.87 55.4.1 108.56 1.67 156 6.34 32 2.56 58.48 8.07 73.07 21.56z" fill="#2ca3db" fill-rule="evenodd"/><path d="M100.377 357.822c30.33 19.236 66.308 30.368 104.875 30.368 108.35 0 196.18-87.84 196.18-196.18 0-2.705-.057-5.4-.16-8.067 3.92-3.084 28.157-22.51 34.098-35 0 0-19.683 8.18-38.947 10.107-.038 0-.085.01-.123.01 0 0 .038-.02.104-.066 1.775-1.186 26.59-18.08 29.95-38.207 0 0-13.922 7.43-33.415 13.932-3.227 1.072-6.605 2.126-10.088 3.103-12.565-13.4-30.425-21.78-50.25-21.78-38.027 0-68.84 30.805-68.84 68.803a68.67 68.67 0 0 0 1.784 15.592c-5.314-.218-86.237-4.755-141.29-71.423 0 0-32.902 44.917 19.607 91.105 0 0-15.962-.636-29.733-8.864 0 0-5.058 54.416 54.407 68.33 0 0-11.7 4.432-30.368 1.272 0 0 10.44 43.968 63.27 48.077 0 0-41.777 37.74-101.08 28.885l.02.005z" fill="#fff"/></svg>