<svg xmlns="http://www.w3.org/2000/svg" width="1155" height="1155"><path fill="#fff" d="M0 0h1155v1155H0z"/><path d="M350 70h35v35h-35z"/><path d="M385 70h35v35h-35z"/><path d="M420 70h35v35h-35z"/><path d="M455 70h35v35h-35zm210 0h35v35h-35z"/><path d="M700 70h35v35h-35zm-280 35h35v35h-35z"/><path d="M455 105h35v35h-35z"/><path d="M490 105h35v35h-35zm140 0h35v35h-35zm105 0h35v35h-35z"/><path d="M770 105h35v35h-35zm-385 35h35v35h-35zm140 0h35v35h-35zm70 0h35v35h-35z"/><path d="M630 140h35v35h-35z"/><path d="M665 140h35v35h-35z"/><path d="M700 140h35v35h-35zm70 0h35v35h-35zm-420 35h35v35h-35z"/><path d="M385 175h35v35h-35zm175 0h35v35h-35z"/><path d="M595 175h35v35h-35z"/><path d="M630 175h35v35h-35zm70 0h35v35h-35zm70 0h35v35h-35zm-420 35h35v35h-35z"/><path d="M385 210h35v35h-35z"/><path d="M420 210h35v35h-35z"/><path d="M455 210h35v35h-35z"/><path d="M490 210h35v35h-35z"/><path d="M525 210h35v35h-35z"/><path d="M560 210h35v35h-35zm70 0h35v35h-35zm70 0h35v35h-35zm-350 35h35v35h-35z"/><path d="M385 245h35v35h-35zm70 0h35v35h-35zm70 0h35v35h-35z"/><path d="M560 245h35v35h-35z"/><path d="M595 245h35v35h-35zm105 0h35v35h-35z"/><path d="M735 245h35v35h-35z"/><path d="M770 245h35v35h-35zm-420 35h35v35h-35zm70 0h35v35h-35zm70 0h35v35h-35z"/><path d="M560 280h35v35h-35zm70 0h35v35h-35zm70 0h35v35h-35zm70 0h35v35h-35zm-420 35h35v35h-35z"/><path d="M385 315h35v35h-35z"/><path d="M420 315h35v35h-35z"/><path d="M455 315h35v35h-35zm105 0h35v35h-35zm105 0h35v35h-35z"/><path d="M700 315h35v35h-35z"/><path d="M735 315h35v35h-35z"/><path d="M770 315h35v35h-35zM70 350h35v35H70zm140 0h35v35h-35zm70 0h35v35h-35z"/><path d="M315 350h35v35h-35z"/><path d="M350 350h35v35h-35zm70 0h35v35h-35zm70 0h35v35h-35z"/><path d="M525 350h35v35h-35z"/><path d="M560 350h35v35h-35z"/><path d="M595 350h35v35h-35z"/><path d="M630 350h35v35h-35z"/><path d="M665 350h35v35h-35zm105 0h35v35h-35z"/><path d="M805 350h35v35h-35z"/><path d="M840 350h35v35h-35z"/><path d="M875 350h35v35h-35z"/><path d="M910 350h35v35h-35z"/><path d="M945 350h35v35h-35zm105 0h35v35h-35zm-910 35h35v35h-35zm175 0h35v35h-35zm70 0h35v35h-35z"/><path d="M420 385h35v35h-35z"/><path d="M455 385h35v35h-35z"/><path d="M490 385h35v35h-35zm350 0h35v35h-35z"/><path d="M875 385h35v35h-35z"/><path d="M910 385h35v35h-35zm140 0h35v35h-35zm-945 35h35v35h-35z"/><path d="M140 420h35v35h-35zm105 0h35v35h-35z"/><path d="M280 420h35v35h-35z"/><path d="M315 420h35v35h-35z"/><path d="M350 420h35v35h-35z"/><path d="M385 420h35v35h-35z"/><path d="M420 420h35v35h-35z"/><path d="M455 420h35v35h-35zm70 0h35v35h-35z"/><path d="M560 420h35v35h-35z"/><path d="M595 420h35v35h-35zm175 0h35v35h-35z"/><path d="M805 420h35v35h-35zm105 0h35v35h-35z"/><path d="M945 420h35v35h-35z"/><path d="M980 420h35v35h-35z"/><path d="M1015 420h35v35h-35z"/><path d="M1050 420h35v35h-35zm-945 35h35v35h-35z"/><path d="M140 455h35v35h-35zm280 0h35v35h-35z"/><path d="M455 455h35v35h-35zm70 0h35v35h-35zm70 0h35v35h-35z"/><path d="M630 455h35v35h-35z"/><path d="M665 455h35v35h-35zm105 0h35v35h-35zm70 0h35v35h-35zm70 0h35v35h-35zm105 0h35v35h-35zM70 490h35v35H70zm70 0h35v35h-35z"/><path d="M175 490h35v35h-35z"/><path d="M210 490h35v35h-35z"/><path d="M245 490h35v35h-35z"/><path d="M280 490h35v35h-35z"/><path d="M315 490h35v35h-35z"/><path d="M350 490h35v35h-35z"/><path d="M385 490h35v35h-35zm70 0h35v35h-35z"/><path d="M490 490h35v35h-35z"/><path d="M525 490h35v35h-35zm140 0h35v35h-35zm70 0h35v35h-35z"/><path d="M770 490h35v35h-35z"/><path d="M805 490h35v35h-35zm140 0h35v35h-35zm105 0h35v35h-35zM70 525h35v35H70zm70 0h35v35h-35z"/><path d="M175 525h35v35h-35z"/><path d="M210 525h35v35h-35zm315 0h35v35h-35z"/><path d="M560 525h35v35h-35zm70 0h35v35h-35z"/><path d="M665 525h35v35h-35z"/><path d="M700 525h35v35h-35zm140 0h35v35h-35zm70 0h35v35h-35zm105 0h35v35h-35z"/><path d="M1050 525h35v35h-35zM70 560h35v35H70zm70 0h35v35h-35z"/><path d="M175 560h35v35h-35z"/><path d="M210 560h35v35h-35z"/><path d="M245 560h35v35h-35z"/><path d="M280 560h35v35h-35z"/><path d="M315 560h35v35h-35z"/><path d="M350 560h35v35h-35zm105 0h35v35h-35z"/><path d="M490 560h35v35h-35zm140 0h35v35h-35zm140 0h35v35h-35zm175 0h35v35h-35z"/><path d="M980 560h35v35h-35z"/><path d="M1015 560h35v35h-35z"/><path d="M1050 560h35v35h-35zM70 595h35v35H70zm105 0h35v35h-35zm70 0h35v35h-35zm70 0h35v35h-35zm140 0h35v35h-35z"/><path d="M490 595h35v35h-35zm70 0h35v35h-35zm105 0h35v35h-35z"/><path d="M700 595h35v35h-35zm70 0h35v35h-35z"/><path d="M805 595h35v35h-35zm105 0h35v35h-35z"/><path d="M945 595h35v35h-35zM70 630h35v35H70zm105 0h35v35h-35z"/><path d="M210 630h35v35h-35z"/><path d="M245 630h35v35h-35z"/><path d="M280 630h35v35h-35z"/><path d="M315 630h35v35h-35z"/><path d="M350 630h35v35h-35zm70 0h35v35h-35z"/><path d="M455 630h35v35h-35zm70 0h35v35h-35z"/><path d="M560 630h35v35h-35z"/><path d="M595 630h35v35h-35z"/><path d="M630 630h35v35h-35z"/><path d="M665 630h35v35h-35zm105 0h35v35h-35z"/><path d="M805 630h35v35h-35zm245 0h35v35h-35zM70 665h35v35H70zm105 0h35v35h-35z"/><path d="M210 665h35v35h-35zm105 0h35v35h-35z"/><path d="M350 665h35v35h-35z"/><path d="M385 665h35v35h-35zm105 0h35v35h-35zm210 0h35v35h-35zm105 0h35v35h-35z"/><path d="M840 665h35v35h-35z"/><path d="M875 665h35v35h-35z"/><path d="M910 665h35v35h-35zm70 0h35v35h-35zm70 0h35v35h-35zm-910 35h35v35h-35z"/><path d="M175 700h35v35h-35zm70 0h35v35h-35z"/><path d="M280 700h35v35h-35zm105 0h35v35h-35zm70 0h35v35h-35zm70 0h35v35h-35z"/><path d="M560 700h35v35h-35z"/><path d="M595 700h35v35h-35zm70 0h35v35h-35z"/><path d="M700 700h35v35h-35zm140 0h35v35h-35zm70 0h35v35h-35zm70 0h35v35h-35zm70 0h35v35h-35zm-805 35h35v35h-35zm70 0h35v35h-35z"/><path d="M350 735h35v35h-35z"/><path d="M385 735h35v35h-35zm105 0h35v35h-35z"/><path d="M525 735h35v35h-35zm70 0h35v35h-35z"/><path d="M630 735h35v35h-35z"/><path d="M665 735h35v35h-35z"/><path d="M700 735h35v35h-35zm70 0h35v35h-35z"/><path d="M805 735h35v35h-35zm105 0h35v35h-35z"/><path d="M945 735h35v35h-35zm70 0h35v35h-35zM70 770h35v35H70z"/><path d="M105 770h35v35h-35z"/><path d="M140 770h35v35h-35zm140 0h35v35h-35zm140 0h35v35h-35z"/><path d="M455 770h35v35h-35zm70 0h35v35h-35zm140 0h35v35h-35zm70 0h35v35h-35z"/><path d="M770 770h35v35h-35z"/><path d="M805 770h35v35h-35z"/><path d="M840 770h35v35h-35z"/><path d="M875 770h35v35h-35z"/><path d="M910 770h35v35h-35z"/><path d="M945 770h35v35h-35zm70 0h35v35h-35zm-665 35h35v35h-35zm70 0h35v35h-35z"/><path d="M455 805h35v35h-35z"/><path d="M490 805h35v35h-35z"/><path d="M525 805h35v35h-35z"/><path d="M560 805h35v35h-35zm70 0h35v35h-35zm140 0h35v35h-35zm140 0h35v35h-35z"/><path d="M945 805h35v35h-35zm70 0h35v35h-35z"/><path d="M1050 805h35v35h-35zm-700 35h35v35h-35z"/><path d="M385 840h35v35h-35z"/><path d="M420 840h35v35h-35zm70 0h35v35h-35zm140 0h35v35h-35z"/><path d="M665 840h35v35h-35z"/><path d="M700 840h35v35h-35z"/><path d="M735 840h35v35h-35z"/><path d="M770 840h35v35h-35zm70 0h35v35h-35zm70 0h35v35h-35z"/><path d="M945 840h35v35h-35z"/><path d="M980 840h35v35h-35zm70 0h35v35h-35zm-665 35h35v35h-35z"/><path d="M420 875h35v35h-35zm70 0h35v35h-35zm70 0h35v35h-35zm105 0h35v35h-35zm70 0h35v35h-35z"/><path d="M770 875h35v35h-35zm140 0h35v35h-35zm105 0h35v35h-35z"/><path d="M1050 875h35v35h-35zm-700 35h35v35h-35z"/><path d="M385 910h35v35h-35zm70 0h35v35h-35zm70 0h35v35h-35z"/><path d="M560 910h35v35h-35z"/><path d="M595 910h35v35h-35z"/><path d="M630 910h35v35h-35zm70 0h35v35h-35z"/><path d="M735 910h35v35h-35z"/><path d="M770 910h35v35h-35z"/><path d="M805 910h35v35h-35z"/><path d="M840 910h35v35h-35z"/><path d="M875 910h35v35h-35z"/><path d="M910 910h35v35h-35z"/><path d="M945 910h35v35h-35zm70 0h35v35h-35z"/><path d="M1050 910h35v35h-35zm-665 35h35v35h-35z"/><path d="M420 945h35v35h-35zm105 0h35v35h-35zm140 0h35v35h-35z"/><path d="M700 945h35v35h-35zm105 0h35v35h-35zm210 0h35v35h-35zm-630 35h35v35h-35zm70 0h35v35h-35z"/><path d="M490 980h35v35h-35zm105 0h35v35h-35zm105 0h35v35h-35zm105 0h35v35h-35zm175 0h35v35h-35z"/><path d="M1015 980h35v35h-35z"/><path d="M1050 980h35v35h-35zm-560 35h35v35h-35zm70 0h35v35h-35z"/><path d="M595 1015h35v35h-35z"/><path d="M630 1015h35v35h-35zm105 0h35v35h-35z"/><path d="M770 1015h35v35h-35zm70 0h35v35h-35zm70 0h35v35h-35z"/><path d="M945 1015h35v35h-35zm70 0h35v35h-35z"/><path d="M1050 1015h35v35h-35zm-700 35h35v35h-35zm70 0h35v35h-35zm105 0h35v35h-35z"/><path d="M560 1050h35v35h-35zm210 0h35v35h-35z"/><path d="M805 1050h35v35h-35zm105 0h35v35h-35z"/><path d="M945 1050h35v35h-35zm70 0h35v35h-35zM278.25 70H70v245h245V70h-36.75zm0 208.25h-171.5v-171.5h171.5v171.5zm770-208.25H840v245h245V70h-36.75zm0 208.25h-171.5v-171.5h171.5v171.5zM278.25 840H70v245h245V840h-36.75zm0 208.25h-171.5v-171.5h171.5v171.5zM140 140h105v105H140zm770 0h105v105H910zM140 910h105v105H140z"/></svg>