<svg xmlns="http://www.w3.org/2000/svg" viewBox="0 0 508.33 508.36"><path d="M483.17 27.9c11.45 15.13 16.6 40.2 19.15 70.7 3.36 45.5 4.7 100.1 6 156.52-1.67 57.47-2.35 115.43-6 156.52-2.88 31.54-9 52.66-19.22 65.47-13 12.8-37.94 23.6-73.5 26.15-43.25 3.7-96.6 3.65-155.48 5.1-65.44-1.12-109.82-.64-156.38-5.08-36.32-2.52-60.08-13.2-74.7-26.07-10.83-14.54-14-30-17-66.24-3.75-41.85-4.58-98.56-6-155.54 2.13-56.68 2.26-113.8 6.03-156.5 2.53-33.7 6.52-56.34 16.75-70.74 14.35-12.23 38.83-18.3 75.35-21.3 50-5.85 102.06-7 155.88-6.87 55.4.1 108.56 1.67 156 6.34 32 2.56 58.48 8.07 73.07 21.56z" fill="#09b83e" fill-rule="evenodd"/><path d="M307 202.84c-27.9 1.46-52.14 9.9-71.84 29-19.9 19.3-29 42.95-26.5 72.26-10.9-1.35-20.83-2.84-30.82-3.68-3.45-.3-7.54.12-10.46 1.77-9.7 5.47-19 11.65-30 18.54 2-9.14 3.33-17.15 5.65-24.85 1.7-5.66.9-8.8-4.3-12.5-33.48-23.64-47.6-59-37-95.44 9.77-33.7 33.77-54.13 66.37-64.78 44.5-14.54 94.52.3 121.58 35.63A83.28 83.28 0 0 1 307 202.84zM178.63 191.5c.26-6.66-5.52-12.66-12.37-12.86a12.49 12.49 0 0 0-13 12.08 12.34 12.34 0 0 0 12.23 12.81 12.7 12.7 0 0 0 13.14-12.03zm67-12.87c-6.88.13-12.7 6-12.57 12.68a12.56 12.56 0 0 0 12.91 12.27c4.457-.06 8.544-2.5 10.72-6.38a12.48 12.48 0 0 0-11.051-18.57zm124.03 198.1c-8.83-3.93-16.93-9.83-25.56-10.73s-17.62 4.06-26.6 5c-27.38 2.8-51.9-4.83-72.14-23.54-38.47-35.58-33-90.14 11.54-119.3 39.56-25.92 97.57-17.28 125.46 18.68 24.34 31.38 21.48 73-8.23 99.4-8.6 7.63-11.7 13.9-6.18 24 1 1.8 1.13 4.15 1.72 6.5zm-100.5-97.34a10.39 10.39 0 1 0-8.945-15.616 10.39 10.39 0 0 0 8.946 15.615zm64.8-20.76a10.4 10.4 0 0 0-10.31 9.94 10.25 10.25 0 1 0 10.31-9.94z" fill="#fff"/></svg>