<svg xmlns="http://www.w3.org/2000/svg" width="960" height="960"><path fill="#fff" d="M680 580c-12-116-152-196-320-178-98 10-188 52-238 112-32 38-46 82-42 126 10 106 128 180 276 180 14 0 28 0 44-2 98-10 188-52 238-112 32-38 46-82 42-126z"/><path fill="#d32f2f" d="M396 778c-142 14-266-50-276-142s100-180 242-194c144-14 266 50 276 142 10 94-98 180-242 194m298-300c-12-4-20-6-14-22 14-34 16-64 0-86-28-40-106-38-194-2 0 0-28 12-20-10 14-44 12-80-10-100-48-48-176 2-286 110C88 450 40 536 40 610c0 144 184 230 366 230 236 0 394-136 394-244 0-66-56-102-106-118"/><path fill="#263238" d="M418 608c-6 10-18 16-28 12s-12-16-8-26c6-10 18-16 26-10 12 2 14 12 10 24m-66 48c-14 20-46 30-70 20s-30-34-16-52c14-20 44-28 68-20 26 8 34 32 18 52m58-152c-70-18-148 16-178 76-30 62-2 130 70 152 72 24 158-12 188-78 30-64-8-132-80-150"/><g fill="#f9a825"><path d="M878 400c-16.57 0-30 13.43-30 30s13.43 30 30 30 30-13.43 30-30-13.43-30-30-30z"/><path d="M906 440c-4 12-16 20-28 20-16 0-30-14-30-30 0-4 0-8 2-12 6-18 10-38 10-58 0-100-80-180-180-180-8 0-18 0-26 2h-4c-16 0-30-14-30-30s14-30 30-30c10-2 20-2 30-2 132 0 240 108 240 240 0 28-4 54-14 80zm-106-80c0-66-54-120-120-120h-16c-14 2-26 14-26 30s14 30 30 30h10c34 0 60 26 60 60 0 6-2 14-4 20-2 4-2 6-2 10 0 16 14 30 30 30 12 0 22-8 28-18v-2c0-2 0-2 2-4 6-12 8-24 8-36z"/></g></svg>