<svg xmlns="http://www.w3.org/2000/svg" width="1155" height="1155"><path fill="#fff" d="M0 0h1155v1155H0z"/><path d="M350 70h35v35h-35zm70 0h35v35h-35zm105 0h35v35h-35z"/><path d="M560 70h35v35h-35z"/><path d="M595 70h35v35h-35zm105 0h35v35h-35zm-350 35h35v35h-35zm70 0h35v35h-35zm70 0h35v35h-35z"/><path d="M525 105h35v35h-35z"/><path d="M560 105h35v35h-35z"/><path d="M595 105h35v35h-35zm105 0h35v35h-35z"/><path d="M735 105h35v35h-35zm-385 35h35v35h-35z"/><path d="M385 140h35v35h-35zm105 0h35v35h-35z"/><path d="M525 140h35v35h-35z"/><path d="M560 140h35v35h-35zm175 0h35v35h-35z"/><path d="M770 140h35v35h-35zm-385 35h35v35h-35z"/><path d="M420 175h35v35h-35zm70 0h35v35h-35zm70 0h35v35h-35z"/><path d="M595 175h35v35h-35z"/><path d="M630 175h35v35h-35z"/><path d="M665 175h35v35h-35zm-315 35h35v35h-35z"/><path d="M385 210h35v35h-35z"/><path d="M420 210h35v35h-35zm70 0h35v35h-35z"/><path d="M525 210h35v35h-35zm70 0h35v35h-35zm70 0h35v35h-35z"/><path d="M700 210h35v35h-35z"/><path d="M735 210h35v35h-35zm-315 35h35v35h-35zm105 0h35v35h-35z"/><path d="M560 245h35v35h-35zm105 0h35v35h-35zm105 0h35v35h-35zm-420 35h35v35h-35z"/><path d="M420 280h35v35h-35zm70 0h35v35h-35zm70 0h35v35h-35zm70 0h35v35h-35z"/><path d="M700 280h35v35h-35zm70 0h35v35h-35zm-315 35h35v35h-35zm105 0h35v35h-35z"/><path d="M700 315h35v35h-35zM70 350h35v35H70zm105 0h35v35h-35z"/><path d="M210 350h35v35h-35z"/><path d="M245 350h35v35h-35z"/><path d="M280 350h35v35h-35z"/><path d="M315 350h35v35h-35z"/><path d="M350 350h35v35h-35z"/><path d="M385 350h35v35h-35z"/><path d="M420 350h35v35h-35zm70 0h35v35h-35z"/><path d="M525 350h35v35h-35z"/><path d="M560 350h35v35h-35z"/><path d="M595 350h35v35h-35zm70 0h35v35h-35z"/><path d="M700 350h35v35h-35zm70 0h35v35h-35z"/><path d="M805 350h35v35h-35zm105 0h35v35h-35zm70 0h35v35h-35z"/><path d="M1015 350h35v35h-35z"/><path d="M1050 350h35v35h-35zm-945 35h35v35h-35z"/><path d="M140 385h35v35h-35z"/><path d="M175 385h35v35h-35zm245 0h35v35h-35z"/><path d="M455 385h35v35h-35z"/><path d="M490 385h35v35h-35zm70 0h35v35h-35z"/><path d="M595 385h35v35h-35z"/><path d="M630 385h35v35h-35z"/><path d="M665 385h35v35h-35zm70 0h35v35h-35z"/><path d="M770 385h35v35h-35z"/><path d="M805 385h35v35h-35zm70 0h35v35h-35z"/><path d="M910 385h35v35h-35zm70 0h35v35h-35zM70 420h35v35H70z"/><path d="M105 420h35v35h-35zm105 0h35v35h-35z"/><path d="M245 420h35v35h-35z"/><path d="M280 420h35v35h-35zm70 0h35v35h-35z"/><path d="M385 420h35v35h-35z"/><path d="M420 420h35v35h-35zm70 0h35v35h-35zm70 0h35v35h-35z"/><path d="M595 420h35v35h-35zm70 0h35v35h-35zm280 0h35v35h-35z"/><path d="M980 420h35v35h-35zm-805 35h35v35h-35z"/><path d="M210 455h35v35h-35zm105 0h35v35h-35zm70 0h35v35h-35z"/><path d="M420 455h35v35h-35zm70 0h35v35h-35zm70 0h35v35h-35zm70 0h35v35h-35z"/><path d="M665 455h35v35h-35zm70 0h35v35h-35z"/><path d="M770 455h35v35h-35z"/><path d="M805 455h35v35h-35z"/><path d="M840 455h35v35h-35zm105 0h35v35h-35zm-840 35h35v35h-35z"/><path d="M140 490h35v35h-35z"/><path d="M175 490h35v35h-35z"/><path d="M210 490h35v35h-35zm70 0h35v35h-35z"/><path d="M315 490h35v35h-35z"/><path d="M350 490h35v35h-35z"/><path d="M385 490h35v35h-35z"/><path d="M420 490h35v35h-35z"/><path d="M455 490h35v35h-35zm70 0h35v35h-35z"/><path d="M560 490h35v35h-35zm140 0h35v35h-35zm70 0h35v35h-35zm70 0h35v35h-35z"/><path d="M875 490h35v35h-35zm-735 35h35v35h-35zm70 0h35v35h-35zm140 0h35v35h-35zm245 0h35v35h-35zm210 0h35v35h-35z"/><path d="M840 525h35v35h-35zm70 0h35v35h-35zm70 0h35v35h-35zm70 0h35v35h-35zM70 560h35v35H70zm140 0h35v35h-35z"/><path d="M245 560h35v35h-35z"/><path d="M280 560h35v35h-35zm105 0h35v35h-35z"/><path d="M420 560h35v35h-35zm140 0h35v35h-35z"/><path d="M595 560h35v35h-35z"/><path d="M630 560h35v35h-35z"/><path d="M665 560h35v35h-35zm70 0h35v35h-35zm70 0h35v35h-35z"/><path d="M840 560h35v35h-35z"/><path d="M875 560h35v35h-35zm105 0h35v35h-35zm70 0h35v35h-35zM70 595h35v35H70z"/><path d="M105 595h35v35h-35zm210 0h35v35h-35zm70 0h35v35h-35z"/><path d="M420 595h35v35h-35z"/><path d="M455 595h35v35h-35z"/><path d="M490 595h35v35h-35z"/><path d="M525 595h35v35h-35z"/><path d="M560 595h35v35h-35zm175 0h35v35h-35zm70 0h35v35h-35zm70 0h35v35h-35zm70 0h35v35h-35z"/><path d="M980 595h35v35h-35z"/><path d="M1015 595h35v35h-35z"/><path d="M1050 595h35v35h-35zm-945 35h35v35h-35z"/><path d="M140 630h35v35h-35zm105 0h35v35h-35z"/><path d="M280 630h35v35h-35z"/><path d="M315 630h35v35h-35z"/><path d="M350 630h35v35h-35z"/><path d="M385 630h35v35h-35z"/><path d="M420 630h35v35h-35zm70 0h35v35h-35zm105 0h35v35h-35z"/><path d="M630 630h35v35h-35zm70 0h35v35h-35zm70 0h35v35h-35zm105 0h35v35h-35zm140 0h35v35h-35z"/><path d="M1050 630h35v35h-35zM70 665h35v35H70z"/><path d="M105 665h35v35h-35z"/><path d="M140 665h35v35h-35zm210 0h35v35h-35z"/><path d="M385 665h35v35h-35zm70 0h35v35h-35zm140 0h35v35h-35z"/><path d="M630 665h35v35h-35z"/><path d="M665 665h35v35h-35zm70 0h35v35h-35z"/><path d="M770 665h35v35h-35zm105 0h35v35h-35z"/><path d="M910 665h35v35h-35z"/><path d="M945 665h35v35h-35zM70 700h35v35H70z"/><path d="M105 700h35v35h-35zm140 0h35v35h-35z"/><path d="M280 700h35v35h-35z"/><path d="M315 700h35v35h-35z"/><path d="M350 700h35v35h-35z"/><path d="M385 700h35v35h-35zm140 0h35v35h-35z"/><path d="M560 700h35v35h-35z"/><path d="M595 700h35v35h-35zm105 0h35v35h-35z"/><path d="M735 700h35v35h-35z"/><path d="M770 700h35v35h-35zm70 0h35v35h-35z"/><path d="M875 700h35v35h-35zm105 0h35v35h-35zm70 0h35v35h-35zM70 735h35v35H70z"/><path d="M105 735h35v35h-35z"/><path d="M140 735h35v35h-35zm70 0h35v35h-35zm140 0h35v35h-35zm70 0h35v35h-35z"/><path d="M455 735h35v35h-35z"/><path d="M490 735h35v35h-35z"/><path d="M525 735h35v35h-35zm70 0h35v35h-35z"/><path d="M630 735h35v35h-35zm175 0h35v35h-35zm175 0h35v35h-35z"/><path d="M1015 735h35v35h-35z"/><path d="M1050 735h35v35h-35zM70 770h35v35H70z"/><path d="M105 770h35v35h-35zm175 0h35v35h-35z"/><path d="M315 770h35v35h-35zm70 0h35v35h-35zm70 0h35v35h-35zm70 0h35v35h-35zm70 0h35v35h-35zm70 0h35v35h-35z"/><path d="M700 770h35v35h-35zm70 0h35v35h-35z"/><path d="M805 770h35v35h-35z"/><path d="M840 770h35v35h-35z"/><path d="M875 770h35v35h-35z"/><path d="M910 770h35v35h-35z"/><path d="M945 770h35v35h-35z"/><path d="M980 770h35v35h-35z"/><path d="M1015 770h35v35h-35z"/><path d="M1050 770h35v35h-35zm-700 35h35v35h-35z"/><path d="M385 805h35v35h-35z"/><path d="M420 805h35v35h-35z"/><path d="M455 805h35v35h-35zm70 0h35v35h-35zm70 0h35v35h-35z"/><path d="M630 805h35v35h-35zm140 0h35v35h-35zm140 0h35v35h-35zm105 0h35v35h-35zm-665 35h35v35h-35z"/><path d="M385 840h35v35h-35zm70 0h35v35h-35z"/><path d="M490 840h35v35h-35z"/><path d="M525 840h35v35h-35zm70 0h35v35h-35z"/><path d="M630 840h35v35h-35z"/><path d="M665 840h35v35h-35z"/><path d="M700 840h35v35h-35z"/><path d="M735 840h35v35h-35z"/><path d="M770 840h35v35h-35zm70 0h35v35h-35zm70 0h35v35h-35z"/><path d="M945 840h35v35h-35z"/><path d="M980 840h35v35h-35zm-630 35h35v35h-35z"/><path d="M385 875h35v35h-35z"/><path d="M420 875h35v35h-35zm70 0h35v35h-35z"/><path d="M525 875h35v35h-35zm105 0h35v35h-35z"/><path d="M665 875h35v35h-35z"/><path d="M700 875h35v35h-35z"/><path d="M735 875h35v35h-35z"/><path d="M770 875h35v35h-35zm140 0h35v35h-35z"/><path d="M945 875h35v35h-35zm70 0h35v35h-35zm-665 35h35v35h-35z"/><path d="M385 910h35v35h-35zm105 0h35v35h-35z"/><path d="M525 910h35v35h-35zm175 0h35v35h-35z"/><path d="M735 910h35v35h-35z"/><path d="M770 910h35v35h-35z"/><path d="M805 910h35v35h-35z"/><path d="M840 910h35v35h-35z"/><path d="M875 910h35v35h-35z"/><path d="M910 910h35v35h-35z"/><path d="M945 910h35v35h-35zm70 0h35v35h-35z"/><path d="M1050 910h35v35h-35zm-700 35h35v35h-35zm70 0h35v35h-35z"/><path d="M455 945h35v35h-35z"/><path d="M490 945h35v35h-35z"/><path d="M525 945h35v35h-35z"/><path d="M560 945h35v35h-35z"/><path d="M595 945h35v35h-35zm175 0h35v35h-35z"/><path d="M805 945h35v35h-35zm70 0h35v35h-35zm70 0h35v35h-35z"/><path d="M980 945h35v35h-35zm70 0h35v35h-35zm-630 35h35v35h-35zm70 0h35v35h-35zm70 0h35v35h-35z"/><path d="M595 980h35v35h-35z"/><path d="M630 980h35v35h-35zm105 0h35v35h-35z"/><path d="M770 980h35v35h-35zm140 0h35v35h-35z"/><path d="M945 980h35v35h-35z"/><path d="M980 980h35v35h-35z"/><path d="M1015 980h35v35h-35z"/><path d="M1050 980h35v35h-35zm-665 35h35v35h-35z"/><path d="M420 1015h35v35h-35zm70 0h35v35h-35z"/><path d="M525 1015h35v35h-35zm70 0h35v35h-35z"/><path d="M630 1015h35v35h-35zm70 0h35v35h-35zm140 0h35v35h-35z"/><path d="M875 1015h35v35h-35zm70 0h35v35h-35z"/><path d="M980 1015h35v35h-35zm70 0h35v35h-35zm-700 35h35v35h-35z"/><path d="M385 1050h35v35h-35z"/><path d="M420 1050h35v35h-35zm105 0h35v35h-35zm70 0h35v35h-35z"/><path d="M630 1050h35v35h-35zm70 0h35v35h-35z"/><path d="M735 1050h35v35h-35z"/><path d="M770 1050h35v35h-35z"/><path d="M805 1050h35v35h-35z"/><path d="M840 1050h35v35h-35zM278.25 70H70v245h245V70h-36.75zm0 208.25h-171.5v-171.5h171.5v171.5zm770-208.25H840v245h245V70h-36.75zm0 208.25h-171.5v-171.5h171.5v171.5zM278.25 840H70v245h245V840h-36.75zm0 208.25h-171.5v-171.5h171.5v171.5zM140 140h105v105H140zm770 0h105v105H910zM140 910h105v105H140z"/></svg>