<svg xmlns="http://www.w3.org/2000/svg" viewBox="0 0 508.33 508.36"><path d="M483.17 27.9c11.45 15.13 16.6 40.2 19.15 70.7 3.36 45.5 4.7 100.1 6 156.52-1.67 57.47-2.35 115.43-6 156.52-2.88 31.54-9 52.66-19.22 65.47-13 12.8-37.94 23.6-73.5 26.15-43.25 3.7-96.6 3.65-155.48 5.1-65.44-1.12-109.82-.64-156.38-5.08-36.32-2.52-60.08-13.2-74.7-26.07-10.83-14.54-14-30-17-66.24-3.75-41.85-4.58-98.56-6-155.54 2.13-56.68 2.26-113.8 6.03-156.5 2.53-33.7 6.52-56.34 16.75-70.74 14.35-12.23 38.83-18.3 75.35-21.3 50-5.85 102.06-7 155.88-6.87 55.4.1 108.56 1.67 156 6.34 32 2.56 58.48 8.07 73.07 21.56z" fill="#25d366" fill-rule="evenodd"/><path d="M353.02 140.86a147.79 147.79 0 0 0-105.23-43.63c-82 0-148.73 66.73-148.76 148.75a148.48 148.48 0 0 0 19.86 74.37l-21.1 77.1 78.86-20.7a148.63 148.63 0 0 0 71.09 18.11h.06c82 0 148.72-66.74 148.76-148.76a147.86 147.86 0 0 0-43.54-105.24zM247.8 369.73h-.05a123.46 123.46 0 0 1-62.93-17.23l-4.5-2.68-46.8 12.28 12.5-45.63-2.94-4.68c-27.953-44.507-24.718-101.82 8.064-142.9s87.95-56.95 137.55-39.57 82.795 64.214 82.766 116.77c-.02 68.18-55.5 123.64-123.64 123.64zm67.82-92.55c-3.72-1.86-22-10.85-25.4-12.1s-5.9-1.86-8.36 1.86-9.6 12.1-11.77 14.57-4.34 2.8-8.05.93-15.7-5.78-29.9-18.45c-11.05-9.86-18.5-22-20.68-25.75s-.23-5.73 1.63-7.6c1.67-1.67 3.72-4.34 5.58-6.5a25.38 25.38 0 0 0 3.72-6.2 6.84 6.84 0 0 0-.31-6.51c-.93-1.86-8.36-20.16-11.46-27.6-3-7.25-6.08-6.26-8.36-6.38s-4.65-.13-7.12-.13a13.66 13.66 0 0 0-9.91 4.65c-3.4 3.72-13 12.7-13 31s13.32 36 15.18 38.45 26.2 40 63.5 56.12a213.41 213.41 0 0 0 21.19 7.83 50.94 50.94 0 0 0 23.41 1.47c7.14-1.07 22-9 25.1-17.67s3.1-16.13 2.17-17.68-3.45-2.5-7.16-4.32z" fill="#fff"/></svg>