<svg xmlns="http://www.w3.org/2000/svg" viewBox="129.2 0 70.8 50" fill="#cd201f"><path opacity=".12" d="m157.3 14.3l16.8 11.2 2.4-1.2-19.2-10z"/><path d="M199.3 10.8s-.7-4.9-2.8-7c-2.7-2.8-5.7-2.8-7.1-3-9.9-.7-24.8-.7-24.8-.7s-14.9 0-24.8.7c-1.4.2-4.4.2-7.1 3-2.1 2.1-2.8 7-2.8 7s-.7 5.7-.7 11.5v5.4c0 5.7.7 11.5.7 11.5s.7 4.9 2.8 7c2.7 2.8 6.2 2.7 7.8 3 5.7.5 24.1.7 24.1.7s14.9 0 24.8-.7c1.4-.2 4.4-.2 7.1-3 2.1-2.1 2.8-7 2.8-7s.7-5.7.7-11.5v-5.4c.1-5.7-.7-11.5-.7-11.5zm-42 23.4V14.3l19.1 10-19.1 9.9z"/></svg>