<?xml version="1.0" ?><svg id="Layer_1" viewBox="0 0 508.33 508.36" xmlns="http://www.w3.org/2000/svg"><defs><style>.cls-1{fill:#fff;fill-rule:evenodd;}.cls-2{fill:#e65a4d;}.cls-3{fill:#f6f4ec;}.cls-4{fill:#e6e3d6;}.cls-5{fill:#b6b5ac;}.cls-6{fill:#b1392f;}.cls-7{fill:#bebdb3;}.cls-8{fill:#c7c5bb;}.cls-9{fill:#c4c2b8;}.cls-10{fill:#c2c0b6;}</style></defs><title/><path class="cls-1" d="M485,29.72c11.45,15.13,16.61,40.21,19.15,70.7,3.36,45.5,4.71,100.1,6,156.52-1.67,57.47-2.35,115.43-6,156.52-2.88,31.54-9,52.66-19.22,65.47-13,12.79-37.94,23.59-73.5,26.15-43.25,3.69-96.61,3.65-155.48,5.1-65.44-1.12-109.82-.64-156.38-5.08-36.32-2.52-60.08-13.19-74.7-26.07-10.83-14.54-14-30-17-66.24-3.75-41.85-4.58-98.56-6-155.54C4,200.57,4.13,143.44,7.9,100.74,10.43,67.05,14.42,44.4,24.65,30,39,17.77,63.48,11.69,100,8.69c50-5.85,102.06-7,155.88-6.87,55.39.09,108.56,1.67,156,6.34,32,2.56,58.48,8.07,73.07,21.56Z" transform="translate(-1.83 -1.82)"/><path class="cls-2" d="M373.78,141.28c2.73-1.64,5.52-.73,8.19,0a24.56,24.56,0,0,1,17.9,23.24c.06,2.73-.06,5.46-.06,8.13a3.24,3.24,0,0,0-1.88.91c-7.65,5.46-15.41,10.92-23,16.45-3.09,2.25-6.49,4-9.1,6.86a4.8,4.8,0,0,0-2.67,1.27q-37.87,26.13-75.68,52.19c-12.5,8.62-25,17.36-37.5,26h-1c-.55-.42-1-1-1.58-1.34l-92.3-64.27c-6.31-4.37-12.62-8.8-18.93-13.17-.73-.49-1.4-1.52-2.31-1s-.3,1.64-.42,2.55a4.56,4.56,0,0,0,0,.91v152c0,1.09.06,2.25.12,3.34,0,.61-.06,1.15-.06,1.76-11.53,1.4-22-.18-29.25-10.62a22.35,22.35,0,0,1-4.13-12.8q0-84.93.06-169.8c0-11.53,9.35-21.73,20.82-23.36,1.82-.24,3.64-.49,5.22.73a8.79,8.79,0,0,0,1.09,1q60.17,44.6,120.34,89.27c1.58,1.15,2.61,1.09,4.19-.06q48.06-35.5,96.19-70.88Q360.74,151,373.78,141.28Z" transform="translate(-1.83 -1.82)"/><path class="cls-3" d="M373.78,141.28c-8.68,6.43-17.3,12.93-26,19.36q-48.06,35.5-96.19,70.88c-1.58,1.15-2.55,1.21-4.19.06q-60.08-44.7-120.28-89.27a8.79,8.79,0,0,1-1.09-1c.73-1.21,2-.79,3-.79H370.75C371.78,140.49,373,140.07,373.78,141.28Z" transform="translate(-1.83 -1.82)"/><path class="cls-4" d="M133.41,355.32c-.06-1.09-.12-2.25-.12-3.34V200a4.56,4.56,0,0,1,0-.91c.12-.85-.42-2,.42-2.55s1.64.49,2.31,1c6.31,4.37,12.62,8.8,18.93,13.17l92.3,64.27c.55.42,1.09.91,1.58,1.34-.24.24-.55.42-.79.67l-.61.61a1.23,1.23,0,0,0-1.21.61l-.61.61c-.06.12-.18.18-.24.3.12-.06.18-.18.3-.24l.61-.61a1.23,1.23,0,0,0,1.21-.61l.61-.61c.61,0,1.21-.06,1.82-.06,8.44,5.89,16.93,11.71,25.37,17.6,25.12,17.42,50.25,34.77,75.31,52.31,4.49,3.16,9.41,5.89,13.41,9.71-1.09,1-2.43.36-3.64.55.06-1.4-1.15-1.76-2.06-2.37-4.61-3.22-9.35-6.31-13.84-9.65-7.53-5.52-15.17-10.8-22.82-16.14-6.37-4.43-12.68-9-19.24-13.23-5.7-3.64-11-8-16.69-11.71-6.43-4.13-12.5-8.74-18.87-12.93-5.28-3.46-10.44-7.16-15.6-10.8-1-.73-1.94-1-3-.3-2.18,1.58-5,2.61-6.8,4.31-5.22,4.79-11.59,7.89-17.05,12.26-7,5.52-14.5,10.44-22,15.35-12.38,8.19-24.4,17.05-36.71,25.31-7.34,4.92-14.63,9.89-21.66,15.29-1.94,1.46-4.55,2.12-5.77,4.55-1.21-.12-2.55.36-3.7-.42q32.59-22.76,65.12-45.45c2.85-2,6.07-3.58,8.44-6.25.42-.12,1-.18.91-.79a.27.27,0,0,0-.18-.18c-.61-.06-.73.42-.85.85-2.18.12-3.52,1.82-5.16,2.91Q168.15,331.62,133.41,355.32Zm104.38-71,.61-.61a1.23,1.23,0,0,0,1.21-.61l.61-.61a1.23,1.23,0,0,0,1.21-.61c.06-.12.18-.18.24-.3-.12.06-.18.18-.3.24a1.23,1.23,0,0,0-1.21.61l-.61.61a1.23,1.23,0,0,0-1.21.61c-.18.24-.36.42-.55.67a.61.61,0,0,0-.3.24A.61.61,0,0,0,237.79,284.32Zm-7.89,5.4a1.23,1.23,0,0,0-1.21.61c-.36.06-.85.06-.91.61a.55.55,0,0,0,.36.36c.49-.06.55-.49.61-.85.49-.06.91-.12,1.15-.73a2.92,2.92,0,0,0,.67-.55,1.23,1.23,0,0,0,1.21-.61l.61-.61a1.23,1.23,0,0,0,1.21-.61c.06-.12.18-.18.24-.3-.12.06-.18.18-.3.24a1.23,1.23,0,0,0-1.21.61l-.61.61a1.23,1.23,0,0,0-1.21.61ZM222,295.24a1.23,1.23,0,0,0-1.21.61c-.49.06-1,.12-.91.79a.27.27,0,0,0,.18.18c.67.06.73-.42.79-.91a1.3,1.3,0,0,0,1.15-.67,5.28,5.28,0,0,0,.67-.55,1.23,1.23,0,0,0,1.21-.61l.61-.61a1.23,1.23,0,0,0,1.21-.61c.06-.12.18-.18.24-.3-.12.06-.18.18-.3.24a1.23,1.23,0,0,0-1.21.61l-.61.61a1.23,1.23,0,0,0-1.21.61A2.88,2.88,0,0,0,222,295.24Zm-6.07,4.31c.49-.06,1-.12.91-.79a.27.27,0,0,0-.18-.18c-.67-.06-.73.42-.79.91a1.29,1.29,0,0,0-1.21.61,2.09,2.09,0,0,0-1.82,1.21c-.42.12-1,.12-.91.79a.27.27,0,0,0,.18.18c.61.06.73-.42.79-.91.85,0,1.7-.06,1.82-1.21A1.41,1.41,0,0,0,215.94,299.55Zm19.9-14.38a3.6,3.6,0,0,1-.24.49c.18.06.36.24.49.18s.18-.3.24-.49A4.18,4.18,0,0,1,235.84,285.17Zm-17.05,12.56c-.06-.18-.12-.42-.24-.42a.5.5,0,0,0-.49.18.32.32,0,0,0,.24.55C218.49,298,218.61,297.85,218.79,297.73ZM244,280.43a1.22,1.22,0,0,1,.24-.49c-.18-.06-.36-.24-.49-.18s-.18.3-.24.49A4.18,4.18,0,0,0,244,280.43Zm-33.13,22.7a4.14,4.14,0,0,0-.3-.42c-.12,0-.42.12-.42.24-.12.3.06.55.36.49C210.66,303.43,210.78,303.25,210.9,303.13Z" transform="translate(-1.83 -1.82)"/><path class="cls-5" d="M364,356.6c-4-3.88-8.86-6.55-13.41-9.71Q313,320.67,275.29,294.57c-8.44-5.89-16.93-11.71-25.37-17.6,0-.18-.06-.42-.06-.61l37.5-26q37.87-26.13,75.68-52.19a4.8,4.8,0,0,1,2.67-1.27V357.14C365.23,357,364.62,356.78,364,356.6Z" transform="translate(-1.83 -1.82)"/><path class="cls-4" d="M138.26,357.14c1.15-2.43,3.82-3.09,5.77-4.55,7-5.34,14.32-10.38,21.66-15.29C178,329,190,320.18,202.41,312c7.46-4.92,15-9.83,22-15.35,5.52-4.37,11.83-7.46,17.05-12.26,1.88-1.7,4.61-2.73,6.8-4.31,1-.79,1.94-.49,3,.3,5.16,3.64,10.32,7.34,15.6,10.8,6.37,4.19,12.44,8.86,18.87,12.93,5.7,3.64,11,8,16.69,11.71,6.55,4.19,12.87,8.8,19.24,13.23,7.65,5.34,15.35,10.62,22.82,16.14,4.55,3.34,9.22,6.43,13.84,9.65.85.61,2.12,1,2.06,2.37Q249.32,357.11,138.26,357.14Z" transform="translate(-1.83 -1.82)"/><path class="cls-6" d="M365.83,357.14V196.87c2.61-2.85,6-4.61,9.1-6.86,7.65-5.58,15.35-11,23-16.45a3.07,3.07,0,0,1,1.88-.91c.06,1,.12,2,.12,3q0,77.47.06,155a44.46,44.46,0,0,1-1,10.56,17.45,17.45,0,0,1-11.71,13.23A55,55,0,0,1,365.83,357.14Z" transform="translate(-1.83 -1.82)"/><path class="cls-7" d="M208.11,305c-2.37,2.67-5.58,4.25-8.44,6.25q-32.5,22.76-65.12,45.45l-1.21.36c0-.61.06-1.15.06-1.76q34.77-23.76,69.49-47.52c1.64-1.09,2.91-2.85,5.16-2.91Z" transform="translate(-1.83 -1.82)"/><path class="cls-8" d="M249.92,276.37a2.06,2.06,0,0,0,.06.61c-.61,0-1.21.06-1.82.06h0c.24-.24.55-.42.79-.67Z" transform="translate(-1.83 -1.82)"/><path class="cls-7" d="M212.84,301.25a2.09,2.09,0,0,1,1.82-1.21l.06.06c-.12,1.15-1,1.21-1.82,1.21Z" transform="translate(-1.83 -1.82)"/><path class="cls-9" d="M235.84,285.17a4.18,4.18,0,0,1,.49.18c-.06.18-.12.42-.24.49s-.3-.12-.49-.18A3.58,3.58,0,0,1,235.84,285.17Z" transform="translate(-1.83 -1.82)"/><path class="cls-7" d="M215.88,299.43c.06-.49.18-.91.79-.91a.27.27,0,0,1,.18.18c0,.67-.49.67-.91.79C215.94,299.55,215.88,299.43,215.88,299.43Z" transform="translate(-1.83 -1.82)"/><path class="cls-7" d="M218.79,297.73c-.12.12-.3.3-.42.24a.32.32,0,0,1-.24-.55c.06-.12.36-.18.49-.18S218.67,297.61,218.79,297.73Z" transform="translate(-1.83 -1.82)"/><path class="cls-8" d="M244,280.43a1.22,1.22,0,0,1-.49-.24c.06-.18.12-.42.24-.49s.3.12.49.18A2.16,2.16,0,0,0,244,280.43Z" transform="translate(-1.83 -1.82)"/><path class="cls-7" d="M220.86,295.91c-.06.49-.18.91-.79.91a.27.27,0,0,1-.18-.18c0-.67.49-.67.91-.79Z" transform="translate(-1.83 -1.82)"/><path class="cls-10" d="M228.74,290.45c-.06.42-.12.79-.61.85a.55.55,0,0,1-.36-.36c.06-.49.49-.55.91-.61A.21.21,0,0,0,228.74,290.45Z" transform="translate(-1.83 -1.82)"/><path class="cls-7" d="M213,301.37c-.12.49-.18.91-.79.91a.27.27,0,0,1-.18-.18c-.06-.67.49-.67.91-.79Z" transform="translate(-1.83 -1.82)"/><path class="cls-7" d="M210.9,303.13c-.12.12-.24.3-.36.3-.36.06-.49-.18-.36-.49a.61.61,0,0,1,.42-.24C210.66,302.77,210.78,303,210.9,303.13Z" transform="translate(-1.83 -1.82)"/><path class="cls-7" d="M208,304.89c.12-.49.18-.91.85-.85a.27.27,0,0,1,.18.18c.06.67-.49.67-.91.79Z" transform="translate(-1.83 -1.82)"/><path class="cls-9" d="M239.61,283.11a1.23,1.23,0,0,1-1.21.61l-.06-.06a1.41,1.41,0,0,1,1.27-.55Z" transform="translate(-1.83 -1.82)"/><path class="cls-7" d="M214.73,300a1.23,1.23,0,0,1,1.21-.61l.06.06a1.23,1.23,0,0,1-1.21.61C214.79,300.16,214.73,300,214.73,300Z" transform="translate(-1.83 -1.82)"/><path class="cls-10" d="M232.32,288a1.23,1.23,0,0,1,1.21-.61l.06.06a1.41,1.41,0,0,1-1.27.55Z" transform="translate(-1.83 -1.82)"/><path class="cls-10" d="M231.72,288.57a1.23,1.23,0,0,1-1.21.61h0a1.18,1.18,0,0,1,1.21-.61Z" transform="translate(-1.83 -1.82)"/><path class="cls-7" d="M224.44,293.42a1.23,1.23,0,0,1,1.21-.61l.06.06a1.41,1.41,0,0,1-1.27.55Z" transform="translate(-1.83 -1.82)"/><path class="cls-7" d="M223.83,294a1.23,1.23,0,0,1-1.21.61h0c.24-.55.67-.61,1.21-.61Z" transform="translate(-1.83 -1.82)"/><path class="cls-7" d="M222,295.24a1.23,1.23,0,0,1-1.21.61l-.06-.06a1.41,1.41,0,0,1,1.27-.55Z" transform="translate(-1.83 -1.82)"/><path class="cls-8" d="M247.5,277.64a1.23,1.23,0,0,1-1.21.61l-.06-.06a1.41,1.41,0,0,1,1.27-.55Z" transform="translate(-1.83 -1.82)"/><path class="cls-9" d="M240.21,282.5a1.23,1.23,0,0,1,1.21-.61h0a1.18,1.18,0,0,1-1.21.61Z" transform="translate(-1.83 -1.82)"/><path class="cls-10" d="M229.9,289.78a1.23,1.23,0,0,1-1.21.61l-.06-.06a1.41,1.41,0,0,1,1.27-.55Z" transform="translate(-1.83 -1.82)"/><path class="cls-7" d="M223.83,294l.61-.61.06.06c-.24.18-.42.36-.67.55Z" transform="translate(-1.83 -1.82)"/><path class="cls-10" d="M230.5,289.17l-.61.61-.06-.06c.24-.18.42-.36.67-.55Z" transform="translate(-1.83 -1.82)"/><path class="cls-9" d="M237.79,284.32l.61-.61.06.06c-.24.18-.42.36-.67.55Z" transform="translate(-1.83 -1.82)"/><path class="cls-10" d="M233.54,287.35c.12-.06.18-.18.3-.24-.12.06-.18.18-.3.24Z" transform="translate(-1.83 -1.82)"/><path class="cls-9" d="M241.43,281.89c.12-.06.18-.18.3-.24-.12.06-.18.18-.3.24Z" transform="translate(-1.83 -1.82)"/><path class="cls-8" d="M245.68,278.86c-.12.06-.18.18-.3.24.12-.06.18-.18.3-.24Z" transform="translate(-1.83 -1.82)"/><path class="cls-8" d="M245.68,278.86l.61-.61.06.06c-.24.18-.42.36-.67.55Z" transform="translate(-1.83 -1.82)"/><path class="cls-9" d="M239.61,283.11l.61-.61.06.06c-.24.18-.42.36-.67.55Z" transform="translate(-1.83 -1.82)"/><path class="cls-8" d="M248.1,277l-.61.61-.06-.06c.24-.18.42-.36.67-.55Z" transform="translate(-1.83 -1.82)"/><path class="cls-9" d="M237.79,284.32c-.12.06-.18.18-.3.24.12-.06.18-.18.3-.24Z" transform="translate(-1.83 -1.82)"/><path class="cls-7" d="M225.65,292.81c.12-.06.18-.18.3-.24-.12.06-.18.18-.3.24Z" transform="translate(-1.83 -1.82)"/><path class="cls-10" d="M232.32,288l-.61.61-.06-.06c.24-.18.42-.36.67-.55Z" transform="translate(-1.83 -1.82)"/><path class="cls-7" d="M222.62,294.64l-.61.61-.06-.06c.24-.18.42-.36.67-.55Z" transform="translate(-1.83 -1.82)"/></svg>