<?xml version="1.0" ?><svg id="Layer_1" viewBox="0 0 508.33 508.36" xmlns="http://www.w3.org/2000/svg"><defs><style>.cls-1{fill:#25d366;fill-rule:evenodd;}.cls-2{fill:#fff;}</style></defs><title/><path class="cls-1" d="M485,29.72c11.45,15.13,16.61,40.21,19.15,70.7,3.36,45.5,4.71,100.1,6,156.52-1.67,57.47-2.35,115.43-6,156.52-2.88,31.54-9,52.66-19.22,65.47-13,12.79-37.94,23.59-73.5,26.15-43.25,3.69-96.61,3.65-155.48,5.1-65.44-1.12-109.82-.64-156.38-5.08-36.32-2.52-60.08-13.19-74.7-26.07-10.83-14.54-14-30-17-66.24-3.75-41.85-4.58-98.56-6-155.54C4,200.57,4.13,143.44,7.9,100.74,10.43,67.05,14.42,44.4,24.65,30,39,17.77,63.48,11.69,100,8.69c50-5.85,102.06-7,155.88-6.87,55.39.09,108.56,1.67,156,6.34,32,2.56,58.48,8.07,73.07,21.56Z" transform="translate(-1.83 -1.82)"/><path class="cls-2" d="M354.85,142.68A147.79,147.79,0,0,0,249.62,99.05c-82,0-148.73,66.73-148.76,148.75a148.48,148.48,0,0,0,19.86,74.37l-21.1,77.09,78.86-20.69a148.63,148.63,0,0,0,71.09,18.11h.06c82,0,148.72-66.74,148.76-148.76A147.86,147.86,0,0,0,354.85,142.68ZM249.62,371.55h-.05a123.46,123.46,0,0,1-62.93-17.23l-4.51-2.68-46.8,12.28,12.49-45.63-2.94-4.68a123.66,123.66,0,1,1,228.38-65.7C373.24,316.09,317.77,371.55,249.62,371.55Z" transform="translate(-1.83 -1.82)"/><path class="cls-2" d="M317.45,279c-3.72-1.86-22-10.85-25.4-12.09s-5.89-1.86-8.36,1.86-9.6,12.09-11.77,14.57-4.34,2.79-8.05.93-15.69-5.78-29.89-18.45c-11.05-9.86-18.51-22-20.68-25.75s-.23-5.73,1.63-7.59c1.67-1.67,3.72-4.34,5.58-6.51a25.38,25.38,0,0,0,3.72-6.2,6.84,6.84,0,0,0-.31-6.51c-.93-1.86-8.36-20.16-11.46-27.6-3-7.25-6.08-6.26-8.36-6.38s-4.65-.13-7.12-.13a13.66,13.66,0,0,0-9.91,4.65c-3.41,3.72-13,12.71-13,31s13.32,36,15.18,38.45,26.21,40,63.5,56.12a213.41,213.41,0,0,0,21.19,7.83,50.94,50.94,0,0,0,23.41,1.47c7.14-1.07,22-9,25.09-17.67s3.1-16.13,2.17-17.68S321.16,280.81,317.45,279Z" transform="translate(-1.83 -1.82)"/></svg>