<?xml version="1.0" encoding="UTF-8" standalone="no"?>
<!-- Generator: Adobe Illustrator 18.1.1, SVG Export Plug-In . SVG Version: 6.00 Build 0)  -->
<!DOCTYPE svg  PUBLIC '-//W3C//DTD SVG 1.1//EN'  'http://www.w3.org/Graphics/SVG/1.1/DTD/svg11.dtd'>
<svg id="YouTube_Icon" xmlns="http://www.w3.org/2000/svg" xml:space="preserve" viewBox="129.2 0 70.8 50" version="1.1" y="0px" x="0px" xmlns:xlink="http://www.w3.org/1999/xlink" enable-background="new 129.2 0 70.8 50">
<path id="The_Sharpness" opacity=".12" d="m157.3 14.3l16.8 11.2 2.4-1.2-19.2-10z" enable-background="new    " fill="#CD201F"/>
<g id="Lozenge">
		<path d="m199.3 10.8s-0.7-4.9-2.8-7c-2.7-2.8-5.7-2.8-7.1-3-9.9-0.7-24.8-0.7-24.8-0.7s-14.9 0-24.8 0.7c-1.4 0.2-4.4 0.2-7.1 3-2.1 2.1-2.8 7-2.8 7s-0.7 5.7-0.7 11.5v5.4c0 5.7 0.7 11.5 0.7 11.5s0.7 4.9 2.8 7c2.7 2.8 6.2 2.7 7.8 3 5.7 0.5 24.1 0.7 24.1 0.7s14.9 0 24.8-0.7c1.4-0.2 4.4-0.2 7.1-3 2.1-2.1 2.8-7 2.8-7s0.7-5.7 0.7-11.5v-5.4c0.1-5.7-0.7-11.5-0.7-11.5zm-42 23.4v-19.9l19.1 10-19.1 9.9z" fill="#CD201F"/>
</g>
</svg>
