<svg version="1.1" id="Layer_1" xmlns="http://www.w3.org/2000/svg" xmlns:xlink="http://www.w3.org/1999/xlink" x="0px" y="0px"
width="2320px" height="2320px" viewBox="0 0 2320 2320" enable-background="new 0 0 2320 2320" xml:space="preserve">
<rect x="0" y="0" width="2320" height="2320" fill="rgb(255,255,255)" /><g transform="translate(160,160)"><g><defs>
    <radialGradient id="grad">
    <stop offset="5%" stop-color="rgb(255,0,0)" />
    <stop offset="95%" stop-color="rgb(23,161,216)" />
    </radialGradient>
<mask id="gmask"><g>
<g transform="translate(720,0) scale(0.8,0.8)"><g transform="" style="fill: rgb(255, 255, 255);">
<g>
	<path d="M95.338,83.975C120.428,37.136,29.47-30.196,4.645,16.13C-20.399,62.878,70.625,130.076,95.338,83.975"/>
</g>
</g></g><g transform="translate(960,0) scale(0.8,0.8)"><g transform="" style="fill: rgb(255, 255, 255);">
<g>
	<path d="M100,34.375V0H34.375C24.87,0,16.764,3.353,10.059,10.059S0,24.87,0,34.375V100h100V34.375z"/>
</g>
</g></g><g transform="translate(1040,0) scale(0.8,0.8)"><g transform="" style="fill: rgb(255, 255, 255);">
<rect width="100" height="100"/>
</g></g><g transform="translate(1120,0) scale(0.8,0.8)"><g transform="" style="fill: rgb(255, 255, 255);">
<path d="M26.574,99.999C14.89,99.999,0,100,0,100s0-34.008,0.001-49.953c-0.001-12.453,0-49.953,0-49.953h25.068
	c0,0,64.501-2.101,72.268,13.486C109.354,37.695,54.264,99.999,26.574,99.999z"/>
</g></g><g transform="translate(640,80) scale(0.8,0.8)"><g transform="" style="fill: rgb(255, 255, 255);">
<path d="M99.999,73.426C99.999,85.11,100,100,100,100s-34.008,0-49.953-0.001c-12.452,0.001-49.952,0-49.952,0V74.931
	c0,0-2.101-65.501,13.486-73.267C37.695-10.353,99.999,45.737,99.999,73.426z"/>
</g></g><g transform="translate(880,80) scale(0.8,0.8)"><g transform="" style="fill: rgb(255, 255, 255);">
<g>
	<path d="M100,34.375V0H34.375C24.87,0,16.764,3.353,10.059,10.059S0,24.87,0,34.375V100h100V34.375z"/>
</g>
</g></g><g transform="translate(960,80) scale(0.8,0.8)"><g transform="" style="fill: rgb(255, 255, 255);">
<rect width="100" height="100"/>
</g></g><g transform="translate(1040,80) scale(0.8,0.8)"><g transform="" style="fill: rgb(255, 255, 255);">
<g>
	<path d="M100,0H0v100h65.625c9.506,0,17.611-3.354,24.316-10.059S100,75.131,100,65.625V0z"/>
</g>
</g></g><g transform="translate(640,160) scale(0.8,0.8)"><g transform="" style="fill: rgb(255, 255, 255);">
<rect width="100" height="100"/>
</g></g><g transform="translate(800,160) scale(0.8,0.8)"><g transform="" style="fill: rgb(255, 255, 255);">
<path d="M73.425,0.001C85.11,0.001,100,0,100,0s0,34.008-0.001,49.953c0.001,12.452,0,49.952,0,49.952H74.931
	c0,0-65.501,2.1-73.268-13.486C-10.352,62.305,45.736,0.001,73.425,0.001z"/>
</g></g><g transform="translate(880,160) scale(0.8,0.8)"><g transform="" style="fill: rgb(255, 255, 255);">
<rect width="100" height="100"/>
</g></g><g transform="translate(1120,160) scale(0.8,0.8)"><g transform="" style="fill: rgb(255, 255, 255);">
<g>
	<path d="M95.338,83.975C120.428,37.136,29.47-30.196,4.645,16.13C-20.399,62.878,70.625,130.076,95.338,83.975"/>
</g>
</g></g><g transform="translate(1280,160) scale(0.8,0.8)"><g transform="" style="fill: rgb(255, 255, 255);">
<path d="M99.999,73.426C99.999,85.11,100,100,100,100s-34.008,0-49.953-0.001c-12.452,0.001-49.952,0-49.952,0V74.931
	c0,0-2.101-65.501,13.486-73.267C37.695-10.353,99.999,45.737,99.999,73.426z"/>
</g></g><g transform="translate(640,240) scale(0.8,0.8)"><g transform="" style="fill: rgb(255, 255, 255);">
<g>
	<path d="M100,0H0v65.625c0,9.506,3.353,17.611,10.059,24.316S24.87,100,34.375,100H100V0z"/>
</g>
</g></g><g transform="translate(720,240) scale(0.8,0.8)"><g transform="" style="fill: rgb(255, 255, 255);">
<path d="M26.574,99.999C14.89,99.999,0,100,0,100s0-34.008,0.001-49.953c-0.001-12.453,0-49.953,0-49.953h25.068
	c0,0,64.501-2.101,72.268,13.486C109.354,37.695,54.264,99.999,26.574,99.999z"/>
</g></g><g transform="translate(880,240) scale(0.8,0.8)"><g transform="" style="fill: rgb(255, 255, 255);">
<g>
	<path d="M100,0H0v65.625c0,9.506,3.353,17.611,10.059,24.316S24.87,100,34.375,100H100V0z"/>
</g>
</g></g><g transform="translate(960,240) scale(0.8,0.8)"><g transform="" style="fill: rgb(255, 255, 255);">
<rect width="100" height="100"/>
</g></g><g transform="translate(1040,240) scale(0.8,0.8)"><g transform="" style="fill: rgb(255, 255, 255);">
<g>
	<path d="M100,34.375c0-9.505-3.354-17.611-10.059-24.316S75.131,0,65.625,0H0v100h100V34.375z"/>
</g>
</g></g><g transform="translate(1200,240) scale(0.8,0.8)"><g transform="" style="fill: rgb(255, 255, 255);">
<path d="M73.425,0.001C85.11,0.001,100,0,100,0s0,34.008-0.001,49.953c0.001,12.452,0,49.952,0,49.952H74.931
	c0,0-65.501,2.1-73.268-13.486C-10.352,62.305,45.736,0.001,73.425,0.001z"/>
</g></g><g transform="translate(1280,240) scale(0.8,0.8)"><g transform="" style="fill: rgb(255, 255, 255);">
<g>
	<path d="M100,0H0v100h65.625c9.506,0,17.611-3.354,24.316-10.059S100,75.131,100,65.625V0z"/>
</g>
</g></g><g transform="translate(800,320) scale(0.8,0.8)"><g transform="" style="fill: rgb(255, 255, 255);">
<g>
	<path d="M95.338,83.975C120.428,37.136,29.47-30.196,4.645,16.13C-20.399,62.878,70.625,130.076,95.338,83.975"/>
</g>
</g></g><g transform="translate(960,320) scale(0.8,0.8)"><g transform="" style="fill: rgb(255, 255, 255);">
<g>
	<path d="M100,0H0v65.625c0,9.506,3.353,17.611,10.059,24.316S24.87,100,34.375,100H100V0z"/>
</g>
</g></g><g transform="translate(1040,320) scale(0.8,0.8)"><g transform="" style="fill: rgb(255, 255, 255);">
<rect width="100" height="100"/>
</g></g><g transform="translate(880,400) scale(0.8,0.8)"><g transform="" style="fill: rgb(255, 255, 255);">
<g>
	<path d="M95.338,83.975C120.428,37.136,29.47-30.196,4.645,16.13C-20.399,62.878,70.625,130.076,95.338,83.975"/>
</g>
</g></g><g transform="translate(1040,400) scale(0.8,0.8)"><g transform="" style="fill: rgb(255, 255, 255);">
<g>
	<path d="M100,0H0v65.625c0,9.506,3.353,17.611,10.059,24.316S24.87,100,34.375,100H100V0z"/>
</g>
</g></g><g transform="translate(1120,400) scale(0.8,0.8)"><g transform="" style="fill: rgb(255, 255, 255);">
<g>
	<path d="M100,34.375c0-9.505-3.354-17.611-10.059-24.316S75.131,0,65.625,0H0v100h100V34.375z"/>
</g>
</g></g><g transform="translate(1280,400) scale(0.8,0.8)"><g transform="" style="fill: rgb(255, 255, 255);">
<path d="M99.999,73.426C99.999,85.11,100,100,100,100s-34.008,0-49.953-0.001c-12.452,0.001-49.952,0-49.952,0V74.931
	c0,0-2.101-65.501,13.486-73.267C37.695-10.353,99.999,45.737,99.999,73.426z"/>
</g></g><g transform="translate(640,480) scale(0.8,0.8)"><g transform="" style="fill: rgb(255, 255, 255);">
<path d="M99.999,73.426C99.999,85.11,100,100,100,100s-34.008,0-49.953-0.001c-12.452,0.001-49.952,0-49.952,0V74.931
	c0,0-2.101-65.501,13.486-73.267C37.695-10.353,99.999,45.737,99.999,73.426z"/>
</g></g><g transform="translate(800,480) scale(0.8,0.8)"><g transform="" style="fill: rgb(255, 255, 255);">
<g>
	<path d="M95.338,83.975C120.428,37.136,29.47-30.196,4.645,16.13C-20.399,62.878,70.625,130.076,95.338,83.975"/>
</g>
</g></g><g transform="translate(960,480) scale(0.8,0.8)"><g transform="" style="fill: rgb(255, 255, 255);">
<path d="M99.999,73.426C99.999,85.11,100,100,100,100s-34.008,0-49.953-0.001c-12.452,0.001-49.952,0-49.952,0V74.931
	c0,0-2.101-65.501,13.486-73.267C37.695-10.353,99.999,45.737,99.999,73.426z"/>
</g></g><g transform="translate(1120,480) scale(0.8,0.8)"><g transform="" style="fill: rgb(255, 255, 255);">
<rect width="100" height="100"/>
</g></g><g transform="translate(1280,480) scale(0.8,0.8)"><g transform="" style="fill: rgb(255, 255, 255);">
<rect width="100" height="100"/>
</g></g><g transform="translate(640,560) scale(0.8,0.8)"><g transform="" style="fill: rgb(255, 255, 255);">
<rect width="100" height="100"/>
</g></g><g transform="translate(720,560) scale(0.8,0.8)"><g transform="" style="fill: rgb(255, 255, 255);">
<g>
	<path d="M100,34.375c0-9.505-3.354-17.611-10.059-24.316S75.131,0,65.625,0H0v100h100V34.375z"/>
</g>
</g></g><g transform="translate(960,560) scale(0.8,0.8)"><g transform="" style="fill: rgb(255, 255, 255);">
<path d="M0.001,25.574C0.001,13.89,0-1,0-1s34.008,0,49.953,0.001c12.452-0.001,49.952,0,49.952,0v25.068
	c0,0,2.101,65.501-13.486,73.267C62.305,109.353,0.001,53.264,0.001,25.574z"/>
</g></g><g transform="translate(1120,560) scale(0.8,0.8)"><g transform="" style="fill: rgb(255, 255, 255);">
<rect width="100" height="100"/>
</g></g><g transform="translate(1280,560) scale(0.8,0.8)"><g transform="" style="fill: rgb(255, 255, 255);">
<path d="M0.001,25.574C0.001,13.89,0-1,0-1s34.008,0,49.953,0.001c12.452-0.001,49.952,0,49.952,0v25.068
	c0,0,2.101,65.501-13.486,73.267C62.305,109.353,0.001,53.264,0.001,25.574z"/>
</g></g><g transform="translate(0,640) scale(0.8,0.8)"><g transform="" style="fill: rgb(255, 255, 255);">
<path d="M99.999,73.426C99.999,85.11,100,100,100,100s-34.008,0-49.953-0.001c-12.452,0.001-49.952,0-49.952,0V74.931
	c0,0-2.101-65.501,13.486-73.267C37.695-10.353,99.999,45.737,99.999,73.426z"/>
</g></g><g transform="translate(480,640) scale(0.8,0.8)"><g transform="" style="fill: rgb(255, 255, 255);">
<g>
	<path d="M95.338,83.975C120.428,37.136,29.47-30.196,4.645,16.13C-20.399,62.878,70.625,130.076,95.338,83.975"/>
</g>
</g></g><g transform="translate(640,640) scale(0.8,0.8)"><g transform="" style="fill: rgb(255, 255, 255);">
<rect width="100" height="100"/>
</g></g><g transform="translate(720,640) scale(0.8,0.8)"><g transform="" style="fill: rgb(255, 255, 255);">
<rect width="100" height="100"/>
</g></g><g transform="translate(800,640) scale(0.8,0.8)"><g transform="" style="fill: rgb(255, 255, 255);">
<g>
	<path d="M100,34.375c0-9.505-3.354-17.611-10.059-24.316S75.131,0,65.625,0H0v100h100V34.375z"/>
</g>
</g></g><g transform="translate(1040,640) scale(0.8,0.8)"><g transform="" style="fill: rgb(255, 255, 255);">
<g>
	<path d="M100,34.375V0H34.375C24.87,0,16.764,3.353,10.059,10.059S0,24.87,0,34.375V100h100V34.375z"/>
</g>
</g></g><g transform="translate(1120,640) scale(0.8,0.8)"><g transform="" style="fill: rgb(255, 255, 255);">
<rect width="100" height="100"/>
</g></g><g transform="translate(1200,640) scale(0.8,0.8)"><g transform="" style="fill: rgb(255, 255, 255);">
<g>
	<path d="M100,34.375c0-9.505-3.354-17.611-10.059-24.316S75.131,0,65.625,0H0v100h100V34.375z"/>
</g>
</g></g><g transform="translate(1360,640) scale(0.8,0.8)"><g transform="" style="fill: rgb(255, 255, 255);">
<path d="M73.425,0.001C85.11,0.001,100,0,100,0s0,34.008-0.001,49.953c0.001,12.452,0,49.952,0,49.952H74.931
	c0,0-65.501,2.1-73.268-13.486C-10.352,62.305,45.736,0.001,73.425,0.001z"/>
</g></g><g transform="translate(1440,640) scale(0.8,0.8)"><g transform="" style="fill: rgb(255, 255, 255);">
<path d="M26.574,99.999C14.89,99.999,0,100,0,100s0-34.008,0.001-49.953c-0.001-12.453,0-49.953,0-49.953h25.068
	c0,0,64.501-2.101,72.268,13.486C109.354,37.695,54.264,99.999,26.574,99.999z"/>
</g></g><g transform="translate(1680,640) scale(0.8,0.8)"><g transform="" style="fill: rgb(255, 255, 255);">
<g>
	<path d="M100,34.375V0H34.375C24.87,0,16.764,3.353,10.059,10.059S0,24.87,0,34.375V100h100V34.375z"/>
</g>
</g></g><g transform="translate(1760,640) scale(0.8,0.8)"><g transform="" style="fill: rgb(255, 255, 255);">
<rect width="100" height="100"/>
</g></g><g transform="translate(1840,640) scale(0.8,0.8)"><g transform="" style="fill: rgb(255, 255, 255);">
<g>
	<path d="M100,34.375c0-9.505-3.354-17.611-10.059-24.316S75.131,0,65.625,0H0v100h100V34.375z"/>
</g>
</g></g><g transform="translate(0,720) scale(0.8,0.8)"><g transform="" style="fill: rgb(255, 255, 255);">
<g>
	<path d="M100,0H0v65.625c0,9.506,3.353,17.611,10.059,24.316S24.87,100,34.375,100H100V0z"/>
</g>
</g></g><g transform="translate(80,720) scale(0.8,0.8)"><g transform="" style="fill: rgb(255, 255, 255);">
<g>
	<path d="M100,34.375c0-9.505-3.354-17.611-10.059-24.316S75.131,0,65.625,0H0v100h100V34.375z"/>
</g>
</g></g><g transform="translate(240,720) scale(0.8,0.8)"><g transform="" style="fill: rgb(255, 255, 255);">
<path d="M73.425,0.001C85.11,0.001,100,0,100,0s0,34.008-0.001,49.953c0.001,12.452,0,49.952,0,49.952H74.931
	c0,0-65.501,2.1-73.268-13.486C-10.352,62.305,45.736,0.001,73.425,0.001z"/>
</g></g><g transform="translate(320,720) scale(0.8,0.8)"><g transform="" style="fill: rgb(255, 255, 255);">
<path d="M26.574,99.999C14.89,99.999,0,100,0,100s0-34.008,0.001-49.953c-0.001-12.453,0-49.953,0-49.953h25.068
	c0,0,64.501-2.101,72.268,13.486C109.354,37.695,54.264,99.999,26.574,99.999z"/>
</g></g><g transform="translate(640,720) scale(0.8,0.8)"><g transform="" style="fill: rgb(255, 255, 255);">
<g>
	<path d="M100,0H0v65.625c0,9.506,3.353,17.611,10.059,24.316S24.87,100,34.375,100H100V0z"/>
</g>
</g></g><g transform="translate(720,720) scale(0.8,0.8)"><g transform="" style="fill: rgb(255, 255, 255);">
<rect width="100" height="100"/>
</g></g><g transform="translate(800,720) scale(0.8,0.8)"><g transform="" style="fill: rgb(255, 255, 255);">
<g>
	<path d="M100,0H0v100h65.625c9.506,0,17.611-3.354,24.316-10.059S100,75.131,100,65.625V0z"/>
</g>
</g></g><g transform="translate(1040,720) scale(0.8,0.8)"><g transform="" style="fill: rgb(255, 255, 255);">
<g>
	<path d="M100,0H0v65.625c0,9.506,3.353,17.611,10.059,24.316S24.87,100,34.375,100H100V0z"/>
</g>
</g></g><g transform="translate(1120,720) scale(0.8,0.8)"><g transform="" style="fill: rgb(255, 255, 255);">
<rect width="100" height="100"/>
</g></g><g transform="translate(1200,720) scale(0.8,0.8)"><g transform="" style="fill: rgb(255, 255, 255);">
<rect width="100" height="100"/>
</g></g><g transform="translate(1520,720) scale(0.8,0.8)"><g transform="" style="fill: rgb(255, 255, 255);">
<path d="M73.425,0.001C85.11,0.001,100,0,100,0s0,34.008-0.001,49.953c0.001,12.452,0,49.952,0,49.952H74.931
	c0,0-65.501,2.1-73.268-13.486C-10.352,62.305,45.736,0.001,73.425,0.001z"/>
</g></g><g transform="translate(1600,720) scale(0.8,0.8)"><g transform="" style="fill: rgb(255, 255, 255);">
<rect width="100" height="100"/>
</g></g><g transform="translate(1680,720) scale(0.8,0.8)"><g transform="" style="fill: rgb(255, 255, 255);">
<rect width="100" height="100"/>
</g></g><g transform="translate(1760,720) scale(0.8,0.8)"><g transform="" style="fill: rgb(255, 255, 255);">
<rect width="100" height="100"/>
</g></g><g transform="translate(1840,720) scale(0.8,0.8)"><g transform="" style="fill: rgb(255, 255, 255);">
<rect width="100" height="100"/>
</g></g><g transform="translate(80,800) scale(0.8,0.8)"><g transform="" style="fill: rgb(255, 255, 255);">
<path d="M0.001,25.574C0.001,13.89,0-1,0-1s34.008,0,49.953,0.001c12.452-0.001,49.952,0,49.952,0v25.068
	c0,0,2.101,65.501-13.486,73.267C62.305,109.353,0.001,53.264,0.001,25.574z"/>
</g></g><g transform="translate(480,800) scale(0.8,0.8)"><g transform="" style="fill: rgb(255, 255, 255);">
<g>
	<path d="M95.338,83.975C120.428,37.136,29.47-30.196,4.645,16.13C-20.399,62.878,70.625,130.076,95.338,83.975"/>
</g>
</g></g><g transform="translate(720,800) scale(0.8,0.8)"><g transform="" style="fill: rgb(255, 255, 255);">
<rect width="100" height="100"/>
</g></g><g transform="translate(880,800) scale(0.8,0.8)"><g transform="" style="fill: rgb(255, 255, 255);">
<g>
	<path d="M95.338,83.975C120.428,37.136,29.47-30.196,4.645,16.13C-20.399,62.878,70.625,130.076,95.338,83.975"/>
</g>
</g></g><g transform="translate(1120,800) scale(0.8,0.8)"><g transform="" style="fill: rgb(255, 255, 255);">
<rect width="100" height="100"/>
</g></g><g transform="translate(1200,800) scale(0.8,0.8)"><g transform="" style="fill: rgb(255, 255, 255);">
<rect width="100" height="100"/>
</g></g><g transform="translate(1280,800) scale(0.8,0.8)"><g transform="" style="fill: rgb(255, 255, 255);">
<g>
	<path d="M100,34.375c0-9.505-3.354-17.611-10.059-24.316S75.131,0,65.625,0H0v100h100V34.375z"/>
</g>
</g></g><g transform="translate(1600,800) scale(0.8,0.8)"><g transform="" style="fill: rgb(255, 255, 255);">
<g>
	<path d="M100,0H0v65.625c0,9.506,3.353,17.611,10.059,24.316S24.87,100,34.375,100H100V0z"/>
</g>
</g></g><g transform="translate(1680,800) scale(0.8,0.8)"><g transform="" style="fill: rgb(255, 255, 255);">
<rect width="100" height="100"/>
</g></g><g transform="translate(1840,800) scale(0.8,0.8)"><g transform="" style="fill: rgb(255, 255, 255);">
<g>
	<path d="M100,0H0v65.625c0,9.506,3.353,17.611,10.059,24.316S24.87,100,34.375,100H100V0z"/>
</g>
</g></g><g transform="translate(1920,800) scale(0.8,0.8)"><g transform="" style="fill: rgb(255, 255, 255);">
<g>
	<path d="M100,34.375c0-9.505-3.354-17.611-10.059-24.316S75.131,0,65.625,0H0v100h100V34.375z"/>
</g>
</g></g><g transform="translate(160,880) scale(0.8,0.8)"><g transform="" style="fill: rgb(255, 255, 255);">
<path d="M73.425,0.001C85.11,0.001,100,0,100,0s0,34.008-0.001,49.953c0.001,12.452,0,49.952,0,49.952H74.931
	c0,0-65.501,2.1-73.268-13.486C-10.352,62.305,45.736,0.001,73.425,0.001z"/>
</g></g><g transform="translate(240,880) scale(0.8,0.8)"><g transform="" style="fill: rgb(255, 255, 255);">
<g>
	<path d="M100,34.375c0-9.505-3.354-17.611-10.059-24.316S75.131,0,65.625,0H0v100h100V34.375z"/>
</g>
</g></g><g transform="translate(560,880) scale(0.8,0.8)"><g transform="" style="fill: rgb(255, 255, 255);">
<g>
	<path d="M95.338,83.975C120.428,37.136,29.47-30.196,4.645,16.13C-20.399,62.878,70.625,130.076,95.338,83.975"/>
</g>
</g></g><g transform="translate(720,880) scale(0.8,0.8)"><g transform="" style="fill: rgb(255, 255, 255);">
<rect width="100" height="100"/>
</g></g><g transform="translate(960,880) scale(0.8,0.8)"><g transform="" style="fill: rgb(255, 255, 255);">
<path d="M99.999,73.426C99.999,85.11,100,100,100,100s-34.008,0-49.953-0.001c-12.452,0.001-49.952,0-49.952,0V74.931
	c0,0-2.101-65.501,13.486-73.267C37.695-10.353,99.999,45.737,99.999,73.426z"/>
</g></g><g transform="translate(1120,880) scale(0.8,0.8)"><g transform="" style="fill: rgb(255, 255, 255);">
<rect width="100" height="100"/>
</g></g><g transform="translate(1280,880) scale(0.8,0.8)"><g transform="" style="fill: rgb(255, 255, 255);">
<rect width="100" height="100"/>
</g></g><g transform="translate(1360,880) scale(0.8,0.8)"><g transform="" style="fill: rgb(255, 255, 255);">
<rect width="100" height="100"/>
</g></g><g transform="translate(1440,880) scale(0.8,0.8)"><g transform="" style="fill: rgb(255, 255, 255);">
<g>
	<path d="M100,34.375c0-9.505-3.354-17.611-10.059-24.316S75.131,0,65.625,0H0v100h100V34.375z"/>
</g>
</g></g><g transform="translate(1680,880) scale(0.8,0.8)"><g transform="" style="fill: rgb(255, 255, 255);">
<path d="M0.001,25.574C0.001,13.89,0-1,0-1s34.008,0,49.953,0.001c12.452-0.001,49.952,0,49.952,0v25.068
	c0,0,2.101,65.501-13.486,73.267C62.305,109.353,0.001,53.264,0.001,25.574z"/>
</g></g><g transform="translate(1920,880) scale(0.8,0.8)"><g transform="" style="fill: rgb(255, 255, 255);">
<rect width="100" height="100"/>
</g></g><g transform="translate(80,960) scale(0.8,0.8)"><g transform="" style="fill: rgb(255, 255, 255);">
<g>
	<path d="M95.338,83.975C120.428,37.136,29.47-30.196,4.645,16.13C-20.399,62.878,70.625,130.076,95.338,83.975"/>
</g>
</g></g><g transform="translate(240,960) scale(0.8,0.8)"><g transform="" style="fill: rgb(255, 255, 255);">
<rect width="100" height="100"/>
</g></g><g transform="translate(400,960) scale(0.8,0.8)"><g transform="" style="fill: rgb(255, 255, 255);">
<g>
	<path d="M100,34.375V0H34.375C24.87,0,16.764,3.353,10.059,10.059S0,24.87,0,34.375V100h100V34.375z"/>
</g>
</g></g><g transform="translate(480,960) scale(0.8,0.8)"><g transform="" style="fill: rgb(255, 255, 255);">
<path d="M26.574,99.999C14.89,99.999,0,100,0,100s0-34.008,0.001-49.953c-0.001-12.453,0-49.953,0-49.953h25.068
	c0,0,64.501-2.101,72.268,13.486C109.354,37.695,54.264,99.999,26.574,99.999z"/>
</g></g><g transform="translate(720,960) scale(0.8,0.8)"><g transform="" style="fill: rgb(255, 255, 255);">
<g>
	<path d="M100,0H0v65.625c0,9.506,3.353,17.611,10.059,24.316S24.87,100,34.375,100H100V0z"/>
</g>
</g></g><g transform="translate(800,960) scale(0.8,0.8)"><g transform="" style="fill: rgb(255, 255, 255);">
<rect width="100" height="100"/>
</g></g><g transform="translate(880,960) scale(0.8,0.8)"><g transform="" style="fill: rgb(255, 255, 255);">
<rect width="100" height="100"/>
</g></g><g transform="translate(960,960) scale(0.8,0.8)"><g transform="" style="fill: rgb(255, 255, 255);">
<g>
	<path d="M100,0H0v100h65.625c9.506,0,17.611-3.354,24.316-10.059S100,75.131,100,65.625V0z"/>
</g>
</g></g><g transform="translate(1120,960) scale(0.8,0.8)"><g transform="" style="fill: rgb(255, 255, 255);">
<path d="M0.001,25.574C0.001,13.89,0-1,0-1s34.008,0,49.953,0.001c12.452-0.001,49.952,0,49.952,0v25.068
	c0,0,2.101,65.501-13.486,73.267C62.305,109.353,0.001,53.264,0.001,25.574z"/>
</g></g><g transform="translate(1280,960) scale(0.8,0.8)"><g transform="" style="fill: rgb(255, 255, 255);">
<rect width="100" height="100"/>
</g></g><g transform="translate(1440,960) scale(0.8,0.8)"><g transform="" style="fill: rgb(255, 255, 255);">
<path d="M0.001,25.574C0.001,13.89,0-1,0-1s34.008,0,49.953,0.001c12.452-0.001,49.952,0,49.952,0v25.068
	c0,0,2.101,65.501-13.486,73.267C62.305,109.353,0.001,53.264,0.001,25.574z"/>
</g></g><g transform="translate(1920,960) scale(0.8,0.8)"><g transform="" style="fill: rgb(255, 255, 255);">
<path d="M0.001,25.574C0.001,13.89,0-1,0-1s34.008,0,49.953,0.001c12.452-0.001,49.952,0,49.952,0v25.068
	c0,0,2.101,65.501-13.486,73.267C62.305,109.353,0.001,53.264,0.001,25.574z"/>
</g></g><g transform="translate(0,1040) scale(0.8,0.8)"><g transform="" style="fill: rgb(255, 255, 255);">
<path d="M99.999,73.426C99.999,85.11,100,100,100,100s-34.008,0-49.953-0.001c-12.452,0.001-49.952,0-49.952,0V74.931
	c0,0-2.101-65.501,13.486-73.267C37.695-10.353,99.999,45.737,99.999,73.426z"/>
</g></g><g transform="translate(240,1040) scale(0.8,0.8)"><g transform="" style="fill: rgb(255, 255, 255);">
<rect width="100" height="100"/>
</g></g><g transform="translate(400,1040) scale(0.8,0.8)"><g transform="" style="fill: rgb(255, 255, 255);">
<rect width="100" height="100"/>
</g></g><g transform="translate(560,1040) scale(0.8,0.8)"><g transform="" style="fill: rgb(255, 255, 255);">
<path d="M99.999,73.426C99.999,85.11,100,100,100,100s-34.008,0-49.953-0.001c-12.452,0.001-49.952,0-49.952,0V74.931
	c0,0-2.101-65.501,13.486-73.267C37.695-10.353,99.999,45.737,99.999,73.426z"/>
</g></g><g transform="translate(800,1040) scale(0.8,0.8)"><g transform="" style="fill: rgb(255, 255, 255);">
<rect width="100" height="100"/>
</g></g><g transform="translate(1040,1040) scale(0.8,0.8)"><g transform="" style="fill: rgb(255, 255, 255);">
<path d="M99.999,73.426C99.999,85.11,100,100,100,100s-34.008,0-49.953-0.001c-12.452,0.001-49.952,0-49.952,0V74.931
	c0,0-2.101-65.501,13.486-73.267C37.695-10.353,99.999,45.737,99.999,73.426z"/>
</g></g><g transform="translate(1200,1040) scale(0.8,0.8)"><g transform="" style="fill: rgb(255, 255, 255);">
<g>
	<path d="M100,34.375V0H34.375C24.87,0,16.764,3.353,10.059,10.059S0,24.87,0,34.375V100h100V34.375z"/>
</g>
</g></g><g transform="translate(1280,1040) scale(0.8,0.8)"><g transform="" style="fill: rgb(255, 255, 255);">
<g>
	<path d="M100,0H0v100h65.625c9.506,0,17.611-3.354,24.316-10.059S100,75.131,100,65.625V0z"/>
</g>
</g></g><g transform="translate(1520,1040) scale(0.8,0.8)"><g transform="" style="fill: rgb(255, 255, 255);">
<path d="M99.999,73.426C99.999,85.11,100,100,100,100s-34.008,0-49.953-0.001c-12.452,0.001-49.952,0-49.952,0V74.931
	c0,0-2.101-65.501,13.486-73.267C37.695-10.353,99.999,45.737,99.999,73.426z"/>
</g></g><g transform="translate(1840,1040) scale(0.8,0.8)"><g transform="" style="fill: rgb(255, 255, 255);">
<path d="M99.999,73.426C99.999,85.11,100,100,100,100s-34.008,0-49.953-0.001c-12.452,0.001-49.952,0-49.952,0V74.931
	c0,0-2.101-65.501,13.486-73.267C37.695-10.353,99.999,45.737,99.999,73.426z"/>
</g></g><g transform="translate(0,1120) scale(0.8,0.8)"><g transform="" style="fill: rgb(255, 255, 255);">
<rect width="100" height="100"/>
</g></g><g transform="translate(240,1120) scale(0.8,0.8)"><g transform="" style="fill: rgb(255, 255, 255);">
<rect width="100" height="100"/>
</g></g><g transform="translate(320,1120) scale(0.8,0.8)"><g transform="" style="fill: rgb(255, 255, 255);">
<rect width="100" height="100"/>
</g></g><g transform="translate(400,1120) scale(0.8,0.8)"><g transform="" style="fill: rgb(255, 255, 255);">
<rect width="100" height="100"/>
</g></g><g transform="translate(480,1120) scale(0.8,0.8)"><g transform="" style="fill: rgb(255, 255, 255);">
<rect width="100" height="100"/>
</g></g><g transform="translate(560,1120) scale(0.8,0.8)"><g transform="" style="fill: rgb(255, 255, 255);">
<rect width="100" height="100"/>
</g></g><g transform="translate(800,1120) scale(0.8,0.8)"><g transform="" style="fill: rgb(255, 255, 255);">
<rect width="100" height="100"/>
</g></g><g transform="translate(880,1120) scale(0.8,0.8)"><g transform="" style="fill: rgb(255, 255, 255);">
<rect width="100" height="100"/>
</g></g><g transform="translate(960,1120) scale(0.8,0.8)"><g transform="" style="fill: rgb(255, 255, 255);">
<rect width="100" height="100"/>
</g></g><g transform="translate(1040,1120) scale(0.8,0.8)"><g transform="" style="fill: rgb(255, 255, 255);">
<rect width="100" height="100"/>
</g></g><g transform="translate(1120,1120) scale(0.8,0.8)"><g transform="" style="fill: rgb(255, 255, 255);">
<rect width="100" height="100"/>
</g></g><g transform="translate(1200,1120) scale(0.8,0.8)"><g transform="" style="fill: rgb(255, 255, 255);">
<rect width="100" height="100"/>
</g></g><g transform="translate(1440,1120) scale(0.8,0.8)"><g transform="" style="fill: rgb(255, 255, 255);">
<path d="M73.425,0.001C85.11,0.001,100,0,100,0s0,34.008-0.001,49.953c0.001,12.452,0,49.952,0,49.952H74.931
	c0,0-65.501,2.1-73.268-13.486C-10.352,62.305,45.736,0.001,73.425,0.001z"/>
</g></g><g transform="translate(1520,1120) scale(0.8,0.8)"><g transform="" style="fill: rgb(255, 255, 255);">
<rect width="100" height="100"/>
</g></g><g transform="translate(1600,1120) scale(0.8,0.8)"><g transform="" style="fill: rgb(255, 255, 255);">
<rect width="100" height="100"/>
</g></g><g transform="translate(1680,1120) scale(0.8,0.8)"><g transform="" style="fill: rgb(255, 255, 255);">
<g>
	<path d="M100,34.375c0-9.505-3.354-17.611-10.059-24.316S75.131,0,65.625,0H0v100h100V34.375z"/>
</g>
</g></g><g transform="translate(1840,1120) scale(0.8,0.8)"><g transform="" style="fill: rgb(255, 255, 255);">
<g>
	<path d="M100,0H0v65.625c0,9.506,3.353,17.611,10.059,24.316S24.87,100,34.375,100H100V0z"/>
</g>
</g></g><g transform="translate(1920,1120) scale(0.8,0.8)"><g transform="" style="fill: rgb(255, 255, 255);">
<g>
	<path d="M100,34.375c0-9.505-3.354-17.611-10.059-24.316S75.131,0,65.625,0H0v100h100V34.375z"/>
</g>
</g></g><g transform="translate(0,1200) scale(0.8,0.8)"><g transform="" style="fill: rgb(255, 255, 255);">
<rect width="100" height="100"/>
</g></g><g transform="translate(160,1200) scale(0.8,0.8)"><g transform="" style="fill: rgb(255, 255, 255);">
<path d="M73.425,0.001C85.11,0.001,100,0,100,0s0,34.008-0.001,49.953c0.001,12.452,0,49.952,0,49.952H74.931
	c0,0-65.501,2.1-73.268-13.486C-10.352,62.305,45.736,0.001,73.425,0.001z"/>
</g></g><g transform="translate(240,1200) scale(0.8,0.8)"><g transform="" style="fill: rgb(255, 255, 255);">
<g>
	<path d="M100,0H0v100h65.625c9.506,0,17.611-3.354,24.316-10.059S100,75.131,100,65.625V0z"/>
</g>
</g></g><g transform="translate(560,1200) scale(0.8,0.8)"><g transform="" style="fill: rgb(255, 255, 255);">
<rect width="100" height="100"/>
</g></g><g transform="translate(720,1200) scale(0.8,0.8)"><g transform="" style="fill: rgb(255, 255, 255);">
<path d="M73.425,0.001C85.11,0.001,100,0,100,0s0,34.008-0.001,49.953c0.001,12.452,0,49.952,0,49.952H74.931
	c0,0-65.501,2.1-73.268-13.486C-10.352,62.305,45.736,0.001,73.425,0.001z"/>
</g></g><g transform="translate(800,1200) scale(0.8,0.8)"><g transform="" style="fill: rgb(255, 255, 255);">
<rect width="100" height="100"/>
</g></g><g transform="translate(880,1200) scale(0.8,0.8)"><g transform="" style="fill: rgb(255, 255, 255);">
<rect width="100" height="100"/>
</g></g><g transform="translate(1200,1200) scale(0.8,0.8)"><g transform="" style="fill: rgb(255, 255, 255);">
<path d="M0.001,25.574C0.001,13.89,0-1,0-1s34.008,0,49.953,0.001c12.452-0.001,49.952,0,49.952,0v25.068
	c0,0,2.101,65.501-13.486,73.267C62.305,109.353,0.001,53.264,0.001,25.574z"/>
</g></g><g transform="translate(1360,1200) scale(0.8,0.8)"><g transform="" style="fill: rgb(255, 255, 255);">
<path d="M99.999,73.426C99.999,85.11,100,100,100,100s-34.008,0-49.953-0.001c-12.452,0.001-49.952,0-49.952,0V74.931
	c0,0-2.101-65.501,13.486-73.267C37.695-10.353,99.999,45.737,99.999,73.426z"/>
</g></g><g transform="translate(1520,1200) scale(0.8,0.8)"><g transform="" style="fill: rgb(255, 255, 255);">
<rect width="100" height="100"/>
</g></g><g transform="translate(1680,1200) scale(0.8,0.8)"><g transform="" style="fill: rgb(255, 255, 255);">
<g>
	<path d="M100,0H0v65.625c0,9.506,3.353,17.611,10.059,24.316S24.87,100,34.375,100H100V0z"/>
</g>
</g></g><g transform="translate(1760,1200) scale(0.8,0.8)"><g transform="" style="fill: rgb(255, 255, 255);">
<g>
	<path d="M100,34.375c0-9.505-3.354-17.611-10.059-24.316S75.131,0,65.625,0H0v100h100V34.375z"/>
</g>
</g></g><g transform="translate(1920,1200) scale(0.8,0.8)"><g transform="" style="fill: rgb(255, 255, 255);">
<path d="M0.001,25.574C0.001,13.89,0-1,0-1s34.008,0,49.953,0.001c12.452-0.001,49.952,0,49.952,0v25.068
	c0,0,2.101,65.501-13.486,73.267C62.305,109.353,0.001,53.264,0.001,25.574z"/>
</g></g><g transform="translate(0,1280) scale(0.8,0.8)"><g transform="" style="fill: rgb(255, 255, 255);">
<path d="M0.001,25.574C0.001,13.89,0-1,0-1s34.008,0,49.953,0.001c12.452-0.001,49.952,0,49.952,0v25.068
	c0,0,2.101,65.501-13.486,73.267C62.305,109.353,0.001,53.264,0.001,25.574z"/>
</g></g><g transform="translate(320,1280) scale(0.8,0.8)"><g transform="" style="fill: rgb(255, 255, 255);">
<path d="M73.425,0.001C85.11,0.001,100,0,100,0s0,34.008-0.001,49.953c0.001,12.452,0,49.952,0,49.952H74.931
	c0,0-65.501,2.1-73.268-13.486C-10.352,62.305,45.736,0.001,73.425,0.001z"/>
</g></g><g transform="translate(400,1280) scale(0.8,0.8)"><g transform="" style="fill: rgb(255, 255, 255);">
<rect width="100" height="100"/>
</g></g><g transform="translate(480,1280) scale(0.8,0.8)"><g transform="" style="fill: rgb(255, 255, 255);">
<rect width="100" height="100"/>
</g></g><g transform="translate(560,1280) scale(0.8,0.8)"><g transform="" style="fill: rgb(255, 255, 255);">
<rect width="100" height="100"/>
</g></g><g transform="translate(640,1280) scale(0.8,0.8)"><g transform="" style="fill: rgb(255, 255, 255);">
<g>
	<path d="M100,34.375c0-9.505-3.354-17.611-10.059-24.316S75.131,0,65.625,0H0v100h100V34.375z"/>
</g>
</g></g><g transform="translate(800,1280) scale(0.8,0.8)"><g transform="" style="fill: rgb(255, 255, 255);">
<rect width="100" height="100"/>
</g></g><g transform="translate(880,1280) scale(0.8,0.8)"><g transform="" style="fill: rgb(255, 255, 255);">
<g>
	<path d="M100,0H0v100h65.625c9.506,0,17.611-3.354,24.316-10.059S100,75.131,100,65.625V0z"/>
</g>
</g></g><g transform="translate(1280,1280) scale(0.8,0.8)"><g transform="" style="fill: rgb(255, 255, 255);">
<g>
	<path d="M100,34.375V0H34.375C24.87,0,16.764,3.353,10.059,10.059S0,24.87,0,34.375V100h100V34.375z"/>
</g>
</g></g><g transform="translate(1360,1280) scale(0.8,0.8)"><g transform="" style="fill: rgb(255, 255, 255);">
<rect width="100" height="100"/>
</g></g><g transform="translate(1440,1280) scale(0.8,0.8)"><g transform="" style="fill: rgb(255, 255, 255);">
<rect width="100" height="100"/>
</g></g><g transform="translate(1520,1280) scale(0.8,0.8)"><g transform="" style="fill: rgb(255, 255, 255);">
<rect width="100" height="100"/>
</g></g><g transform="translate(1600,1280) scale(0.8,0.8)"><g transform="" style="fill: rgb(255, 255, 255);">
<g>
	<path d="M100,34.375c0-9.505-3.354-17.611-10.059-24.316S75.131,0,65.625,0H0v100h100V34.375z"/>
</g>
</g></g><g transform="translate(1760,1280) scale(0.8,0.8)"><g transform="" style="fill: rgb(255, 255, 255);">
<path d="M0.001,25.574C0.001,13.89,0-1,0-1s34.008,0,49.953,0.001c12.452-0.001,49.952,0,49.952,0v25.068
	c0,0,2.101,65.501-13.486,73.267C62.305,109.353,0.001,53.264,0.001,25.574z"/>
</g></g><g transform="translate(640,1360) scale(0.8,0.8)"><g transform="" style="fill: rgb(255, 255, 255);">
<path d="M0.001,25.574C0.001,13.89,0-1,0-1s34.008,0,49.953,0.001c12.452-0.001,49.952,0,49.952,0v25.068
	c0,0,2.101,65.501-13.486,73.267C62.305,109.353,0.001,53.264,0.001,25.574z"/>
</g></g><g transform="translate(800,1360) scale(0.8,0.8)"><g transform="" style="fill: rgb(255, 255, 255);">
<path d="M0.001,25.574C0.001,13.89,0-1,0-1s34.008,0,49.953,0.001c12.452-0.001,49.952,0,49.952,0v25.068
	c0,0,2.101,65.501-13.486,73.267C62.305,109.353,0.001,53.264,0.001,25.574z"/>
</g></g><g transform="translate(960,1360) scale(0.8,0.8)"><g transform="" style="fill: rgb(255, 255, 255);">
<path d="M73.425,0.001C85.11,0.001,100,0,100,0s0,34.008-0.001,49.953c0.001,12.452,0,49.952,0,49.952H74.931
	c0,0-65.501,2.1-73.268-13.486C-10.352,62.305,45.736,0.001,73.425,0.001z"/>
</g></g><g transform="translate(1040,1360) scale(0.8,0.8)"><g transform="" style="fill: rgb(255, 255, 255);">
<path d="M26.574,99.999C14.89,99.999,0,100,0,100s0-34.008,0.001-49.953c-0.001-12.453,0-49.953,0-49.953h25.068
	c0,0,64.501-2.101,72.268,13.486C109.354,37.695,54.264,99.999,26.574,99.999z"/>
</g></g><g transform="translate(1280,1360) scale(0.8,0.8)"><g transform="" style="fill: rgb(255, 255, 255);">
<rect width="100" height="100"/>
</g></g><g transform="translate(1600,1360) scale(0.8,0.8)"><g transform="" style="fill: rgb(255, 255, 255);">
<rect width="100" height="100"/>
</g></g><g transform="translate(720,1440) scale(0.8,0.8)"><g transform="" style="fill: rgb(255, 255, 255);">
<path d="M99.999,73.426C99.999,85.11,100,100,100,100s-34.008,0-49.953-0.001c-12.452,0.001-49.952,0-49.952,0V74.931
	c0,0-2.101-65.501,13.486-73.267C37.695-10.353,99.999,45.737,99.999,73.426z"/>
</g></g><g transform="translate(880,1440) scale(0.8,0.8)"><g transform="" style="fill: rgb(255, 255, 255);">
<g>
	<path d="M95.338,83.975C120.428,37.136,29.47-30.196,4.645,16.13C-20.399,62.878,70.625,130.076,95.338,83.975"/>
</g>
</g></g><g transform="translate(1280,1440) scale(0.8,0.8)"><g transform="" style="fill: rgb(255, 255, 255);">
<rect width="100" height="100"/>
</g></g><g transform="translate(1440,1440) scale(0.8,0.8)"><g transform="" style="fill: rgb(255, 255, 255);">
<g>
	<path d="M95.338,83.975C120.428,37.136,29.47-30.196,4.645,16.13C-20.399,62.878,70.625,130.076,95.338,83.975"/>
</g>
</g></g><g transform="translate(1600,1440) scale(0.8,0.8)"><g transform="" style="fill: rgb(255, 255, 255);">
<rect width="100" height="100"/>
</g></g><g transform="translate(1920,1440) scale(0.8,0.8)"><g transform="" style="fill: rgb(255, 255, 255);">
<path d="M99.999,73.426C99.999,85.11,100,100,100,100s-34.008,0-49.953-0.001c-12.452,0.001-49.952,0-49.952,0V74.931
	c0,0-2.101-65.501,13.486-73.267C37.695-10.353,99.999,45.737,99.999,73.426z"/>
</g></g><g transform="translate(720,1520) scale(0.8,0.8)"><g transform="" style="fill: rgb(255, 255, 255);">
<rect width="100" height="100"/>
</g></g><g transform="translate(960,1520) scale(0.8,0.8)"><g transform="" style="fill: rgb(255, 255, 255);">
<g>
	<path d="M100,34.375V0H34.375C24.87,0,16.764,3.353,10.059,10.059S0,24.87,0,34.375V100h100V34.375z"/>
</g>
</g></g><g transform="translate(1040,1520) scale(0.8,0.8)"><g transform="" style="fill: rgb(255, 255, 255);">
<path d="M26.574,99.999C14.89,99.999,0,100,0,100s0-34.008,0.001-49.953c-0.001-12.453,0-49.953,0-49.953h25.068
	c0,0,64.501-2.101,72.268,13.486C109.354,37.695,54.264,99.999,26.574,99.999z"/>
</g></g><g transform="translate(1200,1520) scale(0.8,0.8)"><g transform="" style="fill: rgb(255, 255, 255);">
<g>
	<path d="M100,34.375V0H34.375C24.87,0,16.764,3.353,10.059,10.059S0,24.87,0,34.375V100h100V34.375z"/>
</g>
</g></g><g transform="translate(1280,1520) scale(0.8,0.8)"><g transform="" style="fill: rgb(255, 255, 255);">
<rect width="100" height="100"/>
</g></g><g transform="translate(1600,1520) scale(0.8,0.8)"><g transform="" style="fill: rgb(255, 255, 255);">
<rect width="100" height="100"/>
</g></g><g transform="translate(1840,1520) scale(0.8,0.8)"><g transform="" style="fill: rgb(255, 255, 255);">
<g>
	<path d="M100,34.375V0H34.375C24.87,0,16.764,3.353,10.059,10.059S0,24.87,0,34.375V100h100V34.375z"/>
</g>
</g></g><g transform="translate(1920,1520) scale(0.8,0.8)"><g transform="" style="fill: rgb(255, 255, 255);">
<rect width="100" height="100"/>
</g></g><g transform="translate(720,1600) scale(0.8,0.8)"><g transform="" style="fill: rgb(255, 255, 255);">
<g>
	<path d="M100,0H0v65.625c0,9.506,3.353,17.611,10.059,24.316S24.87,100,34.375,100H100V0z"/>
</g>
</g></g><g transform="translate(800,1600) scale(0.8,0.8)"><g transform="" style="fill: rgb(255, 255, 255);">
<path d="M26.574,99.999C14.89,99.999,0,100,0,100s0-34.008,0.001-49.953c-0.001-12.453,0-49.953,0-49.953h25.068
	c0,0,64.501-2.101,72.268,13.486C109.354,37.695,54.264,99.999,26.574,99.999z"/>
</g></g><g transform="translate(960,1600) scale(0.8,0.8)"><g transform="" style="fill: rgb(255, 255, 255);">
<path d="M0.001,25.574C0.001,13.89,0-1,0-1s34.008,0,49.953,0.001c12.452-0.001,49.952,0,49.952,0v25.068
	c0,0,2.101,65.501-13.486,73.267C62.305,109.353,0.001,53.264,0.001,25.574z"/>
</g></g><g transform="translate(1120,1600) scale(0.8,0.8)"><g transform="" style="fill: rgb(255, 255, 255);">
<g>
	<path d="M100,34.375V0H34.375C24.87,0,16.764,3.353,10.059,10.059S0,24.87,0,34.375V100h100V34.375z"/>
</g>
</g></g><g transform="translate(1200,1600) scale(0.8,0.8)"><g transform="" style="fill: rgb(255, 255, 255);">
<rect width="100" height="100"/>
</g></g><g transform="translate(1280,1600) scale(0.8,0.8)"><g transform="" style="fill: rgb(255, 255, 255);">
<rect width="100" height="100"/>
</g></g><g transform="translate(1360,1600) scale(0.8,0.8)"><g transform="" style="fill: rgb(255, 255, 255);">
<rect width="100" height="100"/>
</g></g><g transform="translate(1440,1600) scale(0.8,0.8)"><g transform="" style="fill: rgb(255, 255, 255);">
<rect width="100" height="100"/>
</g></g><g transform="translate(1520,1600) scale(0.8,0.8)"><g transform="" style="fill: rgb(255, 255, 255);">
<rect width="100" height="100"/>
</g></g><g transform="translate(1600,1600) scale(0.8,0.8)"><g transform="" style="fill: rgb(255, 255, 255);">
<g>
	<path d="M100,0H0v100h65.625c9.506,0,17.611-3.354,24.316-10.059S100,75.131,100,65.625V0z"/>
</g>
</g></g><g transform="translate(1760,1600) scale(0.8,0.8)"><g transform="" style="fill: rgb(255, 255, 255);">
<path d="M73.425,0.001C85.11,0.001,100,0,100,0s0,34.008-0.001,49.953c0.001,12.452,0,49.952,0,49.952H74.931
	c0,0-65.501,2.1-73.268-13.486C-10.352,62.305,45.736,0.001,73.425,0.001z"/>
</g></g><g transform="translate(1840,1600) scale(0.8,0.8)"><g transform="" style="fill: rgb(255, 255, 255);">
<rect width="100" height="100"/>
</g></g><g transform="translate(1920,1600) scale(0.8,0.8)"><g transform="" style="fill: rgb(255, 255, 255);">
<rect width="100" height="100"/>
</g></g><g transform="translate(1120,1680) scale(0.8,0.8)"><g transform="" style="fill: rgb(255, 255, 255);">
<g>
	<path d="M100,0H0v65.625c0,9.506,3.353,17.611,10.059,24.316S24.87,100,34.375,100H100V0z"/>
</g>
</g></g><g transform="translate(1200,1680) scale(0.8,0.8)"><g transform="" style="fill: rgb(255, 255, 255);">
<rect width="100" height="100"/>
</g></g><g transform="translate(1280,1680) scale(0.8,0.8)"><g transform="" style="fill: rgb(255, 255, 255);">
<rect width="100" height="100"/>
</g></g><g transform="translate(1360,1680) scale(0.8,0.8)"><g transform="" style="fill: rgb(255, 255, 255);">
<rect width="100" height="100"/>
</g></g><g transform="translate(1440,1680) scale(0.8,0.8)"><g transform="" style="fill: rgb(255, 255, 255);">
<g>
	<path d="M100,0H0v100h65.625c9.506,0,17.611-3.354,24.316-10.059S100,75.131,100,65.625V0z"/>
</g>
</g></g><g transform="translate(1840,1680) scale(0.8,0.8)"><g transform="" style="fill: rgb(255, 255, 255);">
<g>
	<path d="M100,0H0v65.625c0,9.506,3.353,17.611,10.059,24.316S24.87,100,34.375,100H100V0z"/>
</g>
</g></g><g transform="translate(1920,1680) scale(0.8,0.8)"><g transform="" style="fill: rgb(255, 255, 255);">
<rect width="100" height="100"/>
</g></g><g transform="translate(880,1760) scale(0.8,0.8)"><g transform="" style="fill: rgb(255, 255, 255);">
<g>
	<path d="M100,34.375V0H34.375C24.87,0,16.764,3.353,10.059,10.059S0,24.87,0,34.375V100h100V34.375z"/>
</g>
</g></g><g transform="translate(960,1760) scale(0.8,0.8)"><g transform="" style="fill: rgb(255, 255, 255);">
<path d="M26.574,99.999C14.89,99.999,0,100,0,100s0-34.008,0.001-49.953c-0.001-12.453,0-49.953,0-49.953h25.068
	c0,0,64.501-2.101,72.268,13.486C109.354,37.695,54.264,99.999,26.574,99.999z"/>
</g></g><g transform="translate(1200,1760) scale(0.8,0.8)"><g transform="" style="fill: rgb(255, 255, 255);">
<g>
	<path d="M100,0H0v65.625c0,9.506,3.353,17.611,10.059,24.316S24.87,100,34.375,100H100V0z"/>
</g>
</g></g><g transform="translate(1280,1760) scale(0.8,0.8)"><g transform="" style="fill: rgb(255, 255, 255);">
<rect width="100" height="100"/>
</g></g><g transform="translate(1680,1760) scale(0.8,0.8)"><g transform="" style="fill: rgb(255, 255, 255);">
<path d="M73.425,0.001C85.11,0.001,100,0,100,0s0,34.008-0.001,49.953c0.001,12.452,0,49.952,0,49.952H74.931
	c0,0-65.501,2.1-73.268-13.486C-10.352,62.305,45.736,0.001,73.425,0.001z"/>
</g></g><g transform="translate(1760,1760) scale(0.8,0.8)"><g transform="" style="fill: rgb(255, 255, 255);">
<path d="M26.574,99.999C14.89,99.999,0,100,0,100s0-34.008,0.001-49.953c-0.001-12.453,0-49.953,0-49.953h25.068
	c0,0,64.501-2.101,72.268,13.486C109.354,37.695,54.264,99.999,26.574,99.999z"/>
</g></g><g transform="translate(1920,1760) scale(0.8,0.8)"><g transform="" style="fill: rgb(255, 255, 255);">
<rect width="100" height="100"/>
</g></g><g transform="translate(800,1840) scale(0.8,0.8)"><g transform="" style="fill: rgb(255, 255, 255);">
<path d="M73.425,0.001C85.11,0.001,100,0,100,0s0,34.008-0.001,49.953c0.001,12.452,0,49.952,0,49.952H74.931
	c0,0-65.501,2.1-73.268-13.486C-10.352,62.305,45.736,0.001,73.425,0.001z"/>
</g></g><g transform="translate(880,1840) scale(0.8,0.8)"><g transform="" style="fill: rgb(255, 255, 255);">
<g>
	<path d="M100,0H0v100h65.625c9.506,0,17.611-3.354,24.316-10.059S100,75.131,100,65.625V0z"/>
</g>
</g></g><g transform="translate(1120,1840) scale(0.8,0.8)"><g transform="" style="fill: rgb(255, 255, 255);">
<path d="M99.999,73.426C99.999,85.11,100,100,100,100s-34.008,0-49.953-0.001c-12.452,0.001-49.952,0-49.952,0V74.931
	c0,0-2.101-65.501,13.486-73.267C37.695-10.353,99.999,45.737,99.999,73.426z"/>
</g></g><g transform="translate(1280,1840) scale(0.8,0.8)"><g transform="" style="fill: rgb(255, 255, 255);">
<rect width="100" height="100"/>
</g></g><g transform="translate(1520,1840) scale(0.8,0.8)"><g transform="" style="fill: rgb(255, 255, 255);">
<path d="M73.425,0.001C85.11,0.001,100,0,100,0s0,34.008-0.001,49.953c0.001,12.452,0,49.952,0,49.952H74.931
	c0,0-65.501,2.1-73.268-13.486C-10.352,62.305,45.736,0.001,73.425,0.001z"/>
</g></g><g transform="translate(1600,1840) scale(0.8,0.8)"><g transform="" style="fill: rgb(255, 255, 255);">
<path d="M26.574,99.999C14.89,99.999,0,100,0,100s0-34.008,0.001-49.953c-0.001-12.453,0-49.953,0-49.953h25.068
	c0,0,64.501-2.101,72.268,13.486C109.354,37.695,54.264,99.999,26.574,99.999z"/>
</g></g><g transform="translate(1920,1840) scale(0.8,0.8)"><g transform="" style="fill: rgb(255, 255, 255);">
<rect width="100" height="100"/>
</g></g><g transform="translate(640,1920) scale(0.8,0.8)"><g transform="" style="fill: rgb(255, 255, 255);">
<g>
	<path d="M95.338,83.975C120.428,37.136,29.47-30.196,4.645,16.13C-20.399,62.878,70.625,130.076,95.338,83.975"/>
</g>
</g></g><g transform="translate(1040,1920) scale(0.8,0.8)"><g transform="" style="fill: rgb(255, 255, 255);">
<path d="M73.425,0.001C85.11,0.001,100,0,100,0s0,34.008-0.001,49.953c0.001,12.452,0,49.952,0,49.952H74.931
	c0,0-65.501,2.1-73.268-13.486C-10.352,62.305,45.736,0.001,73.425,0.001z"/>
</g></g><g transform="translate(1120,1920) scale(0.8,0.8)"><g transform="" style="fill: rgb(255, 255, 255);">
<g>
	<path d="M100,0H0v100h65.625c9.506,0,17.611-3.354,24.316-10.059S100,75.131,100,65.625V0z"/>
</g>
</g></g><g transform="translate(1280,1920) scale(0.8,0.8)"><g transform="" style="fill: rgb(255, 255, 255);">
<g>
	<path d="M100,0H0v65.625c0,9.506,3.353,17.611,10.059,24.316S24.87,100,34.375,100H100V0z"/>
</g>
</g></g><g transform="translate(1360,1920) scale(0.8,0.8)"><g transform="" style="fill: rgb(255, 255, 255);">
<rect width="100" height="100"/>
</g></g><g transform="translate(1440,1920) scale(0.8,0.8)"><g transform="" style="fill: rgb(255, 255, 255);">
<path d="M26.574,99.999C14.89,99.999,0,100,0,100s0-34.008,0.001-49.953c-0.001-12.453,0-49.953,0-49.953h25.068
	c0,0,64.501-2.101,72.268,13.486C109.354,37.695,54.264,99.999,26.574,99.999z"/>
</g></g><g transform="translate(1680,1920) scale(0.8,0.8)"><g transform="" style="fill: rgb(255, 255, 255);">
<g>
	<path d="M95.338,83.975C120.428,37.136,29.47-30.196,4.645,16.13C-20.399,62.878,70.625,130.076,95.338,83.975"/>
</g>
</g></g><g transform="translate(1920,1920) scale(0.8,0.8)"><g transform="" style="fill: rgb(255, 255, 255);">
<path d="M0.001,25.574C0.001,13.89,0-1,0-1s34.008,0,49.953,0.001c12.452-0.001,49.952,0,49.952,0v25.068
	c0,0,2.101,65.501-13.486,73.267C62.305,109.353,0.001,53.264,0.001,25.574z"/>
</g></g><g transform="translate(0,0) scale(5.6, 5.6)"><g transform="" style="fill: rgb(255, 255, 255);">
<g>
	<rect x="15" y="15" style="fill:none;" width="70" height="70"/>
	<path d="M85,0H15H0v15v70v15h15h70h15V85V15V0H85z M85,85H15V15h70V85z"/>
</g>
</g></g><g transform="translate(1440,0) scale(5.6, 5.6)"><g transform="" style="fill: rgb(255, 255, 255);">
<g>
	<rect x="15" y="15" style="fill:none;" width="70" height="70"/>
	<path d="M85,0H15H0v15v70v15h15h70h15V85V15V0H85z M85,85H15V15h70V85z"/>
</g>
</g></g><g transform="translate(0,1440) scale(5.6, 5.6)"><g transform="" style="fill: rgb(255, 255, 255);">
<g>
	<rect x="15" y="15" style="fill:none;" width="70" height="70"/>
	<path d="M85,0H15H0v15v70v15h15h70h15V85V15V0H85z M85,85H15V15h70V85z"/>
</g>
</g></g><g transform="translate(160,160) scale(2.4, 2.4)"><g transform="" style="fill: rgb(255, 255, 255);">
<rect width="100" height="100"/>
</g></g><g transform="translate(1600,160) scale(2.4, 2.4)"><g transform="" style="fill: rgb(255, 255, 255);">
<rect width="100" height="100"/>
</g></g><g transform="translate(160,1600) scale(2.4, 2.4)"><g transform="" style="fill: rgb(255, 255, 255);">
<rect width="100" height="100"/>
</g></g></g></mask></defs></g><rect x="0" y="0" width="2000" height="2000" fill="url(#grad)" mask="url(#gmask)" /></g></svg>