<?xml version="1.0" standalone="no"?>
<!DOCTYPE svg PUBLIC "-//W3C//DTD SVG 20010904//EN"
 "http://www.w3.org/TR/2001/REC-SVG-20010904/DTD/svg10.dtd">
<svg version="1.0" xmlns="http://www.w3.org/2000/svg"
 width="800.000000pt" height="800.000000pt" viewBox="0 0 800.000000 800.000000"
 preserveAspectRatio="xMidYMid meet">
<metadata>
Created by potrace 1.11, written by Peter Selinger 2001-2013
</metadata>
<g transform="translate(0.000000,800.000000) scale(0.100000,-0.100000)"
fill="#000000" stroke="none">
<path d="M3748 5841 c-32 -5 -57 -16 -76 -34 -15 -15 -33 -27 -39 -27 -22 0
-115 -82 -129 -113 -8 -18 -24 -45 -37 -60 -20 -26 -22 -39 -22 -160 l0 -132
43 -62 c65 -93 109 -124 191 -133 37 -4 77 -12 88 -19 30 -16 103 -14 153 4
23 8 60 15 82 15 21 0 53 6 71 14 39 16 151 132 162 166 4 14 18 42 32 62 19
29 27 55 31 107 10 141 -10 203 -93 283 -16 15 -42 40 -57 55 -17 17 -44 29
-75 34 -57 9 -258 9 -325 0z"/>
<path d="M805 5615 c-16 -7 -55 -36 -85 -63 l-55 -50 0 -1481 0 -1481 31 -30
c41 -41 102 -50 369 -50 295 0 364 14 379 76 4 13 13 24 21 24 7 0 21 10 29
22 14 20 16 82 16 483 0 288 4 474 11 498 9 34 13 37 47 37 64 0 116 -27 147
-76 15 -24 31 -44 36 -44 4 0 13 -16 19 -36 7 -20 25 -47 41 -62 16 -14 29
-32 29 -41 0 -21 38 -83 61 -99 11 -7 19 -22 19 -33 0 -10 15 -36 34 -56 18
-21 39 -56 47 -77 8 -21 26 -48 42 -59 15 -12 27 -27 27 -35 0 -17 49 -102 60
-102 4 0 15 -20 24 -45 10 -25 26 -47 36 -50 12 -4 24 -21 30 -43 5 -20 26
-57 45 -81 19 -24 35 -50 35 -58 0 -7 15 -29 33 -48 17 -18 39 -43 47 -55 23
-32 151 -43 460 -38 292 5 333 12 346 62 3 14 15 28 26 32 23 7 48 59 40 86
-2 10 -16 27 -30 38 -13 11 -35 43 -48 70 -13 28 -31 53 -40 57 -9 3 -24 25
-34 49 -11 24 -28 45 -40 49 -12 4 -23 18 -26 35 -4 15 -24 49 -45 75 -22 26
-42 58 -45 71 -4 13 -19 33 -34 44 -15 11 -30 32 -33 48 -3 16 -20 44 -38 63
-18 19 -38 49 -46 66 -7 18 -24 40 -38 49 -14 9 -25 25 -25 35 0 10 -16 36
-35 58 -19 21 -42 55 -50 74 -8 20 -26 44 -40 53 -13 8 -29 31 -35 50 -7 19
-22 41 -34 49 -12 8 -30 38 -41 66 -10 29 -26 60 -36 70 -18 18 -18 19 6 25
14 3 31 14 38 23 6 9 30 30 52 46 86 63 243 240 252 286 3 16 14 31 24 34 24
8 34 27 48 93 6 29 20 65 31 80 31 43 39 105 40 298 0 198 -10 275 -40 316
-11 15 -24 48 -30 74 -12 54 -27 86 -46 97 -7 4 -22 28 -34 53 -21 49 -126
158 -163 170 -12 4 -29 17 -39 30 -10 12 -41 30 -68 39 -27 9 -53 22 -57 29
-14 24 -67 43 -137 51 -51 5 -79 14 -102 31 -19 15 -56 29 -90 34 -34 6 -330
10 -684 10 -510 -1 -631 -3 -655 -15z m989 -690 c42 -14 82 -25 89 -25 35 0
88 -24 118 -54 19 -18 40 -35 47 -37 15 -5 62 -170 62 -214 0 -33 -33 -164
-48 -192 -18 -33 -46 -52 -93 -62 -65 -15 -93 -26 -114 -48 -16 -16 -37 -18
-179 -18 l-161 0 0 320 c0 176 3 328 7 338 12 29 174 24 272 -8z"/>
<path d="M4823 4940 c-12 -5 -25 -20 -29 -33 -4 -17 -15 -27 -33 -30 -16 -4
-32 -16 -39 -32 -18 -38 -17 -2300 1 -2334 6 -14 26 -29 42 -34 17 -5 118 -10
225 -11 230 -1 244 4 312 92 l43 57 5 440 c4 357 8 445 19 465 14 24 15 22 32
-64 11 -56 27 -102 43 -125 14 -20 26 -51 26 -67 0 -46 28 -146 49 -175 11
-14 22 -48 26 -75 10 -75 32 -142 55 -171 11 -14 20 -40 20 -57 0 -46 25 -133
55 -190 14 -27 25 -57 25 -66 0 -9 8 -24 19 -34 34 -31 268 -45 458 -27 81 8
83 8 131 57 27 27 53 61 57 74 4 14 13 32 21 40 19 23 40 87 49 150 4 30 16
66 26 79 21 27 44 100 55 174 3 26 10 47 14 47 15 0 42 72 55 144 7 43 22 86
37 108 22 31 48 129 48 176 0 6 11 22 24 35 25 26 46 83 46 129 0 15 5 30 10
33 7 4 10 -191 10 -579 0 -407 3 -592 11 -609 6 -14 23 -30 38 -37 85 -40 502
-36 525 5 6 10 28 36 49 56 l37 38 0 1161 c0 1147 0 1160 -20 1180 -19 19 -33
20 -360 20 -369 0 -390 -3 -423 -54 -10 -14 -23 -26 -31 -26 -23 0 -46 -35
-56 -88 -5 -29 -18 -64 -29 -80 -22 -29 -51 -129 -51 -174 0 -15 -5 -30 -11
-34 -18 -11 -47 -85 -59 -154 -6 -35 -20 -76 -31 -91 -19 -28 -49 -127 -49
-166 0 -12 -11 -38 -24 -58 -14 -20 -32 -71 -42 -113 -9 -42 -29 -103 -44
-135 -16 -31 -32 -83 -36 -115 -4 -32 -17 -72 -30 -92 -13 -19 -30 -62 -38
-94 -9 -32 -18 -61 -20 -63 -3 -3 -8 16 -11 41 -4 26 -20 64 -36 86 -21 28
-32 60 -40 112 -11 69 -38 140 -58 152 -5 3 -12 36 -16 73 -7 70 -25 126 -50
153 -8 8 -19 47 -25 85 -14 90 -28 135 -50 160 -10 11 -21 45 -25 75 -10 80
-24 129 -46 159 -10 15 -25 65 -34 115 -15 87 -25 116 -50 146 -7 8 -18 44
-24 79 -6 36 -18 72 -26 80 -14 14 -65 16 -373 18 -198 1 -367 -2 -379 -7z"/>
<path d="M3591 4925 c-18 -8 -50 -31 -69 -50 -20 -19 -40 -35 -44 -35 -25 0
-28 -123 -28 -1155 0 -594 3 -1097 7 -1118 5 -31 14 -44 46 -65 l41 -27 297 0
c339 0 319 -5 391 91 l38 49 0 1136 0 1136 -26 24 -26 24 -296 2 c-245 2 -303
0 -331 -12z"/>
</g>
</svg>
